<?xml version="1.0" standalone="no"?>
<!DOCTYPE svg PUBLIC "-//W3C//DTD SVG 1.1//EN" "http://www.w3.org/Graphics/SVG/1.1/DTD/svg11.dtd" >
<svg xmlns="http://www.w3.org/2000/svg" xmlns:xlink="http://www.w3.org/1999/xlink" version="1.1">
<metadata>
Created by FontForge 20170731 at Fri Oct 21 17:45:00 2011
 By Aleksey,,,
2007 Erik Spiekermann, Christian Schwartz, Kris Sowersby published by FSI FontShop International GmbH
</metadata>
<defs>
<font id="MetaSerifPro-Book" horiz-adv-x="1" >
  <font-face 
    font-family="MetaSerifPro-Book"
    font-weight="450"
    font-stretch="normal"
    units-per-em="1000"
    panose-1="2 1 6 4 5 1 1 2 1 2"
    ascent="763"
    descent="-237"
    x-height="491"
    cap-height="689"
    bbox="-759 -276 1422 1072"
    underline-thickness="50"
    underline-position="-200"
    unicode-range="U+000D-FEFF"
  />
<missing-glyph horiz-adv-x="553" 
d="M71 0v689h411v-689h-411zM121 50h311v589h-311v-589z" />
    <glyph glyph-name="f_b" unicode="fb" horiz-adv-x="849" 
d="M715 256q0 100 -27 141t-87 41q-39 0 -74.5 -19t-54.5 -43v-268q30 -29 57 -43.5t68 -14.5q62 0 90 45.5t28 160.5zM472 730v-302q71 75 154 75q87 0 137 -63.5t50 -185.5q0 -125 -51.5 -194.5t-145.5 -69.5q-88 0 -157 77q-16 -47 -33 -67h-58q13 35 13 117v467
q0 97 -93 97q-52 0 -75.5 -30.5t-23.5 -95.5v-64h121l-14 -55h-106v-332q0 -41 12.5 -54.5t52.5 -15.5v-34h-226v34q44 3 57 15.5t13 54.5v332h-63v32l63 23v63q0 83 52.5 129.5t145.5 46.5q72 0 119 -26l27 26h29z" />
    <glyph glyph-name="f_f" unicode="ff" horiz-adv-x="589" 
d="M190 436v-332q0 -41 12.5 -54.5t52.5 -15.5v-34h-226v34q44 3 57 15.5t13 54.5v332h-63v32l63 23v46q0 80 51.5 126.5t141.5 46.5q76 0 124 -41q46 61 124 61q55 0 98 -18v-83h-61q-8 52 -46 52q-60 0 -60 -95v-95h121l-14 -55h-106v-332q0 -41 16 -54.5t73 -15.5v-34
h-246v34q41 3 53.5 15.5t12.5 54.5v332h-191zM189 538v-47h192v71q0 99 -95 99q-97 0 -97 -123z" />
    <glyph glyph-name="f_f_b" unicode="ffb" horiz-adv-x="1131" 
d="M754 730v-302q71 75 154 75q87 0 137 -63.5t50 -185.5q0 -125 -51.5 -194.5t-145.5 -69.5q-88 0 -157 77q-16 -47 -33 -67h-58q13 35 13 117v467q0 97 -93 97q-52 0 -75.5 -30.5t-23.5 -95.5v-64h121l-14 -55h-106v-332q0 -41 12.5 -54.5t52.5 -15.5v-34h-222v34
q41 3 53.5 15.5t12.5 54.5v332h-191v-332q0 -41 12.5 -54.5t52.5 -15.5v-34h-226v34q44 3 57 15.5t13 54.5v332h-63v32l63 23v46q0 80 51.5 126.5t141.5 46.5q78 0 126 -43q54 63 161 63q72 0 119 -26l27 26h29zM189 538v-47h192v69q0 58 -26 79.5t-69 21.5q-97 0 -97 -123z
M997 256q0 100 -27 141t-87 41q-39 0 -74.5 -19t-54.5 -43v-268q30 -29 57 -43.5t68 -14.5q62 0 90 45.5t28 160.5z" />
    <glyph glyph-name="f_f_h" unicode="ffh" horiz-adv-x="1147" 
d="M754 730v-309q40 40 77.5 61t89.5 21q61 0 98 -35t37 -99v-265q0 -42 12 -54.5t53 -15.5v-34h-226v34q46 2 58 13.5t12 49.5v254q0 82 -73 82t-138 -63v-273q0 -38 12 -49.5t58 -13.5v-34h-231v34q44 3 57 15.5t13 54.5v480q0 97 -93 97q-52 0 -75.5 -30.5t-23.5 -95.5
v-64h121l-14 -55h-106v-332q0 -41 12.5 -54.5t52.5 -15.5v-34h-222v34q41 3 53.5 15.5t12.5 54.5v332h-191v-332q0 -41 12.5 -54.5t52.5 -15.5v-34h-226v34q44 3 57 15.5t13 54.5v332h-63v32l63 23v46q0 80 51.5 126.5t141.5 46.5q78 0 126 -43q54 63 161 63q72 0 119 -26
l27 26h29zM189 538v-47h192v69q0 58 -26 79.5t-69 21.5q-97 0 -97 -123z" />
    <glyph glyph-name="f_f_i" unicode="ffi" horiz-adv-x="850" 
d="M421 664q49 66 144 66q74 0 122 -18v-90h-73q-4 26 -19 42.5t-39 16.5q-85 0 -85 -123v-67h219l49 13h15v-400q0 -43 11.5 -55.5t58.5 -14.5v-34h-227v34q41 3 53.5 15.5t12.5 54.5v247q0 54 -14 69.5t-59 15.5h-118v-332q0 -41 12.5 -54.5t52.5 -15.5v-34h-222v34
q41 3 53.5 15.5t12.5 54.5v332h-191v-332q0 -41 12.5 -54.5t52.5 -15.5v-34h-226v34q44 3 57 15.5t13 54.5v332h-63v32l63 23v46q0 80 51.5 126.5t141.5 46.5q83 0 129 -46zM381 491v69q0 58 -26 79.5t-69 21.5q-97 0 -97 -123v-47h192z" />
    <glyph glyph-name="f_f_j" unicode="ffj" horiz-adv-x="823" 
d="M381 491v69q0 58 -26 79.5t-69 21.5q-97 0 -97 -123v-47h192zM592 436h-120v-332q0 -41 12.5 -54.5t52.5 -15.5v-34h-222v34q41 3 53.5 15.5t12.5 54.5v332h-191v-332q0 -41 12.5 -54.5t52.5 -15.5v-34h-226v34q44 3 57 15.5t13 54.5v332h-63v32l63 23v46
q0 80 51.5 126.5t141.5 46.5q83 0 129 -46q49 66 144 66q74 0 122 -18v-90h-73q-4 26 -19 42.5t-39 16.5q-85 0 -85 -123v-67h209l49 13h15v-493q0 -54 -9 -90t-31.5 -60t-42 -36t-59.5 -31l-29 40q45 21 62.5 60.5t17.5 117.5v339q0 51 -12 68t-49 17z" />
    <glyph glyph-name="f_f_k" unicode="ffk" horiz-adv-x="1097" 
d="M948 375l-92 -91l151 -190q43 -55 88 -60v-34h-121l-209 262l137 140q18 18 18 31q0 22 -45 24v34h188v-34q-7 -1 -14.5 -3t-13.5 -4.5t-14 -8.5t-12.5 -9t-14 -12t-14 -13t-16 -15.5zM418 667q54 63 161 63q72 0 119 -26l27 26h29v-623q0 -45 13 -58t61 -15v-34h-239v34
q47 3 60.5 15.5t13.5 54.5v480q0 97 -93 97q-52 0 -75.5 -30.5t-23.5 -95.5v-64h121l-14 -55h-106v-332q0 -41 12.5 -54.5t52.5 -15.5v-34h-222v34q41 3 53.5 15.5t12.5 54.5v332h-191v-332q0 -41 12.5 -54.5t52.5 -15.5v-34h-226v34q44 3 57 15.5t13 54.5v332h-63v32l63 23
v46q0 80 51.5 126.5t141.5 46.5q78 0 126 -43zM189 538v-47h192v69q0 58 -26 79.5t-69 21.5q-97 0 -97 -123z" />
    <glyph glyph-name="f_f_l" unicode="ffl" horiz-adv-x="854" 
d="M418 667q54 63 161 63q72 0 119 -26l27 26h29v-623q0 -45 13 -58t61 -15v-34h-239v34q47 3 60.5 15.5t13.5 54.5v480q0 97 -93 97q-52 0 -75.5 -30.5t-23.5 -95.5v-64h121l-14 -55h-106v-332q0 -41 12.5 -54.5t52.5 -15.5v-34h-222v34q41 3 53.5 15.5t12.5 54.5v332h-191
v-332q0 -41 12.5 -54.5t52.5 -15.5v-34h-226v34q44 3 57 15.5t13 54.5v332h-63v32l63 23v46q0 80 51.5 126.5t141.5 46.5q78 0 126 -43zM189 538v-47h192v69q0 58 -26 79.5t-69 21.5q-97 0 -97 -123z" />
    <glyph glyph-name="f_f_t" unicode="fft" horiz-adv-x="896" 
d="M540 730q55 0 98 -18v-83h-61q-8 52 -46 52q-60 0 -60 -95v-95h198q17 90 47 138l47 12q-9 -65 -9 -150h119l-14 -55h-106v-302q0 -58 13 -77t51 -19q27 0 57 10l8 -36q-50 -26 -99 -26q-59 0 -90 31.5t-31 103.5v315h-190v-332q0 -41 16 -54.5t73 -15.5v-34h-246v34
q41 3 53.5 15.5t12.5 54.5v332h-191v-332q0 -41 12.5 -54.5t52.5 -15.5v-34h-226v34q44 3 57 15.5t13 54.5v332h-63v32l63 23v46q0 80 51.5 126.5t141.5 46.5q76 0 124 -41q46 61 124 61zM189 538v-47h192v71q0 99 -95 99q-97 0 -97 -123z" />
    <glyph glyph-name="f_h" unicode="fh" horiz-adv-x="865" 
d="M472 730v-309q40 40 77.5 61t89.5 21q61 0 98 -35t37 -99v-265q0 -42 12 -54.5t53 -15.5v-34h-226v34q46 2 58 13.5t12 49.5v254q0 82 -73 82t-138 -63v-273q0 -38 12 -49.5t58 -13.5v-34h-231v34q44 3 57 15.5t13 54.5v480q0 97 -93 97q-52 0 -75.5 -30.5t-23.5 -95.5
v-64h121l-14 -55h-106v-332q0 -41 12.5 -54.5t52.5 -15.5v-34h-226v34q44 3 57 15.5t13 54.5v332h-63v32l63 23v63q0 83 52.5 129.5t145.5 46.5q72 0 119 -26l27 26h29z" />
    <glyph glyph-name="f_i" unicode="fi" horiz-adv-x="568" 
d="M190 436v-332q0 -41 12.5 -54.5t52.5 -15.5v-34h-226v34q44 3 57 15.5t13 54.5v332h-63v32l63 23v66q0 80 49.5 126.5t134.5 46.5q74 0 122 -18v-90h-73q-4 26 -19 42.5t-39 16.5q-85 0 -85 -123v-67h219l49 13h15v-400q0 -43 11.5 -55.5t58.5 -14.5v-34h-227v34
q41 3 53.5 15.5t12.5 54.5v247q0 51 -13 68t-53 17h-125z" />
    <glyph glyph-name="f_j" unicode="fj" horiz-adv-x="541" 
d="M371 12v339q0 51 -12 68t-49 17h-120v-332q0 -41 12.5 -54.5t52.5 -15.5v-34h-226v34q44 3 57 15.5t13 54.5v332h-63v32l63 23v66q0 80 49.5 126.5t134.5 46.5q74 0 122 -18v-90h-73q-4 26 -19 42.5t-39 16.5q-85 0 -85 -123v-67h209l49 13h15v-493q0 -54 -9 -90
t-31.5 -60t-42 -36t-59.5 -31l-29 40q45 21 62.5 60.5t17.5 117.5z" />
    <glyph glyph-name="f_k" unicode="fk" horiz-adv-x="814" 
d="M665 375l-92 -91l151 -190q43 -55 88 -60v-34h-121l-209 262l137 140q18 18 18 31q0 22 -45 24v34h188v-34q-7 -1 -14.5 -3t-13.5 -4.5t-14 -8.5t-12.5 -9t-14 -12t-14 -13t-16 -15.5zM381 104v480q0 97 -93 97q-52 0 -75.5 -30.5t-23.5 -95.5v-64h121l-14 -55h-106v-332
q0 -41 12.5 -54.5t52.5 -15.5v-34h-226v34q44 3 57 15.5t13 54.5v332h-63v32l63 23v63q0 83 52.5 129.5t145.5 46.5q72 0 119 -26l27 26h29v-623q0 -45 13 -58t61 -15v-34h-239v34q47 3 60.5 15.5t13.5 54.5z" />
    <glyph glyph-name="f_l" unicode="fl" horiz-adv-x="572" 
d="M381 104v480q0 97 -93 97q-52 0 -75.5 -30.5t-23.5 -95.5v-64h121l-14 -55h-106v-332q0 -41 12.5 -54.5t52.5 -15.5v-34h-226v34q44 3 57 15.5t13 54.5v332h-63v32l63 23v63q0 83 52.5 129.5t145.5 46.5q72 0 119 -26l27 26h29v-623q0 -45 13 -58t61 -15v-34h-239v34
q47 3 60.5 15.5t13.5 54.5z" />
    <glyph glyph-name="f_t" unicode="ft" horiz-adv-x="614" 
d="M189 491h198q17 90 47 138l47 12q-9 -65 -9 -150h119l-14 -55h-106v-302q0 -58 13 -77t51 -19q27 0 57 10l8 -36q-50 -26 -99 -26q-59 0 -90 31.5t-31 103.5v315h-190v-332q0 -41 16 -54.5t73 -15.5v-34h-250v34q44 3 57 15.5t13 54.5v332h-63v32l63 23v94
q0 68 43.5 106.5t115.5 38.5q55 0 98 -18v-83h-61q-8 52 -46 52q-60 0 -60 -95v-95z" />
    <glyph glyph-name=".notdef" horiz-adv-x="553" 
d="M71 0v689h411v-689h-411zM121 50h311v589h-311v-589z" />
    <glyph glyph-name=".null" horiz-adv-x="0" 
 />
    <glyph glyph-name=".null" horiz-adv-x="0" 
 />
    <glyph glyph-name="nonmarkingreturn" horiz-adv-x="333" 
 />
    <glyph glyph-name="CR" unicode="&#xd;" horiz-adv-x="225" 
 />
    <glyph glyph-name="space" unicode=" " horiz-adv-x="225" 
 />
    <glyph glyph-name="exclam" unicode="!" horiz-adv-x="291" 
d="M117 210l-31 477l115 17l-31 -494h-53zM144 -8q-27 0 -45.5 19.5t-18.5 48.5q0 27 18.5 46t46.5 19q27 0 46.5 -19t19.5 -46q0 -28 -20 -48t-47 -20z" />
    <glyph glyph-name="quotedbl" unicode="&#x22;" horiz-adv-x="434" 
d="M349 453h-85v256h85v-256zM170 453h-85v256h85v-256z" />
    <glyph glyph-name="numbersign" unicode="#" horiz-adv-x="551" 
d="M64 430v69h102l29 209h62l-29 -209h132l29 209h62l-29 -209h94v-69h-103l-21 -151h94v-68h-103l-30 -211h-62l29 211h-132l-29 -211h-62l29 211h-91v68h101l20 151h-92zM219 430l-21 -151h132l21 151h-132z" />
    <glyph glyph-name="dollar" unicode="$" horiz-adv-x="538" 
d="M290 -100h-45v89q-119 0 -205 55v124h69q10 -67 38.5 -98t97.5 -34v277l-37 12q-78 24 -116.5 67t-38.5 114q0 80 51 132.5t141 60.5v86h45v-84q106 -2 175 -51v-107h-65q-9 49 -33.5 76t-76.5 33v-249l36 -11q167 -50 167 -191q0 -90 -52.5 -144.5t-150.5 -64.5v-92z
M406 166q0 58 -25.5 85.5t-90.5 48.5v-263q116 14 116 129zM135 537q0 -51 24.5 -76t85.5 -45v237q-52 -5 -81 -35.5t-29 -80.5z" />
    <glyph glyph-name="percent" unicode="%" horiz-adv-x="891" 
d="M342 442q0 -92 -44.5 -146.5t-112.5 -54.5q-66 0 -110.5 55.5t-44.5 148.5q0 92 44.5 149t109.5 57q71 0 114.5 -59.5t43.5 -149.5zM262 437q0 177 -76 177q-40 0 -57 -39t-17 -121q0 -94 17.5 -135.5t56.5 -41.5q76 0 76 160zM710 730l-488 -853h-53l487 853h54z
M861 192q0 -92 -44.5 -146.5t-112.5 -54.5q-66 0 -110.5 55.5t-44.5 148.5q0 92 44.5 149t109.5 57q71 0 114.5 -59.5t43.5 -149.5zM781 187q0 177 -76 177q-40 0 -57 -39t-17 -121q0 -94 17.5 -135.5t56.5 -41.5q76 0 76 160z" />
    <glyph glyph-name="ampersand" unicode="&#x26;" horiz-adv-x="693" 
d="M472 548q0 -61 -40 -104.5t-115 -81.5l195 -196q20 46 20 106q0 45 -13.5 60t-62.5 16v35h214v-35q-47 -1 -59 -15t-17 -61q-9 -78 -45 -143l68 -68q29 -28 76 -28v-33h-140l-60 60q-80 -71 -208 -71q-119 0 -182 47t-63 123q0 71 38 108.5t128 81.5l-30 30
q-36 36 -50 52.5t-27 47.5t-13 69q0 62 51.5 107.5t138.5 45.5q94 0 145 -39.5t51 -113.5zM305 35q97 0 158 55l-229 231q-50 -32 -70 -60t-20 -79q0 -60 42.5 -103.5t118.5 -43.5zM179 555q0 -26 12.5 -51.5t26 -41t41.5 -42.5l31 -30q53 42 69.5 71.5t16.5 86.5
q0 108 -100 108q-45 0 -71 -26.5t-26 -74.5z" />
    <glyph glyph-name="quotesingle" unicode="'" horiz-adv-x="255" 
d="M170 453h-85v256h85v-256z" />
    <glyph glyph-name="parenleft" unicode="(" horiz-adv-x="333" 
d="M148 324q0 -60 3 -106.5t13 -102.5t27 -97.5t48 -80t74 -61.5l-17 -35q-70 30 -118.5 81t-73 118t-34.5 134t-10 148q0 161 52 271.5t184 181.5l17 -35q-43 -27 -73.5 -62t-48 -71.5t-27.5 -85.5t-13 -93t-3 -104z" />
    <glyph glyph-name="parenright" unicode=")" horiz-adv-x="333" 
d="M185 324q0 153 -32.5 253t-132.5 163l17 35q132 -71 184 -181.5t52 -271.5q0 -81 -10 -148t-34.5 -134t-73 -118t-118.5 -81l-17 35q53 29 87.5 75t50.5 109t21.5 122t5.5 142z" />
    <glyph glyph-name="asterisk" unicode="*" horiz-adv-x="461" 
d="M421 553l-126 -62l69 -127l-37 -29l-98 108l-95 -105l-36 27l68 126l-126 64l13 41l139 -30l18 142h42l17 -142l138 29z" />
    <glyph glyph-name="plus" unicode="+" horiz-adv-x="575" 
d="M257 507h59v-209h204v-53h-204v-211h-59v211h-202v53h202v209z" />
    <glyph glyph-name="comma" unicode="," horiz-adv-x="297" 
d="M218 31q0 -59 -39.5 -107.5t-103.5 -66.5l-20 31q42 16 65 38.5t23 44.5q0 12 -8 18.5t-28 14.5q-42 19 -42 58q0 29 21 49.5t51 20.5q35 0 58 -28.5t23 -72.5z" />
    <glyph glyph-name="hyphen" unicode="-" horiz-adv-x="313" 
d="M258 235h-203v71h203v-71z" />
    <glyph glyph-name="period" unicode="." horiz-adv-x="272" 
d="M207 59q0 -31 -20 -52t-51 -21t-51 21t-20 52t20 52t51 21t51 -21t20 -52z" />
    <glyph glyph-name="slash" unicode="/" horiz-adv-x="398" 
d="M29 -149l260 910h68l-260 -910h-68z" />
    <glyph glyph-name="zero" unicode="0" horiz-adv-x="552" 
d="M511 246q0 -117 -66.5 -188.5t-168.5 -71.5t-168.5 72.5t-66.5 192.5q0 119 66 191.5t167 72.5q108 0 172.5 -76.5t64.5 -192.5zM413 242q0 224 -139 224q-135 0 -135 -205q0 -115 33 -170.5t106 -55.5q64 0 99.5 55t35.5 152z" />
    <glyph glyph-name="one" unicode="1" horiz-adv-x="407" 
d="M268 513v-405q0 -46 16 -59t81 -15v-34h-294v34q68 3 87 16t19 59v312q-49 -26 -117 -48l-13 33l163 107h58z" />
    <glyph glyph-name="two" unicode="2" horiz-adv-x="447" 
d="M220 517q91 0 137.5 -41.5t46.5 -111.5q0 -48 -27.5 -91t-69.5 -77.5t-127 -93.5l-42 -29h280l-16 -73h-378v46l97 73q93 70 140 123.5t47 117.5q0 45 -27.5 70.5t-75.5 25.5q-33 0 -60.5 -6.5t-42 -13.5t-37.5 -20l-27 42q82 59 182 59z" />
    <glyph glyph-name="three" unicode="3" horiz-adv-x="469" 
d="M209 455q-87 0 -153 -50l-31 39q92 73 195 73q88 0 139 -41.5t51 -114.5q0 -56 -33.5 -97.5t-95.5 -59.5q68 -13 107.5 -54t39.5 -97q0 -103 -88 -160t-210 -57q-59 0 -110 13l-11 43q56 -8 100 -8q102 0 161.5 40.5t59.5 124.5q0 71 -38 97.5t-119 26.5q-11 0 -45 -2v51
q36 -2 55 -2q68 0 101.5 31.5t33.5 106.5q0 44 -29.5 70.5t-79.5 26.5z" />
    <glyph glyph-name="four" unicode="4" horiz-adv-x="539" 
d="M329 -179v197h-305v42l225 461h98l-251 -454h233q1 157 39 276l52 17v-293h84v-49h-84v-178z" />
    <glyph glyph-name="five" unicode="5" horiz-adv-x="462" 
d="M421 60q0 -70 -41 -122.5t-102 -77t-129 -24.5q-66 0 -117 18l-11 46q54 -15 113 -15q85 0 137 40.5t52 126.5q0 136 -128 136q-66 0 -127 -24l31 337h309l-14 -75h-240l-18 -196q46 13 85 13q93 0 146.5 -49t53.5 -134z" />
    <glyph glyph-name="six" unicode="6" horiz-adv-x="525" 
d="M435 662q-85 -33 -140.5 -70.5t-95.5 -99t-53 -146.5q66 53 143 53q87 0 143.5 -51.5t56.5 -141.5q0 -94 -61 -157.5t-155 -63.5q-104 0 -167 73t-63 201q0 93 30.5 169.5t85 129.5t119 88t142.5 57zM270 342q-69 0 -129 -45q-1 -14 -1 -45q0 -218 133 -218
q119 0 119 170q0 79 -32.5 108.5t-89.5 29.5z" />
    <glyph glyph-name="seven" unicode="7" horiz-adv-x="471" 
d="M444 501l-13 -64q-83 -111 -147.5 -268t-95.5 -320l-101 -26q35 148 113 313.5t165 289.5h-337l17 75h399z" />
    <glyph glyph-name="eight" unicode="8" horiz-adv-x="539" 
d="M40 165q0 108 146 176q-114 60 -114 156q0 75 59 123t141 48q89 0 144 -43t55 -112q0 -93 -129 -154q69 -29 113 -71.5t44 -112.5q0 -85 -65 -136.5t-166 -51.5q-106 0 -167 50.5t-61 127.5zM409 156q0 32 -10.5 55.5t-38.5 43t-54.5 32.5t-80.5 36q-91 -64 -91 -152
q0 -66 35 -101t101 -35q63 0 101 32.5t38 88.5zM159 511q0 -46 30.5 -75.5t109.5 -60.5q80 55 80 134q0 52 -27.5 81.5t-80.5 29.5q-52 0 -82 -30.5t-30 -78.5z" />
    <glyph glyph-name="nine" unicode="9" horiz-adv-x="525" 
d="M43 -155q162 50 250 138q70 72 85 175q-63 -52 -142 -52q-87 0 -143.5 51.5t-56.5 141.5q0 94 63 157.5t157 63.5q105 0 165.5 -70t60.5 -199q0 -96 -31.5 -172.5t-88.5 -129t-128 -87t-159 -54.5zM255 163q69 0 128 44q2 36 2 58q0 111 -33 158.5t-96 47.5
q-123 0 -123 -170q0 -79 32.5 -108.5t89.5 -29.5z" />
    <glyph glyph-name="colon" unicode=":" horiz-adv-x="312" 
d="M227 373q0 -31 -20 -52t-51 -21t-51 21t-20 52t20 52t51 21t51 -21t20 -52zM227 59q0 -31 -20 -52t-51 -21t-51 21t-20 52t20 52t51 21t51 -21t20 -52z" />
    <glyph glyph-name="semicolon" unicode=";" horiz-adv-x="327" 
d="M238 31q0 -59 -39.5 -107.5t-103.5 -66.5l-20 31q42 16 65 38.5t23 44.5q0 4 -0.5 7t-3 6t-4 5t-5.5 4t-6.5 3t-8 4t-8.5 4q-42 19 -42 58q0 29 21 49.5t51 20.5q35 0 58 -28.5t23 -72.5zM227 373q0 -31 -20 -52t-51 -21t-51 21t-20 52t20 52t51 21t51 -21t20 -52z" />
    <glyph glyph-name="less" unicode="&#x3c;" horiz-adv-x="477" 
d="M422 56l-367 198v72l367 232v-68l-316 -196l316 -173v-65z" />
    <glyph glyph-name="equal" unicode="=" horiz-adv-x="575" 
d="M55 173v53h465v-53h-465zM55 321v53h465v-53h-465z" />
    <glyph glyph-name="greater" unicode="&#x3e;" horiz-adv-x="477" 
d="M422 254l-367 -198v65l316 173l-316 196v68l367 -232v-72z" />
    <glyph glyph-name="question" unicode="?" horiz-adv-x="447" 
d="M277 60q0 -30 -21 -51.5t-50 -21.5q-28 0 -48 21.5t-20 51.5q0 28 20 48t48 20q29 0 50 -20t21 -48zM211 654q-79 0 -89 -91h-64v90q64 47 163 47q78 0 124.5 -37t46.5 -116q0 -94 -99 -156q-44 -28 -60.5 -52.5t-16.5 -67.5q0 -27 8 -56h-41q-24 41 -24 80q0 68 57 120
q3 3 18 16t20.5 18.5t16.5 19t15.5 24.5t9 28.5t4.5 36.5q0 45 -25 70.5t-64 25.5z" />
    <glyph glyph-name="at" unicode="@" horiz-adv-x="906" 
d="M614 -1q-62 0 -90.5 24.5t-28.5 79.5q-48 -104 -145 -104q-54 0 -84.5 36t-30.5 102q0 141 83 228t195 87q83 0 139 -50q-11 -36 -25 -96l-43 -175q-7 -29 -7 -49q0 -25 11.5 -34.5t37.5 -9.5q58 0 106 60t48 167q0 158 -84.5 237t-223.5 79q-154 0 -250 -105t-96 -283
q0 -145 82 -236.5t222 -91.5q89 0 161 24l15 -30q-88 -35 -188 -35q-167 0 -270 98.5t-103 271.5q0 190 120.5 310.5t308.5 120.5q176 0 281.5 -95t105.5 -254q0 -138 -72 -207.5t-175 -69.5zM511 189l43 187q-15 30 -54 30q-81 0 -127.5 -76.5t-46.5 -185.5q0 -83 54 -83
q36 0 65 32.5t66 95.5z" />
    <glyph glyph-name="A" unicode="A" horiz-adv-x="657" 
d="M459 107l-33 108h-230l-33 -108q-6 -21 -6 -35q0 -21 16 -28t57 -9v-35h-214v35q36 3 53 19.5t33 66.5l184 568h89l182 -566q15 -47 31.5 -66t52.5 -22v-35h-245v35q36 2 52 11.5t16 30.5q0 13 -5 30zM257 411l-46 -148h201l-45 148q-31 101 -52 191h-4
q-40 -146 -54 -191z" />
    <glyph glyph-name="B" unicode="B" horiz-adv-x="607" 
d="M37 0v35q49 1 64.5 16.5t15.5 59.5v467q0 44 -15.5 59.5t-64.5 16.5v35h252q131 0 190.5 -42.5t59.5 -127.5q0 -117 -126 -149v-4q80 -12 120.5 -60t40.5 -117q0 -94 -68 -141.5t-173 -47.5h-296zM212 49h127q78 0 106.5 33.5t28.5 112.5q0 78 -32 109t-120 31h-110v-286
zM212 383h103q71 0 99.5 30t28.5 95q0 73 -29.5 102.5t-102.5 29.5h-99v-257z" />
    <glyph glyph-name="C" unicode="C" horiz-adv-x="577" 
d="M348 -11q-153 0 -228.5 92t-75.5 258q0 170 80.5 266t215.5 96q131 0 198 -47v-112h-70q-15 60 -43 86t-88 26q-91 0 -139.5 -73t-48.5 -240q0 -171 50 -238t149 -67q59 0 89 24.5t41 83.5h65v-105q-70 -50 -195 -50z" />
    <glyph glyph-name="D" unicode="D" horiz-adv-x="670" 
d="M37 0v35q49 1 64.5 16.5t15.5 59.5v467q0 44 -15.5 59.5t-64.5 16.5v35h253q159 0 247.5 -85t88.5 -260q0 -160 -79.5 -252t-256.5 -92h-253zM215 51h85q118 0 170 60t52 221q0 167 -54 238.5t-166 71.5h-87v-591z" />
    <glyph glyph-name="E" unicode="E" horiz-adv-x="565" 
d="M37 0v35q49 1 64.5 16.5t15.5 59.5v467q0 44 -15.5 59.5t-64.5 16.5v35h470l10 -150h-42q-17 60 -35.5 80.5t-60.5 20.5h-167v-256h93q47 0 65 14.5t21 56.5h41v-190h-41q-3 41 -21 56t-64 15h-94v-287h168q57 0 77.5 23t26.5 93h45v-165h-492z" />
    <glyph glyph-name="F" unicode="F" horiz-adv-x="552" 
d="M37 0v35q49 1 64.5 16.5t15.5 59.5v467q0 44 -15.5 59.5t-64.5 16.5v35h472l12 -155h-42q-22 67 -40.5 86.5t-64.5 19.5h-162v-272h93q47 0 65 14.5t21 56.5h41v-193h-41q-3 42 -21 58t-64 16h-94v-206q0 -45 17.5 -61.5t70.5 -17.5v-35h-263z" />
    <glyph glyph-name="G" unicode="G" horiz-adv-x="644" 
d="M461 66v163q0 44 -17 59.5t-73 16.5v35h250v-35q-39 -1 -52 -17t-13 -59v-189q-84 -51 -216 -51q-138 0 -217 93t-79 259t82 263t214 97q139 0 212 -51v-111h-70q-12 61 -43 88t-107 27q-186 0 -186 -318q0 -147 45.5 -224t155.5 -77q74 0 114 31z" />
    <glyph glyph-name="H" unicode="H" horiz-adv-x="708" 
d="M496 111v229h-284v-229q0 -44 15.5 -59.5t64.5 -16.5v-35h-255v35q49 1 64.5 16.5t15.5 59.5v467q0 44 -15.5 59.5t-64.5 16.5v35h255v-35q-49 -1 -64.5 -16.5t-15.5 -59.5v-188h284v188q0 44 -15.5 59.5t-64.5 16.5v35h255v-35q-49 -1 -64.5 -16.5t-15.5 -59.5v-467
q0 -44 15.5 -59.5t64.5 -16.5v-35h-255v35q49 1 64.5 16.5t15.5 59.5z" />
    <glyph glyph-name="I" unicode="I" horiz-adv-x="329" 
d="M117 111v467q0 44 -15.5 59.5t-64.5 16.5v35h255v-35q-49 -1 -64.5 -16.5t-15.5 -59.5v-467q0 -44 15.5 -59.5t64.5 -16.5v-35h-255v35q49 1 64.5 16.5t15.5 59.5z" />
    <glyph glyph-name="J" unicode="J" horiz-adv-x="339" 
d="M122 100v478q0 44 -16.5 59.5t-68.5 16.5v35h265v-35q-52 -1 -68.5 -16.5t-16.5 -59.5v-471q0 -116 -39.5 -168t-149.5 -86l-24 37q77 39 97.5 80t20.5 130z" />
    <glyph glyph-name="K" unicode="K" horiz-adv-x="622" 
d="M117 111v467q0 44 -15.5 59.5t-64.5 16.5v35h255v-35q-49 -1 -64.5 -16.5t-15.5 -59.5v-467q0 -44 15.5 -59.5t64.5 -16.5v-35h-255v35q49 1 64.5 16.5t15.5 59.5zM458 552l-144 -162l211 -306q19 -28 36 -37t55 -12v-35h-149l-239 361l184 215q24 29 24 48q0 28 -54 30
v35h212v-35q-34 -5 -59 -24t-77 -78z" />
    <glyph glyph-name="L" unicode="L" horiz-adv-x="544" 
d="M212 576v-527h144q54 0 77.5 25.5t38.5 94.5h44l-15 -169h-464v35q49 1 64.5 16.5t15.5 59.5v467q0 44 -15.5 59.5t-64.5 16.5v35h260v-35q-52 -1 -68.5 -17.5t-16.5 -60.5z" />
    <glyph glyph-name="M" unicode="M" horiz-adv-x="801" 
d="M758 689v-35q-52 -3 -67.5 -19.5t-12.5 -56.5l40 -464q4 -46 17 -62t54 -17v-35h-237v35q49 1 63 16.5t11 55.5l-29 366q-3 31 -3 98v20h-6q-9 -63 -23 -109l-150 -482h-60l-147 460q-15 47 -29 132h-6q0 -33 -6 -132l-20 -352q-2 -18 -1 -32t7.5 -22.5t22.5 -13.5t44 -5
v-35h-208v35q42 1 55 17t17 62l34 464q3 41 -12 57.5t-68 18.5v35h193l145 -453q17 -53 23 -116h6q6 62 23 115l136 454h194z" />
    <glyph glyph-name="N" unicode="N" horiz-adv-x="685" 
d="M516 333v245q0 44 -15.5 59.5t-64.5 16.5v35h219v-35q-45 -1 -58.5 -16.5t-13.5 -59.5v-578h-71l-250 408q-57 93 -84 170h-6q12 -81 12 -184v-283q0 -44 15.5 -59.5t64.5 -16.5v-35h-227v35q49 1 64.5 16.5t15.5 59.5v467q0 44 -15.5 59.5t-64.5 16.5v35h162l255 -418
q46 -76 68 -145h6q-12 72 -12 207z" />
    <glyph glyph-name="O" unicode="O" horiz-adv-x="674" 
d="M340 -11q-143 0 -219.5 98.5t-76.5 259.5q0 168 78.5 261t212.5 93q77 0 135 -29t92 -80t51 -114.5t17 -137.5q0 -160 -77.5 -255.5t-212.5 -95.5zM335 654q-98 0 -143.5 -73.5t-45.5 -222.5q0 -324 194 -324q186 0 186 297q0 161 -44.5 242t-146.5 81z" />
    <glyph glyph-name="P" unicode="P" horiz-adv-x="577" 
d="M212 287v-173q0 -45 17.5 -61.5t70.5 -17.5v-35h-263v35q49 1 64.5 16.5t15.5 59.5v467q0 44 -15.5 59.5t-64.5 16.5v35h252q258 0 258 -198q0 -97 -60 -150.5t-172 -53.5h-103zM446 480q0 90 -32 125t-123 35h-79v-305h97q74 0 105.5 33.5t31.5 111.5z" />
    <glyph glyph-name="Q" unicode="Q" horiz-adv-x="676" 
d="M588 -125q-30 0 -63 17.5t-59 39t-66 40t-82 19.5q-130 4 -202 102t-72 254q0 168 78.5 261t212.5 93q77 0 135 -29t92 -80t51 -114.5t17 -137.5q0 -135 -55 -223t-155 -107q29 -7 92 -34t103 -27t58 4l-27 -68q-18 -10 -58 -10zM335 654q-98 0 -143.5 -73.5
t-45.5 -222.5q0 -324 194 -324q186 0 186 297q0 161 -44.5 242t-146.5 81z" />
    <glyph glyph-name="R" unicode="R" horiz-adv-x="611" 
d="M324 328v-4q62 -15 101 -66q17 -21 103 -165q18 -31 34.5 -44t52.5 -14v-35h-148q-98 191 -128 239q-30 47 -56.5 66.5t-70.5 20.5v-217q0 -41 16 -57t62 -17v-35h-253v35q49 1 64.5 16.5t15.5 59.5v467q0 44 -15.5 59.5t-64.5 16.5v35h248q249 0 249 -186
q0 -83 -58 -128t-152 -47zM433 502q0 79 -32.5 108.5t-109.5 29.5h-79v-278h74q71 0 109 32t38 108z" />
    <glyph glyph-name="S" unicode="S" horiz-adv-x="538" 
d="M245 -11q-119 0 -205 55v124h69q10 -70 41.5 -101t108.5 -31q147 0 147 130q0 61 -28 88.5t-101 49.5l-69 21q-78 24 -116.5 67t-38.5 114q0 87 60 141t163 54q120 0 189 -51v-107h-65q-10 55 -40 83t-97 28q-59 0 -93.5 -31t-34.5 -86q0 -53 26.5 -78t94.5 -46l70 -21
q167 -50 167 -191q0 -100 -64.5 -156t-183.5 -56z" />
    <glyph glyph-name="T" unicode="T" horiz-adv-x="551" 
d="M28 689h495l8 -157h-47q-13 68 -27 88t-57 20h-77v-529q0 -46 18.5 -60t71.5 -16v-35h-275v35q53 2 71.5 16t18.5 60v529h-77q-43 0 -57 -20t-27 -88h-47z" />
    <glyph glyph-name="U" unicode="U" horiz-adv-x="684" 
d="M517 224v354q0 44 -16 59.5t-69 16.5v35h224v-35q-45 -1 -58.5 -16.5t-13.5 -59.5v-354q0 -121 -59 -178t-175 -57q-247 0 -247 228v361q0 44 -14.5 59.5t-60.5 16.5v35h255v-35q-53 -1 -69 -16.5t-16 -59.5v-339q0 -103 36 -146.5t130 -43.5q83 0 118 40.5t35 134.5z
" />
    <glyph glyph-name="V" unicode="V" horiz-adv-x="653" 
d="M370 0h-91l-179 566q-15 48 -31 66t-53 22v35h245v-35q-37 -2 -52.5 -11t-15.5 -31q0 -10 5 -30l89 -303q28 -98 50 -196h6q24 96 54 196l91 303q6 21 6 36q0 19 -15.5 26.5t-53.5 9.5v35h212v-35q-37 -5 -53.5 -21t-32.5 -65z" />
    <glyph glyph-name="W" unicode="W" horiz-adv-x="897" 
d="M580 0l-109 438q-11 42 -21 121h-4q-11 -70 -23 -121l-103 -438h-96l-128 566q-11 49 -26.5 66.5t-53.5 21.5v35h241v-35q-38 -3 -54 -12.5t-16 -31.5q0 -13 3 -28l66 -298q16 -71 27 -176h6q22 108 38 176l97 405h75l101 -406q15 -60 40 -175h6q15 96 32 175l61 277
q5 25 5 41q0 28 -16.5 39.5t-56.5 13.5v35h209v-35q-35 -5 -51.5 -26.5t-28.5 -70.5l-128 -557h-92z" />
    <glyph glyph-name="X" unicode="X" horiz-adv-x="632" 
d="M474 574l-115 -200l149 -257q26 -44 47.5 -61t52.5 -21v-35h-244v35q55 1 55 31q0 16 -16 46l-110 198h-4l-105 -200q-14 -25 -14 -43q0 -29 59 -32v-35h-205v35q31 4 52.5 22.5t50.5 70.5l133 235l-128 217q-25 42 -44 56t-50 18v35h239v-35q-56 -3 -56 -30
q0 -15 17 -46l88 -157h4l83 156q15 27 15 45q0 29 -53 32v35h194v-35q-30 -4 -50.5 -20.5t-44.5 -59.5z" />
    <glyph glyph-name="Y" unicode="Y" horiz-adv-x="594" 
d="M319 345h4l108 234q12 27 12 43q0 29 -59 32v35h199v-35q-31 -4 -50.5 -21.5t-46.5 -71.5l-137 -279v-171q0 -44 16.5 -59.5t68.5 -16.5v-35h-265v35q52 1 68.5 16.5t16.5 59.5v165l-149 296q-23 46 -43 62t-51 20v35h238v-35q-53 -1 -53 -30q0 -16 14 -47z" />
    <glyph glyph-name="Z" unicode="Z" horiz-adv-x="519" 
d="M497 633l-374 -584h197q57 0 84 27t42 96h44l-15 -172h-451v56l374 584h-186q-49 0 -75.5 -26.5t-41.5 -86.5h-44l14 162h432v-56z" />
    <glyph glyph-name="bracketleft" unicode="[" horiz-adv-x="300" 
d="M275 -155h-185v928h185v-42h-106v-844h106v-42z" />
    <glyph glyph-name="backslash" unicode="\" horiz-adv-x="398" 
d="M115 761l260 -910h-68l-260 910h68z" />
    <glyph glyph-name="bracketright" unicode="]" horiz-adv-x="300" 
d="M210 -155h-185v42h106v844h-106v42h185v-928z" />
    <glyph glyph-name="asciicircum" unicode="^" horiz-adv-x="604" 
d="M539 310h-75l-165 326l-160 -326h-74l203 398h68z" />
    <glyph glyph-name="underscore" unicode="_" horiz-adv-x="496" 
d="M498 -125h-500v50h500v-50z" />
    <glyph glyph-name="grave" unicode="`" horiz-adv-x="392" 
d="M312 600l-20 -34l-212 96l53 91z" />
    <glyph glyph-name="a" unicode="a" horiz-adv-x="512" 
d="M420 131q0 -57 13 -73t61 -20v-33q-27 -11 -69 -11q-49 0 -68 17.5t-23 53.5q-17 -30 -52 -55t-85 -25q-73 0 -117 37.5t-44 105.5q0 161 262 161q22 0 35 -1v44q0 67 -19.5 95.5t-71.5 28.5q-100 0 -116 -90h-63v89q93 51 187 51q174 0 174 -168q0 -7 -2 -80.5
t-2 -126.5zM331 240q-28 2 -35 2q-86 0 -124.5 -25t-38.5 -82q0 -52 20.5 -72.5t65.5 -20.5q67 0 109 73z" />
    <glyph glyph-name="b" unicode="b" horiz-adv-x="555" 
d="M421 256q0 100 -27 141t-87 41q-39 0 -74.5 -19t-54.5 -43v-268q30 -29 57 -43.5t68 -14.5q62 0 90 45.5t28 160.5zM165 67q-16 -47 -33 -67h-58q13 35 13 117v467q0 53 -15 68t-61 17v32l140 29h15q12 -38 12 -99v-203q71 75 154 75q87 0 137 -63.5t50 -185.5
q0 -125 -51.5 -194.5t-145.5 -69.5q-88 0 -157 77z" />
    <glyph glyph-name="c" unicode="c" horiz-adv-x="463" 
d="M415 464v-92h-68q-8 46 -26 65.5t-58 19.5q-128 0 -128 -199q0 -117 33.5 -165.5t105.5 -48.5q42 0 69 12.5t64 42.5l26 -28q-72 -82 -173 -82q-98 0 -161 64t-63 185q0 126 64 195.5t165 69.5q93 0 150 -39z" />
    <glyph glyph-name="d" unicode="d" horiz-adv-x="567" 
d="M383 74q-29 -37 -70 -60.5t-80 -23.5q-85 0 -141 61.5t-56 189.5q0 118 55 190t150 72q81 0 136 -60v141q0 53 -15 68t-61 17v32l146 29h21v-592q0 -53 15 -68t64 -17v-30l-127 -36h-15q-18 36 -22 87zM134 253q0 -114 27 -160.5t88 -46.5q63 0 128 72v271
q-47 57 -121 57q-62 0 -92 -41t-30 -152z" />
    <glyph glyph-name="e" unicode="e" horiz-adv-x="483" 
d="M289 49q69 0 133 42l21 -34q-88 -68 -178 -68q-108 0 -168.5 68.5t-60.5 191.5q0 120 60 189t155 69t147.5 -62.5t52.5 -176.5v-27h-319q1 -106 38.5 -149t118.5 -43zM249 459q-54 0 -82.5 -38.5t-33.5 -130.5h223q0 91 -25 130t-82 39z" />
    <glyph glyph-name="f" unicode="f" horiz-adv-x="316" 
d="M190 436v-332q0 -41 16 -54.5t73 -15.5v-34h-250v34q44 3 57 15.5t13 54.5v332h-63v32l63 23v94q0 68 43.5 106.5t115.5 38.5q64 0 107 -18l-9 -83h-61q-8 52 -46 52q-60 0 -60 -95v-95h121l-14 -55h-106z" />
    <glyph glyph-name="g" unicode="g" horiz-adv-x="523" 
d="M254 -189q-99 0 -154.5 33.5t-55.5 81.5q0 40 51 70l42 2q-11 -20 -11 -52q0 -44 28.5 -65.5t97.5 -21.5q140 0 140 93q0 46 -29 60.5t-127 16.5q-44 1 -89 6q-31 4 -48 26t-17 52q0 55 93 86q-54 13 -86.5 52.5t-32.5 89.5q0 73 51 118.5t137 45.5q41 0 78 -11
q52 -16 75 -16q37 0 81 31l34 -65q-36 -18 -70 -18q-29 0 -70 19q60 -45 60 -106q0 -58 -44 -102.5t-143 -49.5q-7 -1 -22 -1q-27 -8 -44 -22t-17 -30q0 -25 36 -25h92q93 0 138.5 -31t45.5 -107q0 -72 -62.5 -116t-157.5 -44zM243 232q91 0 91 110q0 60 -22.5 88t-69.5 28
q-91 0 -91 -113t92 -113z" />
    <glyph glyph-name="h" unicode="h" horiz-adv-x="583" 
d="M190 631v-210q40 40 77.5 61t89.5 21q61 0 98 -35t37 -99v-265q0 -42 12 -54.5t53 -15.5v-34h-226v34q46 2 58 13.5t12 49.5v254q0 82 -73 82t-138 -63v-273q0 -38 12 -49.5t58 -13.5v-34h-231v34q44 3 57 15.5t13 54.5v480q0 53 -15 68t-61 17v32l140 29h15
q12 -38 12 -99z" />
    <glyph glyph-name="i" unicode="i" horiz-adv-x="286" 
d="M260 0h-231v34q44 3 57 15.5t13 54.5v245q0 53 -14 68t-59 17v30l149 40h15v-400q0 -43 11.5 -55.5t58.5 -14.5v-34zM200 644q0 -26 -18 -44.5t-44 -18.5t-44 18.5t-18 44.5t18 44.5t44 18.5t44 -18.5t18 -44.5z" />
    <glyph glyph-name="j" unicode="j" horiz-adv-x="269" 
d="M99 12v337q0 53 -14 68t-59 17v30l149 40h15v-493q0 -54 -9 -90t-31.5 -60t-42 -36t-59.5 -31l-29 40q45 21 62.5 60.5t17.5 117.5zM200 644q0 -26 -18 -44.5t-44 -18.5t-44 18.5t-18 44.5t18 44.5t44 18.5t44 -18.5t18 -44.5z" />
    <glyph glyph-name="k" unicode="k" horiz-adv-x="531" 
d="M29 0v34q44 3 57 15.5t13 54.5v480q0 53 -15 68t-61 17v32l140 29h15q12 -36 12 -99v-534q0 -38 12 -49.5t58 -13.5v-34h-231zM408 0l-209 262l137 140q24 25 16 39t-43 16v34h188v-34q-7 -1 -14.5 -3t-13.5 -4.5t-14 -8.5t-12.5 -9t-14 -12t-14 -13t-16 -15.5
l-16.5 -16.5l-92 -91l151 -190q43 -55 88 -60v-34h-121z" />
    <glyph glyph-name="l" unicode="l" horiz-adv-x="294" 
d="M194 631v-524q0 -45 13 -58t61 -15v-34h-239v34q47 3 60.5 15.5t13.5 54.5v480q0 53 -15.5 68t-64.5 17v32l144 29h15q12 -36 12 -99z" />
    <glyph glyph-name="m" unicode="m" horiz-adv-x="831" 
d="M458 425q40 38 76 58t80 20q56 0 91 -35.5t35 -98.5v-265q0 -42 12 -54.5t53 -15.5v-34h-221v34q43 2 54 13.5t11 49.5v254q0 44 -14 63t-47 19q-61 0 -118 -49v-287q0 -36 11.5 -48t48.5 -15v-34h-216v34q43 2 54 13.5t11 49.5v254q0 44 -14 63t-47 19q-37 0 -65 -14
t-63 -44v-278q0 -38 11 -49.5t54 -13.5v-34h-226v34q44 3 57 15.5t13 54.5v245q0 53 -14 68t-59 17v30l128 40h15q16 -39 17 -82q28 26 47 40.5t49 27.5t62 13q41 0 71.5 -20t42.5 -58z" />
    <glyph glyph-name="n" unicode="n" horiz-adv-x="583" 
d="M492 369v-265q0 -42 12 -54.5t53 -15.5v-34h-226v34q46 2 58 13.5t12 49.5v254q0 82 -73 82t-138 -63v-273q0 -38 12 -49.5t58 -13.5v-34h-231v34q44 3 57 15.5t13 54.5v245q0 53 -14 68t-59 17v30l128 40h15q16 -35 17 -87q82 86 171 86q61 0 98 -35t37 -99z" />
    <glyph glyph-name="o" unicode="o" horiz-adv-x="532" 
d="M496 242q0 -117 -64 -185.5t-166 -68.5t-166 69.5t-64 189.5q0 119 63.5 189t164.5 70q108 0 170 -74t62 -190zM398 238q0 219 -134 219q-71 0 -100.5 -50.5t-29.5 -149.5q0 -115 31 -167.5t103 -52.5q64 0 97 52t33 149z" />
    <glyph glyph-name="p" unicode="p" horiz-adv-x="568" 
d="M434 236q0 114 -26 158.5t-88 44.5q-72 0 -130 -64v-271q23 -28 55.5 -44t61.5 -16q66 0 96.5 41.5t30.5 150.5zM185 421q28 36 70.5 59t82.5 23q87 0 140.5 -62t53.5 -186q0 -119 -53.5 -189.5t-150.5 -70.5q-84 0 -138 57v-145q0 -41 14 -54t64 -15v-34h-239v34
q44 3 57 15.5t13 54.5v441q0 53 -14 68t-59 17v30l128 40h15q13 -32 16 -83z" />
    <glyph glyph-name="q" unicode="q" horiz-adv-x="544" 
d="M134 253q0 -114 27 -160.5t88 -46.5q63 0 128 72v271q-47 57 -121 57q-62 0 -92 -41t-30 -152zM393 426q12 43 38 69h50q-12 -45 -12 -140v-447q0 -42 13 -54.5t57 -15.5v-34h-239v34q50 2 64 15t14 54v161q-66 -78 -145 -78q-85 0 -141 61.5t-56 189.5q0 118 55 190
t150 72q90 0 152 -77z" />
    <glyph glyph-name="r" unicode="r" horiz-adv-x="364" 
d="M186 390q66 117 136 117q17 0 30 -5l-22 -99q-12 5 -31 5q-61 0 -85 -28t-24 -101v-175q0 -43 14.5 -55.5t70.5 -14.5v-34h-246v34q44 3 57 15.5t13 54.5v245q0 53 -14 68t-59 17v30l128 40h15q17 -41 17 -114z" />
    <glyph glyph-name="s" unicode="s" horiz-adv-x="431" 
d="M202 -12q-98 0 -165 42v97h67q5 -51 29.5 -72t77.5 -21q103 0 103 87q0 39 -20 57.5t-66 29.5l-59 14q-127 30 -127 139q0 68 50 106t125 38q80 0 150 -35v-90h-64q-15 79 -94 79q-44 0 -68 -20.5t-24 -56.5q0 -32 17.5 -50.5t62.5 -28.5l59 -14q71 -17 104 -49.5
t33 -86.5q0 -75 -51.5 -120t-139.5 -45z" />
    <glyph glyph-name="t" unicode="t" horiz-adv-x="321" 
d="M298 491l-14 -55h-106v-302q0 -58 13 -77t51 -19q27 0 57 10l8 -36q-50 -26 -99 -26q-59 0 -90 31.5t-31 103.5v315h-60v32l67 23q17 90 47 138l47 12q-9 -65 -9 -150h119z" />
    <glyph glyph-name="u" unicode="u" horiz-adv-x="580" 
d="M481 504v-366q0 -53 14 -68t59 -17v-30l-121 -36h-15q-18 44 -22 89q-40 -43 -77.5 -65.5t-89.5 -22.5q-63 0 -100.5 33.5t-37.5 99.5v228q0 53 -13.5 68t-56.5 17v30l139 40h22v-366q0 -45 18.5 -63t56.5 -18q42 0 70.5 15.5t62.5 48.5v228q0 53 -13.5 68t-56.5 17v30
l139 40h22z" />
    <glyph glyph-name="v" unicode="v" horiz-adv-x="505" 
d="M289 -5h-69l-148 392q-15 39 -29 52.5t-44 17.5v34h222v-34q-36 -1 -50 -8t-14 -21q0 -10 7 -30l81 -223q15 -43 23 -87h4q10 45 24 86l79 224q7 21 7 29q0 15 -14 22t-50 8v34h188v-34q-30 -4 -44 -17t-29 -53z" />
    <glyph glyph-name="w" unicode="w" horiz-adv-x="747" 
d="M345 253l-74 -258h-73l-126 392q-12 40 -26 53t-44 17v34h214v-34q-19 -1 -29.5 -3.5t-19 -9t-8.5 -18.5q0 -10 5 -28l60 -199q13 -42 24 -99h4q11 52 24 98l80 293h63l95 -292q14 -42 24 -99h4q4 16 13 53t11 45l51 200q4 13 4 26q0 16 -12.5 24t-43.5 9v34h180v-34
q-32 -4 -45.5 -17.5t-24.5 -52.5l-114 -392h-71l-80 258q-10 33 -32 121h-4q-10 -53 -29 -121z" />
    <glyph glyph-name="x" unicode="x" horiz-adv-x="521" 
d="M238 215l-81 -129q-10 -16 -10 -27q0 -22 49 -25v-34h-182v34q31 3 45 14.5t40 48.5l108 160l-94 137q-26 38 -41.5 48.5t-51.5 14.5v34h223v-34q-45 -3 -45 -19q0 -11 14 -33l65 -103h4l62 103q12 20 12 31q0 19 -46 21v34h176v-34q-32 -4 -48 -15.5t-39 -47.5l-85 -132
l110 -165q26 -39 40 -49.5t47 -13.5v-34h-222v34q50 3 50 20q0 9 -14 32l-82 129h-4z" />
    <glyph glyph-name="y" unicode="y" horiz-adv-x="505" 
d="M105 -213l-24 69q66 17 102 45t57 101l-36 -5q-22 89 -52 172l-80 218q-14 38 -29 52t-44 18v34h222v-34q-36 -1 -50 -8.5t-14 -22.5q0 -7 7 -28l72 -202q23 -65 35 -132h3q10 52 29 111l72 223q4 13 6 23q2 19 -11 27t-52 9v34h188v-34q-31 -4 -45 -17t-28 -53
l-140 -403q-32 -93 -73.5 -137.5t-114.5 -59.5z" />
    <glyph glyph-name="z" unicode="z" horiz-adv-x="455" 
d="M432 153l-24 -153h-368v49l281 393h-122q-50 0 -68 -18t-26 -75h-43v142h358v-53l-278 -389h111q67 0 89 18.5t45 85.5h45z" />
    <glyph glyph-name="braceleft" unicode="{" horiz-adv-x="351" 
d="M206 659v-230q0 -59 -23.5 -86t-53.5 -32v-4q30 -5 53.5 -32t23.5 -86v-230q0 -74 63 -74h57v-40h-80q-59 0 -87 28t-28 91v237q0 49 -26 70t-80 21v34q54 0 80 21t26 70v237q0 61 32 90t83 29h80v-40h-57q-63 0 -63 -74z" />
    <glyph glyph-name="bar" unicode="|" horiz-adv-x="244" 
d="M154 -149h-64v910h64v-910z" />
    <glyph glyph-name="braceright" unicode="}" horiz-adv-x="351" 
d="M145 429v230q0 74 -63 74h-57v40h80q59 0 87 -28t28 -91v-237q0 -49 26 -70t80 -21v-34q-54 0 -80 -21t-26 -70v-237q0 -61 -32 -90t-83 -29h-80v39h57q63 0 63 74v231q0 59 23.5 86t53.5 32v4q-30 5 -53.5 32t-23.5 86z" />
    <glyph glyph-name="asciitilde" unicode="~" horiz-adv-x="554" 
d="M361 320q73 0 105 63l38 -21q-17 -62 -49.5 -93.5t-87.5 -31.5q-42 0 -102.5 24.5t-83.5 24.5q-62 0 -97 -67l-34 19q13 66 42.5 98t85.5 32q41 0 98.5 -24t84.5 -24z" />
    <glyph glyph-name="uni00A0" unicode="&#xa0;" horiz-adv-x="225" 
 />
    <glyph glyph-name="exclamdown" unicode="&#xa1;" horiz-adv-x="291" 
d="M90 -189l31 494h53l31 -477zM80 455q0 28 20 48t47 20t45.5 -19.5t18.5 -48.5q0 -27 -18.5 -46t-46.5 -19q-27 0 -46.5 19t-19.5 46z" />
    <glyph glyph-name="cent" unicode="&#xa2;" horiz-adv-x="463" 
d="M280 -100h-45v90q-88 8 -143.5 71.5t-55.5 176.5q0 116 55 184.5t144 78.5v96h45v-94q82 -4 135 -39v-92h-68q-7 41 -22 60.5t-45 23.5v-412q39 1 65 13t62 42l26 -28q-63 -72 -153 -81v-90zM135 258q0 -100 24.5 -149.5t75.5 -60.5v406q-100 -20 -100 -196z" />
    <glyph glyph-name="sterling" unicode="&#xa3;" horiz-adv-x="579" 
d="M225 49h154q54 0 77.5 25.5t38.5 94.5h44l-15 -169h-474v35q49 1 64.5 16.5t15.5 59.5v190h-80v44h80v87q0 123 62.5 181.5t166.5 58.5q94 0 150 -46v-94h-74q-7 50 -26.5 72t-62.5 22q-58 0 -89.5 -37.5t-31.5 -129.5v-114h191v-44h-191v-252z" />
    <glyph glyph-name="currency" unicode="&#xa4;" horiz-adv-x="470" 
d="M235 99q-40 0 -70 10l-50 -78l-57 38l48 74q-56 50 -56 136q0 85 55 135l-47 73l57 38l48 -76q33 12 72 12q35 0 68 -11l48 75l57 -38l-45 -70q57 -52 57 -138q0 -89 -59 -138l47 -72l-57 -38l-50 77q-30 -9 -66 -9zM235 416q-51 0 -71.5 -33t-20.5 -96q0 -74 21 -108
t71 -34q51 0 72 34t21 108q0 64 -21 96.5t-72 32.5z" />
    <glyph glyph-name="yen" unicode="&#xa5;" horiz-adv-x="594" 
d="M536 219h-187v-112q0 -44 16.5 -59.5t68.5 -16.5v-31h-265v31q52 1 68.5 16.5t16.5 59.5v112h-182v44h182v13l-31 60h-151v44h129l-96 192q-23 46 -43 62t-51 20v35h238v-35q-53 -1 -53 -30q0 -16 14 -47l109 -232h4l108 234q12 27 12 43q0 29 -59 32v35h199v-35
q-31 -4 -50.5 -21.5t-46.5 -71.5l-89 -181h139v-44h-161l-26 -54v-19h187v-44z" />
    <glyph glyph-name="brokenbar" unicode="&#xa6;" horiz-adv-x="261" 
d="M154 -150h-64v401h64v-401zM154 356h-64v401h64v-401z" />
    <glyph glyph-name="section" unicode="&#xa7;" horiz-adv-x="436" 
d="M411 311q0 -59 -33.5 -99.5t-92.5 -54.5q46 -26 68 -58t22 -81q0 -70 -47 -110.5t-131 -40.5q-103 0 -159 35v97h67q5 -51 27.5 -72t73.5 -21q42 0 69 21t27 66q0 38 -21 62t-62 42l-64 28q-66 29 -100.5 64t-34.5 101q0 52 33 88.5t90 51.5q-43 22 -66.5 55.5
t-23.5 89.5q0 68 49 110t116 42q79 0 143 -32v-90h-64q-14 76 -86 76q-39 0 -63 -25t-24 -65q0 -34 20.5 -55t64.5 -41l58 -26q75 -34 109.5 -67.5t34.5 -90.5zM235 390l-54 23q-38 -11 -63 -39t-25 -67q0 -36 21.5 -57.5t68.5 -43.5l53 -25q43 5 71 32t28 70q0 37 -26.5 62
t-73.5 45z" />
    <glyph glyph-name="dieresis" unicode="&#xa8;" horiz-adv-x="489" 
d="M200 638q0 -26 -17 -43t-43 -17t-43 17t-17 43t17 43t43 17t43 -17t17 -43zM409 638q0 -26 -17.5 -43t-42.5 -17t-42.5 17t-17.5 43t17.5 43t42.5 17t42.5 -17t17.5 -43z" />
    <glyph glyph-name="copyright" unicode="&#xa9;" horiz-adv-x="800" 
d="M279 348q0 -83 31 -132t93 -49q46 0 64.5 18t25.5 62h58v-87q-56 -35 -144 -35q-108 0 -162.5 55.5t-54.5 159.5t54 162.5t160 58.5q90 0 144 -35v-88h-64q-8 46 -23.5 64.5t-59.5 18.5q-122 0 -122 -173zM400 31q129 0 215 86t86 226q0 142 -86 228t-215 86t-215 -86
t-86 -228q0 -140 86 -226t215 -86zM400 -12q-154 0 -255 98t-101 258q0 157 103 257t253 100t253 -100t103 -257q0 -160 -101 -258t-255 -98z" />
    <glyph glyph-name="ordfeminine" unicode="&#xaa;" horiz-adv-x="395" 
d="M318 451q0 -43 7.5 -52.5t44.5 -12.5v-31q-22 -9 -53 -9q-37 0 -51.5 14t-17.5 41q-34 -62 -105 -62q-56 0 -89.5 29t-33.5 81q0 126 200 126q17 0 27 -1v26q0 51 -15 72.5t-55 21.5q-41 0 -57.5 -16t-22.5 -47h-57v68q66 39 143 39q138 0 138 -128q0 -6 -1.5 -62
t-1.5 -97zM246 536q-24 2 -27 2q-60 0 -87.5 -19t-27.5 -60q0 -38 15 -53.5t47 -15.5q49 0 77 54z" />
    <glyph glyph-name="guillemotleft" unicode="&#xab;" horiz-adv-x="505" 
d="M151 244l113 -177l-39 -36l-170 213l170 213l39 -36zM347 244l113 -177l-39 -36l-170 213l170 213l39 -36z" />
    <glyph glyph-name="logicalnot" unicode="&#xac;" horiz-adv-x="501" 
d="M55 237v56h391v-221h-59v165h-332z" />
    <glyph glyph-name="uni00AD" unicode="&#xad;" horiz-adv-x="313" 
d="M258 235h-203v71h203v-71z" />
    <glyph glyph-name="registered" unicode="&#xae;" horiz-adv-x="800" 
d="M403 165v-29h-190v29q36 1 45 12t9 47v241q0 36 -9 47t-45 12v31h172q79 0 120.5 -25t41.5 -89q0 -61 -31.5 -84.5t-95.5 -25.5v-3q50 -13 82 -63q10 -17 34 -63q13 -23 23.5 -29t38.5 -7v-30h-115q-19 43 -53 106q-28 53 -43 68t-46 16v-102q0 -36 12 -47t50 -12z
M468 441q0 41 -21.5 58.5t-79.5 17.5h-26v-156h39q50 0 69 17t19 63zM400 31q129 0 215 86t86 226q0 142 -86 228t-215 86t-215 -86t-86 -228q0 -140 86 -226t215 -86zM400 -12q-154 0 -255 98t-101 258q0 157 103 257t253 100t253 -100t103 -257q0 -160 -101 -258t-255 -98
z" />
    <glyph glyph-name="macron" unicode="&#xaf;" horiz-adv-x="441" 
d="M361 590h-281v57h281v-57z" />
    <glyph glyph-name="degree" unicode="&#xb0;" horiz-adv-x="418" 
d="M373 525q0 -77 -45.5 -122.5t-118.5 -45.5q-77 0 -120.5 45.5t-43.5 124.5q0 77 44.5 123t117.5 46q78 0 122 -45.5t44 -125.5zM296 521q0 64 -21.5 91t-66.5 27q-86 0 -86 -108q0 -64 21 -90.5t67 -26.5q86 0 86 107z" />
    <glyph glyph-name="plusminus" unicode="&#xb1;" horiz-adv-x="501" 
d="M223 507h59v-155h164v-56h-164v-164h-59v164h-168v56h168v155zM55 25v56h391v-56h-391z" />
    <glyph glyph-name="twosuperior" unicode="&#xb2;" horiz-adv-x="333" 
d="M153 651q57 0 93.5 -29t36.5 -81q0 -16 -3.5 -31t-13.5 -30t-18 -26.5t-25.5 -28t-28 -26t-34 -29t-34.5 -29.5l-38 -33h214l-10 -58h-271v41l78 80q40 42 55.5 60t29 46t13.5 58q0 34 -18.5 51.5t-50.5 17.5q-45 0 -84 -30l-18 26q55 51 127 51z" />
    <glyph glyph-name="threesuperior" unicode="&#xb3;" horiz-adv-x="321" 
d="M138 605q-47 0 -86 -28l-19 30q55 44 127 44q54 0 87.5 -24.5t33.5 -69.5q0 -72 -92 -95q47 -5 74 -32t27 -66q0 -62 -54.5 -98t-133.5 -36q-46 0 -76 9l-10 33q25 -6 60 -6q57 0 94 27t37 74q0 39 -19 55t-57 16q-13 0 -33 -2v43q10 -1 31 -1q74 0 74 66
q0 30 -17.5 45.5t-47.5 15.5z" />
    <glyph glyph-name="acute" unicode="&#xb4;" horiz-adv-x="392" 
d="M100 566l-20 34l179 153l53 -91z" />
    <glyph glyph-name="mu" unicode="&#xb5;" horiz-adv-x="541" 
d="M48 -199l-4 23q13 65 13 181v157q-2 242 -6 325l76 14h22l-1 -131v-201q0 -68 20 -90t56 -22q34 0 69.5 18t61.5 46v368l68 12h23v-379q0 -38 9.5 -56t40.5 -18q10 0 31 3v-38q-39 -22 -83 -22q-66 0 -84 81q-64 -85 -148 -85q-48 0 -71 27l-4 -2q9 -36 9 -116l1 -81z
" />
    <glyph glyph-name="paragraph" unicode="&#xb6;" horiz-adv-x="617" 
d="M507 582v-707h-55v767h-85v-767h-55v432h-77q-108 0 -161.5 42t-53.5 151q0 106 49 147.5t167 41.5h351v-31q-49 -1 -64.5 -16.5t-15.5 -59.5zM195 500q0 -80 16.5 -112.5t64.5 -32.5h36v287h-36q-50 0 -65.5 -27.5t-15.5 -114.5z" />
    <glyph glyph-name="periodcentered" unicode="&#xb7;" horiz-adv-x="291" 
d="M216 278q0 -31 -21 -53t-50 -22t-49.5 22t-20.5 53t20.5 52.5t49.5 21.5t50 -21.5t21 -52.5z" />
    <glyph glyph-name="cedilla" unicode="&#xb8;" horiz-adv-x="288" 
d="M233 -113q0 -85 -99 -85q-44 0 -81 25l16 32q28 -18 62 -18q40 0 40 36q0 31 -70 33v21l23 80l37 -6l-13 -44q44 -3 64.5 -23.5t20.5 -50.5z" />
    <glyph glyph-name="onesuperior" unicode="&#xb9;" horiz-adv-x="314" 
d="M208 644v-323q0 -26 15.5 -33t69.5 -9v-29h-248v29q55 2 70 8.5t15 33.5v257q-41 -20 -90 -35l-9 28l120 73h57z" />
    <glyph glyph-name="ordmasculine" unicode="&#xba;" horiz-adv-x="397" 
d="M377 532q0 -89 -50 -141t-129 -52t-128.5 52.5t-49.5 143.5t49.5 144.5t127.5 53.5q84 0 132 -56t48 -145zM296 529q0 163 -97 163q-52 0 -73.5 -37.5t-21.5 -110.5q0 -85 22.5 -124.5t74.5 -39.5q95 0 95 149z" />
    <glyph glyph-name="guillemotright" unicode="&#xbb;" horiz-adv-x="505" 
d="M241 67l113 177l-113 177l39 36l170 -213l-170 -213zM45 67l113 177l-113 177l39 36l170 -213l-170 -213z" />
    <glyph glyph-name="onequarter" unicode="&#xbc;" horiz-adv-x="908" 
d="M208 644v-323q0 -26 15.5 -33t69.5 -9v-29h-248v29q55 2 70 8.5t15 33.5v257q-41 -20 -90 -35l-9 28l120 73h57zM714 730l-487 -853h-54l487 853h54zM761 -21v112h-192v25l142 278h76l-154 -267h128q0 88 24 160l54 10v-170h52v-36h-52v-101z" />
    <glyph glyph-name="onehalf" unicode="&#xbd;" horiz-adv-x="909" 
d="M208 644v-323q0 -26 15.5 -33t69.5 -9v-29h-248v29q55 2 70 8.5t15 33.5v257q-41 -20 -90 -35l-9 28l120 73h57zM714 730l-487 -853h-54l487 853h54zM742 401q57 0 93.5 -29t36.5 -81q0 -16 -3.5 -31t-13.5 -30t-18 -26.5t-25.5 -28t-28 -26t-34 -29t-34.5 -29.5l-38 -33
h214l-10 -58h-271v41l78 80q40 42 55.5 60t29 46t13.5 58q0 34 -18.5 51.5t-50.5 17.5q-45 0 -84 -30l-18 26q55 51 127 51z" />
    <glyph glyph-name="threequarters" unicode="&#xbe;" horiz-adv-x="915" 
d="M138 605q-47 0 -86 -28l-19 30q55 44 127 44q54 0 87.5 -24.5t33.5 -69.5q0 -72 -92 -95q47 -5 74 -32t27 -66q0 -62 -54.5 -98t-133.5 -36q-46 0 -76 9l-10 33q25 -6 60 -6q57 0 94 27t37 74q0 39 -19 55t-57 16q-13 0 -33 -2v43q10 -1 31 -1q74 0 74 66
q0 30 -17.5 45.5t-47.5 15.5zM721 730l-487 -853h-54l487 853h54zM768 -21v112h-192v25l142 278h76l-154 -267h128q0 88 24 160l54 10v-170h52v-36h-52v-101z" />
    <glyph glyph-name="questiondown" unicode="&#xbf;" horiz-adv-x="446" 
d="M183 450q0 30 21 51.5t50 21.5q28 0 48 -21.5t20 -51.5q0 -28 -20 -48t-48 -20q-29 0 -50 20t-21 48zM402 -53v-90q-64 -47 -163 -47q-78 0 -124.5 37t-46.5 116q0 94 99 156q44 28 60.5 52.5t16.5 67.5q0 27 -8 56h41q24 -41 24 -80q0 -68 -57 -120q-3 -3 -18 -16
t-20.5 -18.5t-16.5 -19t-15.5 -24.5t-9 -28.5t-4.5 -36.5q0 -45 25 -70.5t64 -25.5q79 0 89 91h64z" />
    <glyph glyph-name="Agrave" unicode="&#xc0;" horiz-adv-x="657" 
d="M459 107l-33 108h-230l-33 -108q-6 -21 -6 -35q0 -21 16 -28t57 -9v-35h-214v35q36 3 53 19.5t33 66.5l184 568h89l182 -566q15 -47 31.5 -66t52.5 -22v-35h-245v35q36 2 52 11.5t16 30.5q0 13 -5 30zM257 411l-46 -148h201l-45 148q-31 101 -52 191h-4
q-40 -146 -54 -191zM443 761l-20 -34l-214 70l43 92z" />
    <glyph glyph-name="Aacute" unicode="&#xc1;" horiz-adv-x="657" 
d="M459 107l-33 108h-230l-33 -108q-6 -21 -6 -35q0 -21 16 -28t57 -9v-35h-214v35q36 3 53 19.5t33 66.5l184 568h89l182 -566q15 -47 31.5 -66t52.5 -22v-35h-245v35q36 2 52 11.5t16 30.5q0 13 -5 30zM257 411l-46 -148h201l-45 148q-31 101 -52 191h-4
q-40 -146 -54 -191zM231 727l-20 34l191 128l43 -92z" />
    <glyph glyph-name="Acircumflex" unicode="&#xc2;" horiz-adv-x="657" 
d="M459 107l-33 108h-230l-33 -108q-6 -21 -6 -35q0 -21 16 -28t57 -9v-35h-214v35q36 3 53 19.5t33 66.5l184 568h89l182 -566q15 -47 31.5 -66t52.5 -22v-35h-245v35q36 2 52 11.5t16 30.5q0 13 -5 30zM257 411l-46 -148h201l-45 148q-31 101 -52 191h-4
q-40 -146 -54 -191zM465 728l-137 81l-137 -81l-25 30l162 149l162 -149z" />
    <glyph glyph-name="Atilde" unicode="&#xc3;" horiz-adv-x="657" 
d="M459 107l-33 108h-230l-33 -108q-6 -21 -6 -35q0 -21 16 -28t57 -9v-35h-214v35q36 3 53 19.5t33 66.5l184 568h89l182 -566q15 -47 31.5 -66t52.5 -22v-35h-245v35q36 2 52 11.5t16 30.5q0 13 -5 30zM257 411l-46 -148h201l-45 148q-31 101 -52 191h-4
q-40 -146 -54 -191zM396 818q45 0 73 45l36 -14q-32 -95 -109 -95q-38 0 -79 22t-59 22q-26 0 -41 -11.5t-30 -35.5l-34 13q25 100 105 100q35 0 75.5 -23t62.5 -23z" />
    <glyph glyph-name="Adieresis" unicode="&#xc4;" horiz-adv-x="657" 
d="M459 107l-33 108h-230l-33 -108q-6 -21 -6 -35q0 -21 16 -28t57 -9v-35h-214v35q36 3 53 19.5t33 66.5l184 568h89l182 -566q15 -47 31.5 -66t52.5 -22v-35h-245v35q36 2 52 11.5t16 30.5q0 13 -5 30zM257 411l-46 -148h201l-45 148q-31 101 -52 191h-4
q-40 -146 -54 -191zM284 787q0 -25 -17 -42.5t-43 -17.5t-43 17.5t-17 42.5t17 42.5t43 17.5t43 -17.5t17 -42.5zM493 787q0 -25 -17.5 -42.5t-42.5 -17.5t-42.5 17.5t-17.5 42.5t17.5 42.5t42.5 17.5t42.5 -17.5t17.5 -42.5z" />
    <glyph glyph-name="Aring" unicode="&#xc5;" horiz-adv-x="657" 
d="M459 107l-33 108h-230l-33 -108q-6 -21 -6 -35q0 -21 16 -28t57 -9v-35h-214v35q36 3 53 19.5t33 66.5l184 568h89l182 -566q15 -47 31.5 -66t52.5 -22v-35h-245v35q36 2 52 11.5t16 30.5q0 13 -5 30zM257 411l-46 -148h201l-45 148q-31 101 -52 191h-4
q-40 -146 -54 -191zM328 719q-44 0 -72.5 29t-28.5 73t28.5 73t72.5 29q45 0 73.5 -29t28.5 -73t-28.5 -73t-73.5 -29zM328 888q-27 0 -44 -19.5t-17 -48.5q0 -28 17 -46.5t44 -18.5q28 0 45 18.5t17 46.5q0 29 -17 48.5t-45 19.5z" />
    <glyph glyph-name="AE" unicode="&#xc6;" horiz-adv-x="904" 
d="M109 105l253 476q11 20 11 35q0 35 -73 38v35h546l10 -150h-42q-17 60 -35.5 80.5t-60.5 20.5h-167v-256h93q47 0 65 14.5t21 56.5h41v-190h-41q-3 41 -21 56t-64 15h-94v-287h168q57 0 77.5 23t26.5 93h45v-165h-492v35q49 1 64.5 16.5t15.5 59.5v134h-207l-77 -145
q-13 -24 -13 -36q0 -26 57 -29v-35h-200v35q36 3 53.5 16t39.5 54zM457 643l-184 -350h183v164q0 71 5 186h-4z" />
    <glyph glyph-name="Ccedilla" unicode="&#xc7;" horiz-adv-x="577" 
d="M425 -113q0 -85 -99 -85q-44 0 -81 25l16 32q28 -18 62 -18q40 0 40 36q0 31 -70 33v21l17 60q-134 11 -200 101.5t-66 246.5q0 170 80.5 266t215.5 96q131 0 198 -47v-112h-70q-15 60 -43 86t-88 26q-91 0 -139.5 -73t-48.5 -240q0 -171 50 -238t149 -67q59 0 89 24.5
t41 83.5h65v-105q-70 -50 -195 -50l-8 -28q44 -3 64.5 -23.5t20.5 -50.5z" />
    <glyph glyph-name="Egrave" unicode="&#xc8;" horiz-adv-x="565" 
d="M37 0v35q49 1 64.5 16.5t15.5 59.5v467q0 44 -15.5 59.5t-64.5 16.5v35h470l10 -150h-42q-17 60 -35.5 80.5t-60.5 20.5h-167v-256h93q47 0 65 14.5t21 56.5h41v-190h-41q-3 41 -21 56t-64 15h-94v-287h168q57 0 77.5 23t26.5 93h45v-165h-492zM412 761l-20 -34l-214 70
l43 92z" />
    <glyph glyph-name="Eacute" unicode="&#xc9;" horiz-adv-x="565" 
d="M37 0v35q49 1 64.5 16.5t15.5 59.5v467q0 44 -15.5 59.5t-64.5 16.5v35h470l10 -150h-42q-17 60 -35.5 80.5t-60.5 20.5h-167v-256h93q47 0 65 14.5t21 56.5h41v-190h-41q-3 41 -21 56t-64 15h-94v-287h168q57 0 77.5 23t26.5 93h45v-165h-492zM200 727l-20 34l191 128
l43 -92z" />
    <glyph glyph-name="Ecircumflex" unicode="&#xca;" horiz-adv-x="565" 
d="M37 0v35q49 1 64.5 16.5t15.5 59.5v467q0 44 -15.5 59.5t-64.5 16.5v35h470l10 -150h-42q-17 60 -35.5 80.5t-60.5 20.5h-167v-256h93q47 0 65 14.5t21 56.5h41v-190h-41q-3 41 -21 56t-64 15h-94v-287h168q57 0 77.5 23t26.5 93h45v-165h-492zM434 728l-137 81l-137 -81
l-25 30l162 149l162 -149z" />
    <glyph glyph-name="Edieresis" unicode="&#xcb;" horiz-adv-x="565" 
d="M37 0v35q49 1 64.5 16.5t15.5 59.5v467q0 44 -15.5 59.5t-64.5 16.5v35h470l10 -150h-42q-17 60 -35.5 80.5t-60.5 20.5h-167v-256h93q47 0 65 14.5t21 56.5h41v-190h-41q-3 41 -21 56t-64 15h-94v-287h168q57 0 77.5 23t26.5 93h45v-165h-492zM253 787
q0 -25 -17.5 -42.5t-42.5 -17.5t-42.5 17.5t-17.5 42.5t17.5 42.5t42.5 17.5t42.5 -17.5t17.5 -42.5zM462 787q0 -25 -17 -42.5t-43 -17.5t-43 17.5t-17 42.5t17 42.5t43 17.5t43 -17.5t17 -42.5z" />
    <glyph glyph-name="Igrave" unicode="&#xcc;" horiz-adv-x="329" 
d="M117 111v467q0 44 -15.5 59.5t-64.5 16.5v35h255v-35q-49 -1 -64.5 -16.5t-15.5 -59.5v-467q0 -44 15.5 -59.5t64.5 -16.5v-35h-255v35q49 1 64.5 16.5t15.5 59.5zM279 761l-20 -34l-214 70l43 92z" />
    <glyph glyph-name="Iacute" unicode="&#xcd;" horiz-adv-x="329" 
d="M117 111v467q0 44 -15.5 59.5t-64.5 16.5v35h255v-35q-49 -1 -64.5 -16.5t-15.5 -59.5v-467q0 -44 15.5 -59.5t64.5 -16.5v-35h-255v35q49 1 64.5 16.5t15.5 59.5zM67 727l-20 34l191 128l43 -92z" />
    <glyph glyph-name="Icircumflex" unicode="&#xce;" horiz-adv-x="329" 
d="M117 111v467q0 44 -15.5 59.5t-64.5 16.5v35h255v-35q-49 -1 -64.5 -16.5t-15.5 -59.5v-467q0 -44 15.5 -59.5t64.5 -16.5v-35h-255v35q49 1 64.5 16.5t15.5 59.5zM301 728l-137 81l-137 -81l-25 30l162 149l162 -149z" />
    <glyph glyph-name="Idieresis" unicode="&#xcf;" horiz-adv-x="329" 
d="M117 111v467q0 44 -15.5 59.5t-64.5 16.5v35h255v-35q-49 -1 -64.5 -16.5t-15.5 -59.5v-467q0 -44 15.5 -59.5t64.5 -16.5v-35h-255v35q49 1 64.5 16.5t15.5 59.5zM120 787q0 -25 -17 -42.5t-43 -17.5t-43 17.5t-17 42.5t17 42.5t43 17.5t43 -17.5t17 -42.5zM329 787
q0 -25 -17.5 -42.5t-42.5 -17.5t-42.5 17.5t-17.5 42.5t17.5 42.5t42.5 17.5t42.5 -17.5t17.5 -42.5z" />
    <glyph glyph-name="Eth" unicode="&#xd0;" horiz-adv-x="670" 
d="M33 342v46h84v190q0 44 -15.5 59.5t-64.5 16.5v35h253q159 0 247.5 -85t88.5 -260q0 -160 -79.5 -252t-256.5 -92h-253v35q49 1 64.5 16.5t15.5 59.5v231h-84zM522 332q0 167 -54 238.5t-166 71.5h-87v-254h129v-46h-129v-291h85q118 0 170 60t52 221z" />
    <glyph glyph-name="Ntilde" unicode="&#xd1;" horiz-adv-x="685" 
d="M516 333v245q0 44 -15.5 59.5t-64.5 16.5v35h219v-35q-45 -1 -58.5 -16.5t-13.5 -59.5v-578h-71l-250 408q-57 93 -84 170h-6q12 -81 12 -184v-283q0 -44 15.5 -59.5t64.5 -16.5v-35h-227v35q49 1 64.5 16.5t15.5 59.5v467q0 44 -15.5 59.5t-64.5 16.5v35h162l255 -418
q46 -76 68 -145h6q-12 72 -12 207zM414 818q45 0 73 45l36 -14q-32 -95 -109 -95q-38 0 -79 22t-59 22q-26 0 -41 -11.5t-30 -35.5l-34 13q25 100 105 100q35 0 75.5 -23t62.5 -23z" />
    <glyph glyph-name="Ograve" unicode="&#xd2;" horiz-adv-x="674" 
d="M340 -11q-143 0 -219.5 98.5t-76.5 259.5q0 168 78.5 261t212.5 93q77 0 135 -29t92 -80t51 -114.5t17 -137.5q0 -160 -77.5 -255.5t-212.5 -95.5zM335 654q-98 0 -143.5 -73.5t-45.5 -222.5q0 -324 194 -324q186 0 186 297q0 161 -44.5 242t-146.5 81zM452 761l-20 -34
l-214 70l43 92z" />
    <glyph glyph-name="Oacute" unicode="&#xd3;" horiz-adv-x="674" 
d="M340 -11q-143 0 -219.5 98.5t-76.5 259.5q0 168 78.5 261t212.5 93q77 0 135 -29t92 -80t51 -114.5t17 -137.5q0 -160 -77.5 -255.5t-212.5 -95.5zM335 654q-98 0 -143.5 -73.5t-45.5 -222.5q0 -324 194 -324q186 0 186 297q0 161 -44.5 242t-146.5 81zM240 727l-20 34
l191 128l43 -92z" />
    <glyph glyph-name="Ocircumflex" unicode="&#xd4;" horiz-adv-x="674" 
d="M340 -11q-143 0 -219.5 98.5t-76.5 259.5q0 168 78.5 261t212.5 93q77 0 135 -29t92 -80t51 -114.5t17 -137.5q0 -160 -77.5 -255.5t-212.5 -95.5zM335 654q-98 0 -143.5 -73.5t-45.5 -222.5q0 -324 194 -324q186 0 186 297q0 161 -44.5 242t-146.5 81zM474 728l-137 81
l-137 -81l-25 30l162 149l162 -149z" />
    <glyph glyph-name="Otilde" unicode="&#xd5;" horiz-adv-x="674" 
d="M340 -11q-143 0 -219.5 98.5t-76.5 259.5q0 168 78.5 261t212.5 93q77 0 135 -29t92 -80t51 -114.5t17 -137.5q0 -160 -77.5 -255.5t-212.5 -95.5zM335 654q-98 0 -143.5 -73.5t-45.5 -222.5q0 -324 194 -324q186 0 186 297q0 161 -44.5 242t-146.5 81zM405 818
q45 0 73 45l36 -14q-32 -95 -109 -95q-38 0 -79 22t-59 22q-26 0 -41 -11.5t-30 -35.5l-34 13q25 100 105 100q35 0 75.5 -23t62.5 -23z" />
    <glyph glyph-name="Odieresis" unicode="&#xd6;" horiz-adv-x="674" 
d="M340 -11q-143 0 -219.5 98.5t-76.5 259.5q0 168 78.5 261t212.5 93q77 0 135 -29t92 -80t51 -114.5t17 -137.5q0 -160 -77.5 -255.5t-212.5 -95.5zM335 654q-98 0 -143.5 -73.5t-45.5 -222.5q0 -324 194 -324q186 0 186 297q0 161 -44.5 242t-146.5 81zM293 787
q0 -25 -17.5 -42.5t-42.5 -17.5t-42.5 17.5t-17.5 42.5t17.5 42.5t42.5 17.5t42.5 -17.5t17.5 -42.5zM502 787q0 -25 -17 -42.5t-43 -17.5t-43 17.5t-17 42.5t17 42.5t43 17.5t43 -17.5t17 -42.5z" />
    <glyph glyph-name="multiply" unicode="&#xd7;" horiz-adv-x="505" 
d="M55 431l37 38l160 -160l160 160l38 -38l-160 -160l160 -159l-38 -38l-160 160l-160 -160l-37 38l159 159z" />
    <glyph glyph-name="Oslash" unicode="&#xd8;" horiz-adv-x="674" 
d="M585 726l-57 -95q102 -96 102 -291q0 -160 -77.5 -255.5t-212.5 -95.5q-98 0 -166 48l-58 -98l-40 22l62 106q-94 95 -94 280q0 168 78.5 261t212.5 93q88 0 154 -40l53 88zM526 331q0 152 -39 231l-279 -469q47 -59 132 -59q186 0 186 297zM335 654q-98 0 -143.5 -73.5
t-45.5 -222.5q0 -142 35 -219l276 467q-46 48 -122 48z" />
    <glyph glyph-name="Ugrave" unicode="&#xd9;" horiz-adv-x="684" 
d="M517 224v354q0 44 -16 59.5t-69 16.5v35h224v-35q-45 -1 -58.5 -16.5t-13.5 -59.5v-354q0 -121 -59 -178t-175 -57q-247 0 -247 228v361q0 44 -14.5 59.5t-60.5 16.5v35h255v-35q-53 -1 -69 -16.5t-16 -59.5v-339q0 -103 36 -146.5t130 -43.5q83 0 118 40.5t35 134.5z
M471 761l-20 -34l-214 70l43 92z" />
    <glyph glyph-name="Uacute" unicode="&#xda;" horiz-adv-x="684" 
d="M517 224v354q0 44 -16 59.5t-69 16.5v35h224v-35q-45 -1 -58.5 -16.5t-13.5 -59.5v-354q0 -121 -59 -178t-175 -57q-247 0 -247 228v361q0 44 -14.5 59.5t-60.5 16.5v35h255v-35q-53 -1 -69 -16.5t-16 -59.5v-339q0 -103 36 -146.5t130 -43.5q83 0 118 40.5t35 134.5z
M259 727l-20 34l191 128l43 -92z" />
    <glyph glyph-name="Ucircumflex" unicode="&#xdb;" horiz-adv-x="684" 
d="M517 224v354q0 44 -16 59.5t-69 16.5v35h224v-35q-45 -1 -58.5 -16.5t-13.5 -59.5v-354q0 -121 -59 -178t-175 -57q-247 0 -247 228v361q0 44 -14.5 59.5t-60.5 16.5v35h255v-35q-53 -1 -69 -16.5t-16 -59.5v-339q0 -103 36 -146.5t130 -43.5q83 0 118 40.5t35 134.5z
M493 728l-137 81l-137 -81l-25 30l162 149l162 -149z" />
    <glyph glyph-name="Udieresis" unicode="&#xdc;" horiz-adv-x="684" 
d="M517 224v354q0 44 -16 59.5t-69 16.5v35h224v-35q-45 -1 -58.5 -16.5t-13.5 -59.5v-354q0 -121 -59 -178t-175 -57q-247 0 -247 228v361q0 44 -14.5 59.5t-60.5 16.5v35h255v-35q-53 -1 -69 -16.5t-16 -59.5v-339q0 -103 36 -146.5t130 -43.5q83 0 118 40.5t35 134.5z
M312 787q0 -25 -17 -42.5t-43 -17.5t-43 17.5t-17 42.5t17 42.5t43 17.5t43 -17.5t17 -42.5zM521 787q0 -25 -17.5 -42.5t-42.5 -17.5t-42.5 17.5t-17.5 42.5t17.5 42.5t42.5 17.5t42.5 -17.5t17.5 -42.5z" />
    <glyph glyph-name="Yacute" unicode="&#xdd;" horiz-adv-x="594" 
d="M319 345h4l108 234q12 27 12 43q0 29 -59 32v35h199v-35q-31 -4 -50.5 -21.5t-46.5 -71.5l-137 -279v-171q0 -44 16.5 -59.5t68.5 -16.5v-35h-265v35q52 1 68.5 16.5t16.5 59.5v165l-149 296q-23 46 -43 62t-51 20v35h238v-35q-53 -1 -53 -30q0 -16 14 -47zM214 727
l-20 34l191 128l43 -92z" />
    <glyph glyph-name="Thorn" unicode="&#xde;" horiz-adv-x="577" 
d="M447 357q0 86 -32 119t-123 33h-80v-290h98q74 0 105.5 32t31.5 106zM212 578v-21h87q135 0 192.5 -49.5t57.5 -140.5q0 -195 -233 -195h-104v-58q0 -45 17.5 -61.5t70.5 -17.5v-35h-263v35q49 1 64.5 16.5t15.5 59.5v467q0 44 -15.5 59.5t-64.5 16.5v35h255v-35
q-49 -1 -64.5 -16.5t-15.5 -59.5z" />
    <glyph glyph-name="germandbls" unicode="&#xdf;" horiz-adv-x="585" 
d="M98 491v46q0 92 58.5 141.5t150.5 49.5q82 0 135 -37.5t53 -100.5q0 -27 -8.5 -48.5t-28.5 -39.5t-37 -29.5t-50 -29.5q-30 -17 -30 -29q0 -13 24 -26q93 -50 143.5 -103t50.5 -129q0 -73 -48.5 -119t-131.5 -46q-86 0 -142 43l23 44q60 -37 117 -37q84 0 84 104
q0 64 -28.5 102t-93.5 85q-38 27 -51 41t-13 35q0 20 12 33t49 37q35 22 50.5 46.5t15.5 60.5q0 51 -25 73.5t-74 22.5q-61 0 -87 -38t-26 -116v-527h-161v34q44 3 57 15.5t13 54.5v332h-63v32z" />
    <glyph glyph-name="agrave" unicode="&#xe0;" horiz-adv-x="512" 
d="M420 131q0 -57 13 -73t61 -20v-33q-27 -11 -69 -11q-49 0 -68 17.5t-23 53.5q-17 -30 -52 -55t-85 -25q-73 0 -117 37.5t-44 105.5q0 161 262 161q22 0 35 -1v44q0 67 -19.5 95.5t-71.5 28.5q-100 0 -116 -90h-63v89q93 51 187 51q174 0 174 -168q0 -7 -2 -80.5
t-2 -126.5zM331 240q-28 2 -35 2q-86 0 -124.5 -25t-38.5 -82q0 -52 20.5 -72.5t65.5 -20.5q67 0 109 73zM344 600l-20 -34l-212 96l53 91z" />
    <glyph glyph-name="aacute" unicode="&#xe1;" horiz-adv-x="512" 
d="M420 131q0 -57 13 -73t61 -20v-33q-27 -11 -69 -11q-49 0 -68 17.5t-23 53.5q-17 -30 -52 -55t-85 -25q-73 0 -117 37.5t-44 105.5q0 161 262 161q22 0 35 -1v44q0 67 -19.5 95.5t-71.5 28.5q-100 0 -116 -90h-63v89q93 51 187 51q174 0 174 -168q0 -7 -2 -80.5
t-2 -126.5zM331 240q-28 2 -35 2q-86 0 -124.5 -25t-38.5 -82q0 -52 20.5 -72.5t65.5 -20.5q67 0 109 73zM148 566l-20 34l179 153l53 -91z" />
    <glyph glyph-name="acircumflex" unicode="&#xe2;" horiz-adv-x="512" 
d="M420 131q0 -57 13 -73t61 -20v-33q-27 -11 -69 -11q-49 0 -68 17.5t-23 53.5q-17 -30 -52 -55t-85 -25q-73 0 -117 37.5t-44 105.5q0 161 262 161q22 0 35 -1v44q0 67 -19.5 95.5t-71.5 28.5q-100 0 -116 -90h-63v89q93 51 187 51q174 0 174 -168q0 -7 -2 -80.5
t-2 -126.5zM331 240q-28 2 -35 2q-86 0 -124.5 -25t-38.5 -82q0 -52 20.5 -72.5t65.5 -20.5q67 0 109 73zM381 564l-137 85l-137 -85l-25 30l162 153l162 -153z" />
    <glyph glyph-name="atilde" unicode="&#xe3;" horiz-adv-x="512" 
d="M420 131q0 -57 13 -73t61 -20v-33q-27 -11 -69 -11q-49 0 -68 17.5t-23 53.5q-17 -30 -52 -55t-85 -25q-73 0 -117 37.5t-44 105.5q0 161 262 161q22 0 35 -1v44q0 67 -19.5 95.5t-71.5 28.5q-100 0 -116 -90h-63v89q93 51 187 51q174 0 174 -168q0 -7 -2 -80.5
t-2 -126.5zM331 240q-28 2 -35 2q-86 0 -124.5 -25t-38.5 -82q0 -52 20.5 -72.5t65.5 -20.5q67 0 109 73zM299 669q43 0 66 42l35 -15q-13 -43 -38.5 -72t-62.5 -29q-29 0 -68.5 14.5t-55.5 14.5q-40 0 -64 -44l-33 14q10 46 34.5 76t62.5 30q29 0 67 -15.5t57 -15.5z" />
    <glyph glyph-name="adieresis" unicode="&#xe4;" horiz-adv-x="512" 
d="M420 131q0 -57 13 -73t61 -20v-33q-27 -11 -69 -11q-49 0 -68 17.5t-23 53.5q-17 -30 -52 -55t-85 -25q-73 0 -117 37.5t-44 105.5q0 161 262 161q22 0 35 -1v44q0 67 -19.5 95.5t-71.5 28.5q-100 0 -116 -90h-63v89q93 51 187 51q174 0 174 -168q0 -7 -2 -80.5
t-2 -126.5zM331 240q-28 2 -35 2q-86 0 -124.5 -25t-38.5 -82q0 -52 20.5 -72.5t65.5 -20.5q67 0 109 73zM199 638q0 -26 -17.5 -43t-42.5 -17t-42.5 17t-17.5 43t17.5 43t42.5 17t42.5 -17t17.5 -43zM408 638q0 -26 -17 -43t-43 -17t-43 17t-17 43t17 43t43 17t43 -17
t17 -43z" />
    <glyph glyph-name="aring" unicode="&#xe5;" horiz-adv-x="512" 
d="M420 131q0 -57 13 -73t61 -20v-33q-27 -11 -69 -11q-49 0 -68 17.5t-23 53.5q-17 -30 -52 -55t-85 -25q-73 0 -117 37.5t-44 105.5q0 161 262 161q22 0 35 -1v44q0 67 -19.5 95.5t-71.5 28.5q-100 0 -116 -90h-63v89q93 51 187 51q174 0 174 -168q0 -7 -2 -80.5
t-2 -126.5zM331 240q-28 2 -35 2q-86 0 -124.5 -25t-38.5 -82q0 -52 20.5 -72.5t65.5 -20.5q67 0 109 73zM243 560q-44 0 -72.5 29t-28.5 73t28.5 73t72.5 29q45 0 73.5 -29t28.5 -73t-28.5 -73t-73.5 -29zM243 729q-27 0 -44 -19.5t-17 -48.5q0 -28 17 -46.5t44 -18.5
q28 0 45 18.5t17 46.5q0 29 -17 48.5t-45 19.5z" />
    <glyph glyph-name="ae" unicode="&#xe6;" horiz-adv-x="770" 
d="M390 446q59 61 148 61q95 0 147.5 -62.5t52.5 -176.5v-27h-319q1 -106 38.5 -149t118.5 -43q69 0 133 42l21 -34q-88 -68 -178 -68q-120 0 -180 83q-56 -83 -175 -83q-74 0 -117.5 36t-43.5 103q0 162 262 162h29v46q-1 66 -18 93t-67 27q-100 0 -116 -90h-63v89
q93 51 187 51q102 0 140 -60zM536 459q-54 0 -82.5 -38.5t-33.5 -130.5h223q0 91 -25 130t-82 39zM219 49q77 0 126 72q-17 42 -19 120h-30q-86 0 -124.5 -24.5t-38.5 -81.5q0 -86 86 -86z" />
    <glyph glyph-name="ccedilla" unicode="&#xe7;" horiz-adv-x="463" 
d="M229 -198q-44 0 -81 25l16 32q28 -18 62 -18q40 0 40 36q0 31 -70 33v21l18 62q-80 14 -129 76.5t-49 168.5q0 126 64 195.5t165 69.5q93 0 150 -39v-92h-68q-8 46 -26 65.5t-58 19.5q-128 0 -128 -199q0 -117 33.5 -165.5t105.5 -48.5q42 0 69 12.5t64 42.5l26 -28
q-72 -82 -173 -82h-9l-8 -28q44 -3 64.5 -23.5t20.5 -50.5q0 -85 -99 -85z" />
    <glyph glyph-name="egrave" unicode="&#xe8;" horiz-adv-x="483" 
d="M289 49q69 0 133 42l21 -34q-88 -68 -178 -68q-108 0 -168.5 68.5t-60.5 191.5q0 120 60 189t155 69t147.5 -62.5t52.5 -176.5v-27h-319q1 -106 38.5 -149t118.5 -43zM249 459q-54 0 -82.5 -38.5t-33.5 -130.5h223q0 91 -25 130t-82 39zM356 600l-20 -34l-212 96l53 91z
" />
    <glyph glyph-name="eacute" unicode="&#xe9;" horiz-adv-x="483" 
d="M289 49q69 0 133 42l21 -34q-88 -68 -178 -68q-108 0 -168.5 68.5t-60.5 191.5q0 120 60 189t155 69t147.5 -62.5t52.5 -176.5v-27h-319q1 -106 38.5 -149t118.5 -43zM249 459q-54 0 -82.5 -38.5t-33.5 -130.5h223q0 91 -25 130t-82 39zM159 566l-20 34l179 153l53 -91z
" />
    <glyph glyph-name="ecircumflex" unicode="&#xea;" horiz-adv-x="483" 
d="M289 49q69 0 133 42l21 -34q-88 -68 -178 -68q-108 0 -168.5 68.5t-60.5 191.5q0 120 60 189t155 69t147.5 -62.5t52.5 -176.5v-27h-319q1 -106 38.5 -149t118.5 -43zM249 459q-54 0 -82.5 -38.5t-33.5 -130.5h223q0 91 -25 130t-82 39zM386 564l-137 85l-137 -85l-25 30
l162 153l162 -153z" />
    <glyph glyph-name="edieresis" unicode="&#xeb;" horiz-adv-x="483" 
d="M289 49q69 0 133 42l21 -34q-88 -68 -178 -68q-108 0 -168.5 68.5t-60.5 191.5q0 120 60 189t155 69t147.5 -62.5t52.5 -176.5v-27h-319q1 -106 38.5 -149t118.5 -43zM249 459q-54 0 -82.5 -38.5t-33.5 -130.5h223q0 91 -25 130t-82 39zM205 638q0 -26 -17.5 -43
t-42.5 -17t-42.5 17t-17.5 43t17.5 43t42.5 17t42.5 -17t17.5 -43zM414 638q0 -26 -17 -43t-43 -17t-43 17t-17 43t17 43t43 17t43 -17t17 -43z" />
    <glyph glyph-name="igrave" unicode="&#xec;" horiz-adv-x="286" 
d="M260 0h-231v34q44 3 57 15.5t13 54.5v245q0 53 -14 68t-59 17v30l149 40h15v-400q0 -43 11.5 -55.5t58.5 -14.5v-34zM246 600l-20 -34l-212 96l53 91z" />
    <glyph glyph-name="iacute" unicode="&#xed;" horiz-adv-x="286" 
d="M260 0h-231v34q44 3 57 15.5t13 54.5v245q0 53 -14 68t-59 17v30l149 40h15v-400q0 -43 11.5 -55.5t58.5 -14.5v-34zM47 566l-20 34l179 153l53 -91z" />
    <glyph glyph-name="icircumflex" unicode="&#xee;" horiz-adv-x="286" 
d="M260 0h-231v34q44 3 57 15.5t13 54.5v245q0 53 -14 68t-59 17v30l149 40h15v-400q0 -43 11.5 -55.5t58.5 -14.5v-34zM279 564l-137 85l-137 -85l-25 30l162 153l162 -153z" />
    <glyph glyph-name="idieresis" unicode="&#xef;" horiz-adv-x="286" 
d="M260 0h-231v34q44 3 57 15.5t13 54.5v245q0 53 -14 68t-59 17v30l149 40h15v-400q0 -43 11.5 -55.5t58.5 -14.5v-34zM99 638q0 -26 -17.5 -43t-42.5 -17t-42.5 17t-17.5 43t17.5 43t42.5 17t42.5 -17t17.5 -43zM308 638q0 -26 -17 -43t-43 -17t-43 17t-17 43t17 43t43 17
t43 -17t17 -43z" />
    <glyph glyph-name="eth" unicode="&#xf0;" horiz-adv-x="535" 
d="M125 534l-17 39l122 50q-53 34 -133 58l15 37q109 -26 184 -68l127 51l17 -38l-100 -41q156 -114 156 -359q0 -131 -63.5 -203t-166.5 -72q-101 0 -165.5 71.5t-64.5 186.5q0 119 67 189t167 70q45 0 87 -24q-31 66 -86 112zM398 253q0 98 -19 169q-57 34 -103 34
q-142 0 -142 -208q0 -104 31.5 -157.5t102.5 -53.5q130 0 130 216z" />
    <glyph glyph-name="ntilde" unicode="&#xf1;" horiz-adv-x="583" 
d="M492 369v-265q0 -42 12 -54.5t53 -15.5v-34h-226v34q46 2 58 13.5t12 49.5v254q0 82 -73 82t-138 -63v-273q0 -38 12 -49.5t58 -13.5v-34h-231v34q44 3 57 15.5t13 54.5v245q0 53 -14 68t-59 17v30l128 40h15q16 -35 17 -87q82 86 171 86q61 0 98 -35t37 -99zM352 669
q43 0 66 42l35 -15q-13 -43 -38.5 -72t-62.5 -29q-29 0 -68.5 14.5t-55.5 14.5q-40 0 -64 -44l-33 14q10 46 34.5 76t62.5 30q29 0 67 -15.5t57 -15.5z" />
    <glyph glyph-name="ograve" unicode="&#xf2;" horiz-adv-x="532" 
d="M496 242q0 -117 -64 -185.5t-166 -68.5t-166 69.5t-64 189.5q0 119 63.5 189t164.5 70q108 0 170 -74t62 -190zM398 238q0 219 -134 219q-71 0 -100.5 -50.5t-29.5 -149.5q0 -115 31 -167.5t103 -52.5q64 0 97 52t33 149zM368 600l-20 -34l-212 96l53 91z" />
    <glyph glyph-name="oacute" unicode="&#xf3;" horiz-adv-x="532" 
d="M496 242q0 -117 -64 -185.5t-166 -68.5t-166 69.5t-64 189.5q0 119 63.5 189t164.5 70q108 0 170 -74t62 -190zM398 238q0 219 -134 219q-71 0 -100.5 -50.5t-29.5 -149.5q0 -115 31 -167.5t103 -52.5q64 0 97 52t33 149zM170 566l-20 34l179 153l53 -91z" />
    <glyph glyph-name="ocircumflex" unicode="&#xf4;" horiz-adv-x="532" 
d="M496 242q0 -117 -64 -185.5t-166 -68.5t-166 69.5t-64 189.5q0 119 63.5 189t164.5 70q108 0 170 -74t62 -190zM398 238q0 219 -134 219q-71 0 -100.5 -50.5t-29.5 -149.5q0 -115 31 -167.5t103 -52.5q64 0 97 52t33 149zM402 564l-137 85l-137 -85l-25 30l162 153
l162 -153z" />
    <glyph glyph-name="otilde" unicode="&#xf5;" horiz-adv-x="532" 
d="M496 242q0 -117 -64 -185.5t-166 -68.5t-166 69.5t-64 189.5q0 119 63.5 189t164.5 70q108 0 170 -74t62 -190zM398 238q0 219 -134 219q-71 0 -100.5 -50.5t-29.5 -149.5q0 -115 31 -167.5t103 -52.5q64 0 97 52t33 149zM329 669q43 0 66 42l35 -15q-13 -43 -38.5 -72
t-62.5 -29q-29 0 -68.5 14.5t-55.5 14.5q-40 0 -64 -44l-33 14q10 46 34.5 76t62.5 30q29 0 67 -15.5t57 -15.5z" />
    <glyph glyph-name="odieresis" unicode="&#xf6;" horiz-adv-x="532" 
d="M496 242q0 -117 -64 -185.5t-166 -68.5t-166 69.5t-64 189.5q0 119 63.5 189t164.5 70q108 0 170 -74t62 -190zM398 238q0 219 -134 219q-71 0 -100.5 -50.5t-29.5 -149.5q0 -115 31 -167.5t103 -52.5q64 0 97 52t33 149zM222 638q0 -26 -17 -43t-43 -17t-43 17t-17 43
t17 43t43 17t43 -17t17 -43zM431 638q0 -26 -17.5 -43t-42.5 -17t-42.5 17t-17.5 43t17.5 43t42.5 17t42.5 -17t17.5 -43z" />
    <glyph glyph-name="divide" unicode="&#xf7;" horiz-adv-x="615" 
d="M372 482q0 -28 -19 -47.5t-45 -19.5q-27 0 -45.5 18.5t-18.5 46.5q0 27 18.5 46.5t45.5 19.5q26 0 45 -19t19 -45zM55 245v53h505v-53h-505zM372 56q0 -28 -19 -47.5t-45 -19.5q-27 0 -45.5 18.5t-18.5 46.5q0 27 18.5 46.5t45.5 19.5q26 0 45 -19t19 -45z" />
    <glyph glyph-name="oslash" unicode="&#xf8;" horiz-adv-x="532" 
d="M468 539l-53 -88q81 -72 81 -209q0 -117 -64 -185.5t-166 -68.5q-62 0 -114 27l-52 -87l-37 22l54 90q-81 70 -81 207q0 119 63.5 189t164.5 70q64 0 114 -28l50 84zM134 257q0 -101 22 -151l191 320q-32 31 -83 31q-71 0 -100.5 -50.5t-29.5 -149.5zM398 238
q0 94 -24 146l-191 -318q29 -29 85 -29q64 0 97 52t33 149z" />
    <glyph glyph-name="ugrave" unicode="&#xf9;" horiz-adv-x="580" 
d="M481 504v-366q0 -53 14 -68t59 -17v-30l-121 -36h-15q-18 44 -22 89q-40 -43 -77.5 -65.5t-89.5 -22.5q-63 0 -100.5 33.5t-37.5 99.5v228q0 53 -13.5 68t-56.5 17v30l139 40h22v-366q0 -45 18.5 -63t56.5 -18q42 0 70.5 15.5t62.5 48.5v228q0 53 -13.5 68t-56.5 17v30
l139 40h22zM390 600l-20 -34l-212 96l53 91z" />
    <glyph glyph-name="uacute" unicode="&#xfa;" horiz-adv-x="580" 
d="M481 504v-366q0 -53 14 -68t59 -17v-30l-121 -36h-15q-18 44 -22 89q-40 -43 -77.5 -65.5t-89.5 -22.5q-63 0 -100.5 33.5t-37.5 99.5v228q0 53 -13.5 68t-56.5 17v30l139 40h22v-366q0 -45 18.5 -63t56.5 -18q42 0 70.5 15.5t62.5 48.5v228q0 53 -13.5 68t-56.5 17v30
l139 40h22zM191 566l-20 34l179 153l53 -91z" />
    <glyph glyph-name="ucircumflex" unicode="&#xfb;" horiz-adv-x="580" 
d="M481 504v-366q0 -53 14 -68t59 -17v-30l-121 -36h-15q-18 44 -22 89q-40 -43 -77.5 -65.5t-89.5 -22.5q-63 0 -100.5 33.5t-37.5 99.5v228q0 53 -13.5 68t-56.5 17v30l139 40h22v-366q0 -45 18.5 -63t56.5 -18q42 0 70.5 15.5t62.5 48.5v228q0 53 -13.5 68t-56.5 17v30
l139 40h22zM423 564l-137 85l-137 -85l-25 30l162 153l162 -153z" />
    <glyph glyph-name="udieresis" unicode="&#xfc;" horiz-adv-x="580" 
d="M481 504v-366q0 -53 14 -68t59 -17v-30l-121 -36h-15q-18 44 -22 89q-40 -43 -77.5 -65.5t-89.5 -22.5q-63 0 -100.5 33.5t-37.5 99.5v228q0 53 -13.5 68t-56.5 17v30l139 40h22v-366q0 -45 18.5 -63t56.5 -18q42 0 70.5 15.5t62.5 48.5v228q0 53 -13.5 68t-56.5 17v30
l139 40h22zM243 638q0 -26 -17.5 -43t-42.5 -17t-42.5 17t-17.5 43t17.5 43t42.5 17t42.5 -17t17.5 -43zM452 638q0 -26 -17 -43t-43 -17t-43 17t-17 43t17 43t43 17t43 -17t17 -43z" />
    <glyph glyph-name="yacute" unicode="&#xfd;" horiz-adv-x="505" 
d="M105 -213l-24 69q66 17 102 45t57 101l-36 -5q-22 89 -52 172l-80 218q-14 38 -29 52t-44 18v34h222v-34q-36 -1 -50 -8.5t-14 -22.5q0 -7 7 -28l72 -202q23 -65 35 -132h3q10 52 29 111l72 223q4 13 6 23q2 19 -11 27t-52 9v34h188v-34q-31 -4 -45 -17t-28 -53
l-140 -403q-32 -93 -73.5 -137.5t-114.5 -59.5zM175 566l-20 34l179 153l53 -91z" />
    <glyph glyph-name="thorn" unicode="&#xfe;" horiz-adv-x="556" 
d="M422 236q0 114 -26 158.5t-88 44.5q-72 0 -130 -64v-271q23 -28 55.5 -44t61.5 -16q66 0 96.5 41.5t30.5 150.5zM7 701l144 29h15q12 -34 12 -99v-206q60 78 152 78q84 0 137 -62.5t53 -185.5q0 -119 -53.5 -189.5t-150.5 -70.5q-84 0 -138 57v-145q0 -41 14 -54t64 -15
v-34h-239v34q44 3 57 15.5t13 54.5v676q0 53 -15.5 68t-64.5 17v32z" />
    <glyph glyph-name="ydieresis" unicode="&#xff;" horiz-adv-x="505" 
d="M105 -213l-24 69q66 17 102 45t57 101l-36 -5q-22 89 -52 172l-80 218q-14 38 -29 52t-44 18v34h222v-34q-36 -1 -50 -8.5t-14 -22.5q0 -7 7 -28l72 -202q23 -65 35 -132h3q10 52 29 111l72 223q4 13 6 23q2 19 -11 27t-52 9v34h188v-34q-31 -4 -45 -17t-28 -53
l-140 -403q-32 -93 -73.5 -137.5t-114.5 -59.5zM226 638q0 -26 -17 -43t-43 -17t-43 17t-17 43t17 43t43 17t43 -17t17 -43zM435 638q0 -26 -17.5 -43t-42.5 -17t-42.5 17t-17.5 43t17.5 43t42.5 17t42.5 -17t17.5 -43z" />
    <glyph glyph-name="Amacron" unicode="&#x100;" horiz-adv-x="657" 
d="M459 107l-33 108h-230l-33 -108q-6 -21 -6 -35q0 -21 16 -28t57 -9v-35h-214v35q36 3 53 19.5t33 66.5l184 568h89l182 -566q15 -47 31.5 -66t52.5 -22v-35h-245v35q36 2 52 11.5t16 30.5q0 13 -5 30zM257 411l-46 -148h201l-45 148q-31 101 -52 191h-4
q-40 -146 -54 -191zM469 769h-281v57h281v-57z" />
    <glyph glyph-name="amacron" unicode="&#x101;" horiz-adv-x="512" 
d="M420 131q0 -57 13 -73t61 -20v-33q-27 -11 -69 -11q-49 0 -68 17.5t-23 53.5q-17 -30 -52 -55t-85 -25q-73 0 -117 37.5t-44 105.5q0 161 262 161q22 0 35 -1v44q0 67 -19.5 95.5t-71.5 28.5q-100 0 -116 -90h-63v89q93 51 187 51q174 0 174 -168q0 -7 -2 -80.5
t-2 -126.5zM331 240q-28 2 -35 2q-86 0 -124.5 -25t-38.5 -82q0 -52 20.5 -72.5t65.5 -20.5q67 0 109 73zM383 590h-281v57h281v-57z" />
    <glyph glyph-name="Abreve" unicode="&#x102;" horiz-adv-x="657" 
d="M459 107l-33 108h-230l-33 -108q-6 -21 -6 -35q0 -21 16 -28t57 -9v-35h-214v35q36 3 53 19.5t33 66.5l184 568h89l182 -566q15 -47 31.5 -66t52.5 -22v-35h-245v35q36 2 52 11.5t16 30.5q0 13 -5 30zM257 411l-46 -148h201l-45 148q-31 101 -52 191h-4
q-40 -146 -54 -191zM328 741q-53 0 -99.5 41t-66.5 92l31 26q34 -40 64.5 -60.5t70.5 -20.5t70.5 20.5t64.5 60.5l31 -26q-20 -51 -66.5 -92t-99.5 -41z" />
    <glyph glyph-name="abreve" unicode="&#x103;" horiz-adv-x="512" 
d="M420 131q0 -57 13 -73t61 -20v-33q-27 -11 -69 -11q-49 0 -68 17.5t-23 53.5q-17 -30 -52 -55t-85 -25q-73 0 -117 37.5t-44 105.5q0 161 262 161q22 0 35 -1v44q0 67 -19.5 95.5t-71.5 28.5q-100 0 -116 -90h-63v89q93 51 187 51q174 0 174 -168q0 -7 -2 -80.5
t-2 -126.5zM331 240q-28 2 -35 2q-86 0 -124.5 -25t-38.5 -82q0 -52 20.5 -72.5t65.5 -20.5q67 0 109 73zM246 567q-50 0 -92 41.5t-60 93.5l31 22q53 -79 119 -79q65 0 119 79l32 -22q-18 -52 -59 -93.5t-90 -41.5z" />
    <glyph glyph-name="Aogonek" unicode="&#x104;" horiz-adv-x="657" 
d="M467 -144l16 -24q-39 -37 -95 -37q-46 0 -72 23.5t-26 62.5q0 26 12 49.5t35 42t42.5 30.5t47.5 27q37 18 37 48q0 11 -5 29l-33 108h-230l-33 -108q-6 -21 -6 -35q0 -21 16 -28t57 -9v-35h-214v35q36 3 53 19.5t33 66.5l184 568h89l182 -566q15 -47 31.5 -66t52.5 -22
v-35h-160q-50 0 -80.5 -30.5t-30.5 -74.5q0 -23 12 -37.5t32 -14.5q27 0 53 13zM257 411l-46 -148h201l-45 148q-31 101 -52 191h-4q-40 -146 -54 -191z" />
    <glyph glyph-name="aogonek" unicode="&#x105;" horiz-adv-x="512" 
d="M488 -144l16 -24q-39 -37 -95 -37q-46 0 -72 23.5t-26 62.5q0 68 81 116q-30 5 -42.5 21.5t-15.5 46.5q-17 -30 -52 -55t-85 -25q-73 0 -117 37.5t-44 105.5q0 161 262 161q22 0 35 -1v44q0 67 -19.5 95.5t-71.5 28.5q-100 0 -116 -90h-63v89q93 51 187 51
q174 0 174 -168q0 -7 -2 -80.5t-2 -126.5q0 -57 13 -73t61 -20v-33q-103 -20 -103 -110q0 -23 12 -37.5t32 -14.5q27 0 53 13zM331 240q-28 2 -35 2q-86 0 -124.5 -25t-38.5 -82q0 -52 20.5 -72.5t65.5 -20.5q67 0 109 73z" />
    <glyph glyph-name="Cacute" unicode="&#x106;" horiz-adv-x="577" 
d="M348 -11q-153 0 -228.5 92t-75.5 258q0 170 80.5 266t215.5 96q131 0 198 -47v-112h-70q-15 60 -43 86t-88 26q-91 0 -139.5 -73t-48.5 -240q0 -171 50 -238t149 -67q59 0 89 24.5t41 83.5h65v-105q-70 -50 -195 -50zM238 727l-20 34l191 128l43 -92z" />
    <glyph glyph-name="cacute" unicode="&#x107;" horiz-adv-x="463" 
d="M415 464v-92h-68q-8 46 -26 65.5t-58 19.5q-128 0 -128 -199q0 -117 33.5 -165.5t105.5 -48.5q42 0 69 12.5t64 42.5l26 -28q-72 -82 -173 -82q-98 0 -161 64t-63 185q0 126 64 195.5t165 69.5q93 0 150 -39zM172 566l-20 34l179 153l53 -91z" />
    <glyph glyph-name="Ccircumflex" unicode="&#x108;" horiz-adv-x="577" 
d="M348 -11q-153 0 -228.5 92t-75.5 258q0 170 80.5 266t215.5 96q131 0 198 -47v-112h-70q-15 60 -43 86t-88 26q-91 0 -139.5 -73t-48.5 -240q0 -171 50 -238t149 -67q59 0 89 24.5t41 83.5h65v-105q-70 -50 -195 -50zM472 728l-137 81l-137 -81l-25 30l162 149l162 -149z
" />
    <glyph glyph-name="ccircumflex" unicode="&#x109;" horiz-adv-x="463" 
d="M415 464v-92h-68q-8 46 -26 65.5t-58 19.5q-128 0 -128 -199q0 -117 33.5 -165.5t105.5 -48.5q42 0 69 12.5t64 42.5l26 -28q-72 -82 -173 -82q-98 0 -161 64t-63 185q0 126 64 195.5t165 69.5q93 0 150 -39zM395 564l-137 85l-137 -85l-25 30l162 153l162 -153z" />
    <glyph glyph-name="Cdotaccent" unicode="&#x10a;" horiz-adv-x="577" 
d="M348 -11q-153 0 -228.5 92t-75.5 258q0 170 80.5 266t215.5 96q131 0 198 -47v-112h-70q-15 60 -43 86t-88 26q-91 0 -139.5 -73t-48.5 -240q0 -171 50 -238t149 -67q59 0 89 24.5t41 83.5h65v-105q-70 -50 -195 -50zM396 808q0 -26 -18 -44.5t-44 -18.5t-44 18.5
t-18 44.5t18 44.5t44 18.5t44 -18.5t18 -44.5z" />
    <glyph glyph-name="cdotaccent" unicode="&#x10b;" horiz-adv-x="463" 
d="M415 464v-92h-68q-8 46 -26 65.5t-58 19.5q-128 0 -128 -199q0 -117 33.5 -165.5t105.5 -48.5q42 0 69 12.5t64 42.5l26 -28q-72 -82 -173 -82q-98 0 -161 64t-63 185q0 126 64 195.5t165 69.5q93 0 150 -39zM319 644q0 -26 -18 -44.5t-44 -18.5t-44 18.5t-18 44.5
t18 44.5t44 18.5t44 -18.5t18 -44.5z" />
    <glyph glyph-name="Ccaron" unicode="&#x10c;" horiz-adv-x="577" 
d="M348 -11q-153 0 -228.5 92t-75.5 258q0 170 80.5 266t215.5 96q131 0 198 -47v-112h-70q-15 60 -43 86t-88 26q-91 0 -139.5 -73t-48.5 -240q0 -171 50 -238t149 -67q59 0 89 24.5t41 83.5h65v-105q-70 -50 -195 -50zM335 826l137 81l25 -30l-162 -149l-162 149l25 30z
" />
    <glyph glyph-name="ccaron" unicode="&#x10d;" horiz-adv-x="463" 
d="M415 464v-92h-68q-8 46 -26 65.5t-58 19.5q-128 0 -128 -199q0 -117 33.5 -165.5t105.5 -48.5q42 0 69 12.5t64 42.5l26 -28q-72 -82 -173 -82q-98 0 -161 64t-63 185q0 126 64 195.5t165 69.5q93 0 150 -39zM259 645l137 85l25 -30l-162 -153l-162 153l25 30z" />
    <glyph glyph-name="Dcaron" unicode="&#x10e;" horiz-adv-x="670" 
d="M37 0v35q49 1 64.5 16.5t15.5 59.5v467q0 44 -15.5 59.5t-64.5 16.5v35h253q159 0 247.5 -85t88.5 -260q0 -160 -79.5 -252t-256.5 -92h-253zM215 51h85q118 0 170 60t52 221q0 167 -54 238.5t-166 71.5h-87v-591zM313 826l137 81l25 -30l-162 -149l-162 149l25 30z" />
    <glyph glyph-name="dcaron" unicode="&#x10f;" horiz-adv-x="567" 
d="M383 74q-29 -37 -70 -60.5t-80 -23.5q-85 0 -141 61.5t-56 189.5q0 118 55 190t150 72q81 0 136 -60v141q0 53 -15 68t-61 17v32l146 29h21v-592q0 -53 15 -68t64 -17v-30l-127 -36h-15q-18 36 -22 87zM134 253q0 -114 27 -160.5t88 -46.5q63 0 128 72v271
q-47 57 -121 57q-62 0 -92 -41t-30 -152zM626 715l-62 -188l-44 11l15 192z" />
    <glyph glyph-name="Dcroat" unicode="&#x110;" horiz-adv-x="670" 
d="M33 342v46h84v190q0 44 -15.5 59.5t-64.5 16.5v35h253q159 0 247.5 -85t88.5 -260q0 -160 -79.5 -252t-256.5 -92h-253v35q49 1 64.5 16.5t15.5 59.5v231h-84zM522 332q0 167 -54 238.5t-166 71.5h-87v-254h129v-46h-129v-291h85q118 0 170 60t52 221z" />
    <glyph glyph-name="dcroat" unicode="&#x111;" horiz-adv-x="567" 
d="M211 605h166q-1 43 -13 52.5t-63 11.5v32l146 29h21v-125h74v-41h-74v-426q0 -53 15 -68t64 -17v-30l-127 -36h-15q-18 40 -22 87q-29 -37 -70 -60.5t-80 -23.5q-85 0 -141 61.5t-56 189.5q0 118 55 190t150 72q81 0 136 -60v121h-166v41zM134 253q0 -114 27 -160.5
t88 -46.5q63 0 128 72v271q-47 57 -121 57q-62 0 -92 -41t-30 -152z" />
    <glyph glyph-name="Emacron" unicode="&#x112;" horiz-adv-x="565" 
d="M37 0v35q49 1 64.5 16.5t15.5 59.5v467q0 44 -15.5 59.5t-64.5 16.5v35h470l10 -150h-42q-17 60 -35.5 80.5t-60.5 20.5h-167v-256h93q47 0 65 14.5t21 56.5h41v-190h-41q-3 41 -21 56t-64 15h-94v-287h168q57 0 77.5 23t26.5 93h45v-165h-492zM438 769h-281v57h281v-57z
" />
    <glyph glyph-name="emacron" unicode="&#x113;" horiz-adv-x="483" 
d="M289 49q69 0 133 42l21 -34q-88 -68 -178 -68q-108 0 -168.5 68.5t-60.5 191.5q0 120 60 189t155 69t147.5 -62.5t52.5 -176.5v-27h-319q1 -106 38.5 -149t118.5 -43zM249 459q-54 0 -82.5 -38.5t-33.5 -130.5h223q0 91 -25 130t-82 39zM386 590h-281v57h281v-57z" />
    <glyph glyph-name="Ebreve" unicode="&#x114;" horiz-adv-x="565" 
d="M37 0v35q49 1 64.5 16.5t15.5 59.5v467q0 44 -15.5 59.5t-64.5 16.5v35h470l10 -150h-42q-17 60 -35.5 80.5t-60.5 20.5h-167v-256h93q47 0 65 14.5t21 56.5h41v-190h-41q-3 41 -21 56t-64 15h-94v-287h168q57 0 77.5 23t26.5 93h45v-165h-492zM287 741q-53 0 -99.5 41
t-66.5 92l31 26q34 -40 64.5 -60.5t70.5 -20.5t70.5 20.5t64.5 60.5l31 -26q-20 -51 -66.5 -92t-99.5 -41z" />
    <glyph glyph-name="ebreve" unicode="&#x115;" horiz-adv-x="483" 
d="M289 49q69 0 133 42l21 -34q-88 -68 -178 -68q-108 0 -168.5 68.5t-60.5 191.5q0 120 60 189t155 69t147.5 -62.5t52.5 -176.5v-27h-319q1 -106 38.5 -149t118.5 -43zM249 459q-54 0 -82.5 -38.5t-33.5 -130.5h223q0 91 -25 130t-82 39zM246 567q-50 0 -92 41.5t-60 93.5
l31 22q53 -79 119 -79q65 0 119 79l32 -22q-18 -52 -59 -93.5t-90 -41.5z" />
    <glyph glyph-name="Edotaccent" unicode="&#x116;" horiz-adv-x="565" 
d="M37 0v35q49 1 64.5 16.5t15.5 59.5v467q0 44 -15.5 59.5t-64.5 16.5v35h470l10 -150h-42q-17 60 -35.5 80.5t-60.5 20.5h-167v-256h93q47 0 65 14.5t21 56.5h41v-190h-41q-3 41 -21 56t-64 15h-94v-287h168q57 0 77.5 23t26.5 93h45v-165h-492zM358 808q0 -26 -18 -44.5
t-44 -18.5t-44 18.5t-18 44.5t18 44.5t44 18.5t44 -18.5t18 -44.5z" />
    <glyph glyph-name="edotaccent" unicode="&#x117;" horiz-adv-x="483" 
d="M289 49q69 0 133 42l21 -34q-88 -68 -178 -68q-108 0 -168.5 68.5t-60.5 191.5q0 120 60 189t155 69t147.5 -62.5t52.5 -176.5v-27h-319q1 -106 38.5 -149t118.5 -43zM249 459q-54 0 -82.5 -38.5t-33.5 -130.5h223q0 91 -25 130t-82 39zM310 644q0 -26 -18 -44.5
t-44 -18.5t-44 18.5t-18 44.5t18 44.5t44 18.5t44 -18.5t18 -44.5z" />
    <glyph glyph-name="Eogonek" unicode="&#x118;" horiz-adv-x="565" 
d="M428 -205q-46 0 -72 23.5t-26 62.5q0 71 86 119h-379v35q49 1 64.5 16.5t15.5 59.5v467q0 44 -15.5 59.5t-64.5 16.5v35h470l10 -150h-42q-17 60 -35.5 80.5t-60.5 20.5h-167v-256h93q47 0 65 14.5t21 56.5h41v-190h-41q-3 41 -21 56t-64 15h-94v-287h168q57 0 77.5 23
t26.5 93h45v-165l-26 -1q-47 -2 -70 -32t-23 -72q0 -23 12 -37.5t32 -14.5q27 0 53 13l16 -24q-39 -37 -95 -37z" />
    <glyph glyph-name="eogonek" unicode="&#x119;" horiz-adv-x="483" 
d="M395 -144l16 -24q-39 -37 -95 -37q-46 0 -72 23.5t-26 62.5q0 64 71 110q-16 -2 -24 -2q-108 0 -168.5 68.5t-60.5 191.5q0 120 60 189t155 69t147.5 -62.5t52.5 -176.5v-27h-319q1 -106 38.5 -149t118.5 -43q69 0 133 42l21 -34q-12 -9 -79 -52q-66 -43 -66 -110
q0 -23 12 -37.5t32 -14.5q27 0 53 13zM249 459q-54 0 -82.5 -38.5t-33.5 -130.5h223q0 91 -25 130t-82 39z" />
    <glyph glyph-name="Ecaron" unicode="&#x11a;" horiz-adv-x="565" 
d="M37 0v35q49 1 64.5 16.5t15.5 59.5v467q0 44 -15.5 59.5t-64.5 16.5v35h470l10 -150h-42q-17 60 -35.5 80.5t-60.5 20.5h-167v-256h93q47 0 65 14.5t21 56.5h41v-190h-41q-3 41 -21 56t-64 15h-94v-287h168q57 0 77.5 23t26.5 93h45v-165h-492zM297 826l137 81l25 -30
l-162 -149l-162 149l25 30z" />
    <glyph glyph-name="ecaron" unicode="&#x11b;" horiz-adv-x="483" 
d="M289 49q69 0 133 42l21 -34q-88 -68 -178 -68q-108 0 -168.5 68.5t-60.5 191.5q0 120 60 189t155 69t147.5 -62.5t52.5 -176.5v-27h-319q1 -106 38.5 -149t118.5 -43zM249 459q-54 0 -82.5 -38.5t-33.5 -130.5h223q0 91 -25 130t-82 39zM250 645l137 85l25 -30l-162 -153
l-162 153l25 30z" />
    <glyph glyph-name="Gcircumflex" unicode="&#x11c;" horiz-adv-x="644" 
d="M461 66v163q0 44 -17 59.5t-73 16.5v35h250v-35q-39 -1 -52 -17t-13 -59v-189q-84 -51 -216 -51q-138 0 -217 93t-79 259t82 263t214 97q139 0 212 -51v-111h-70q-12 61 -43 88t-107 27q-186 0 -186 -318q0 -147 45.5 -224t155.5 -77q74 0 114 31zM487 728l-137 81
l-137 -81l-25 30l162 149l162 -149z" />
    <glyph glyph-name="gcircumflex" unicode="&#x11d;" horiz-adv-x="523" 
d="M254 -189q-99 0 -154.5 33.5t-55.5 81.5q0 40 51 70l42 2q-11 -20 -11 -52q0 -44 28.5 -65.5t97.5 -21.5q140 0 140 93q0 46 -29 60.5t-127 16.5q-44 1 -89 6q-31 4 -48 26t-17 52q0 55 93 86q-54 13 -86.5 52.5t-32.5 89.5q0 73 51 118.5t137 45.5q41 0 78 -11
q52 -16 75 -16q37 0 81 31l34 -65q-36 -18 -70 -18q-29 0 -70 19q60 -45 60 -106q0 -58 -44 -102.5t-143 -49.5q-7 -1 -22 -1q-27 -8 -44 -22t-17 -30q0 -25 36 -25h92q93 0 138.5 -31t45.5 -107q0 -72 -62.5 -116t-157.5 -44zM243 232q91 0 91 110q0 60 -22.5 88t-69.5 28
q-91 0 -91 -113t92 -113zM400 564l-137 85l-137 -85l-25 30l162 153l162 -153z" />
    <glyph glyph-name="Gbreve" unicode="&#x11e;" horiz-adv-x="644" 
d="M461 66v163q0 44 -17 59.5t-73 16.5v35h250v-35q-39 -1 -52 -17t-13 -59v-189q-84 -51 -216 -51q-138 0 -217 93t-79 259t82 263t214 97q139 0 212 -51v-111h-70q-12 61 -43 88t-107 27q-186 0 -186 -318q0 -147 45.5 -224t155.5 -77q74 0 114 31zM350 741
q-53 0 -99.5 41t-66.5 92l31 26q34 -40 64.5 -60.5t70.5 -20.5t70.5 20.5t64.5 60.5l31 -26q-20 -51 -66.5 -92t-99.5 -41z" />
    <glyph glyph-name="gbreve" unicode="&#x11f;" horiz-adv-x="523" 
d="M254 -189q-99 0 -154.5 33.5t-55.5 81.5q0 40 51 70l42 2q-11 -20 -11 -52q0 -44 28.5 -65.5t97.5 -21.5q140 0 140 93q0 46 -29 60.5t-127 16.5q-44 1 -89 6q-31 4 -48 26t-17 52q0 55 93 86q-54 13 -86.5 52.5t-32.5 89.5q0 73 51 118.5t137 45.5q41 0 78 -11
q52 -16 75 -16q37 0 81 31l34 -65q-36 -18 -70 -18q-29 0 -70 19q60 -45 60 -106q0 -58 -44 -102.5t-143 -49.5q-7 -1 -22 -1q-27 -8 -44 -22t-17 -30q0 -25 36 -25h92q93 0 138.5 -31t45.5 -107q0 -72 -62.5 -116t-157.5 -44zM243 232q91 0 91 110q0 60 -22.5 88t-69.5 28
q-91 0 -91 -113t92 -113zM265 567q-50 0 -92 41.5t-60 93.5l31 22q53 -79 119 -79q65 0 119 79l32 -22q-18 -52 -59 -93.5t-90 -41.5z" />
    <glyph glyph-name="Gdotaccent" unicode="&#x120;" horiz-adv-x="644" 
d="M461 66v163q0 44 -17 59.5t-73 16.5v35h250v-35q-39 -1 -52 -17t-13 -59v-189q-84 -51 -216 -51q-138 0 -217 93t-79 259t82 263t214 97q139 0 212 -51v-111h-70q-12 61 -43 88t-107 27q-186 0 -186 -318q0 -147 45.5 -224t155.5 -77q74 0 114 31zM411 808
q0 -26 -18 -44.5t-44 -18.5t-44 18.5t-18 44.5t18 44.5t44 18.5t44 -18.5t18 -44.5z" />
    <glyph glyph-name="gdotaccent" unicode="&#x121;" horiz-adv-x="523" 
d="M254 -189q-99 0 -154.5 33.5t-55.5 81.5q0 40 51 70l42 2q-11 -20 -11 -52q0 -44 28.5 -65.5t97.5 -21.5q140 0 140 93q0 46 -29 60.5t-127 16.5q-44 1 -89 6q-31 4 -48 26t-17 52q0 55 93 86q-54 13 -86.5 52.5t-32.5 89.5q0 73 51 118.5t137 45.5q41 0 78 -11
q52 -16 75 -16q37 0 81 31l34 -65q-36 -18 -70 -18q-29 0 -70 19q60 -45 60 -106q0 -58 -44 -102.5t-143 -49.5q-7 -1 -22 -1q-27 -8 -44 -22t-17 -30q0 -25 36 -25h92q93 0 138.5 -31t45.5 -107q0 -72 -62.5 -116t-157.5 -44zM243 232q91 0 91 110q0 60 -22.5 88t-69.5 28
q-91 0 -91 -113t92 -113zM326 644q0 -26 -18 -44.5t-44 -18.5t-44 18.5t-18 44.5t18 44.5t44 18.5t44 -18.5t18 -44.5z" />
    <glyph glyph-name="Gcommaaccent" unicode="&#x122;" horiz-adv-x="644" 
d="M461 66v163q0 44 -17 59.5t-73 16.5v35h250v-35q-39 -1 -52 -17t-13 -59v-189q-84 -51 -216 -51q-138 0 -217 93t-79 259t82 263t214 97q139 0 212 -51v-111h-70q-12 61 -43 88t-107 27q-186 0 -186 -318q0 -147 45.5 -224t155.5 -77q74 0 114 31zM423 -141
q0 -48 -33 -85.5t-94 -49.5l-19 27q38 12 52.5 25.5t14.5 32.5q0 16 -27 26q-31 13 -31 48q0 23 18 39t47 16q34 0 53 -21.5t19 -57.5z" />
    <glyph glyph-name="gcommaaccent" unicode="&#x123;" horiz-adv-x="523" 
d="M254 -189q-99 0 -154.5 33.5t-55.5 81.5q0 40 51 70l42 2q-11 -20 -11 -52q0 -44 28.5 -65.5t97.5 -21.5q140 0 140 93q0 46 -29 60.5t-127 16.5q-44 1 -89 6q-31 4 -48 26t-17 52q0 55 93 86q-54 13 -86.5 52.5t-32.5 89.5q0 73 51 118.5t137 45.5q41 0 78 -11
q52 -16 75 -16q37 0 81 31l34 -65q-36 -18 -70 -18q-29 0 -70 19q60 -45 60 -106q0 -58 -44 -102.5t-143 -49.5q-7 -1 -22 -1q-27 -8 -44 -22t-17 -30q0 -25 36 -25h92q93 0 138.5 -31t45.5 -107q0 -72 -62.5 -116t-157.5 -44zM243 232q91 0 91 110q0 60 -22.5 88t-69.5 28
q-91 0 -91 -113t92 -113zM188 645q0 48 33 85.5t94 49.5l19 -27q-38 -12 -52.5 -25.5t-14.5 -32.5q0 -16 27 -26q31 -13 31 -48q0 -23 -18 -39t-47 -16q-34 0 -53 21.5t-19 57.5z" />
    <glyph glyph-name="Hcircumflex" unicode="&#x124;" horiz-adv-x="708" 
d="M496 111v229h-284v-229q0 -44 15.5 -59.5t64.5 -16.5v-35h-255v35q49 1 64.5 16.5t15.5 59.5v467q0 44 -15.5 59.5t-64.5 16.5v35h255v-35q-49 -1 -64.5 -16.5t-15.5 -59.5v-188h284v188q0 44 -15.5 59.5t-64.5 16.5v35h255v-35q-49 -1 -64.5 -16.5t-15.5 -59.5v-467
q0 -44 15.5 -59.5t64.5 -16.5v-35h-255v35q49 1 64.5 16.5t15.5 59.5zM491 728l-137 81l-137 -81l-25 30l162 149l162 -149z" />
    <glyph glyph-name="hcircumflex" unicode="&#x125;" horiz-adv-x="583" 
d="M190 631v-210q40 40 77.5 61t89.5 21q61 0 98 -35t37 -99v-265q0 -42 12 -54.5t53 -15.5v-34h-226v34q46 2 58 13.5t12 49.5v254q0 82 -73 82t-138 -63v-273q0 -38 12 -49.5t58 -13.5v-34h-231v34q44 3 57 15.5t13 54.5v480q0 53 -15 68t-61 17v32l140 29h15
q12 -38 12 -99zM427 756l-137 81l-137 -81l-25 30l162 149l162 -149z" />
    <glyph glyph-name="Hbar" unicode="&#x126;" horiz-adv-x="708" 
d="M47 494v46h70v38q0 44 -15.5 59.5t-64.5 16.5v35h255v-35q-49 -1 -64.5 -16.5t-15.5 -59.5v-38h284v38q0 44 -15.5 59.5t-64.5 16.5v35h255v-35q-49 -1 -64.5 -16.5t-15.5 -59.5v-38h70v-46h-70v-383q0 -44 15.5 -59.5t64.5 -16.5v-35h-255v35q49 1 64.5 16.5t15.5 59.5
v229h-284v-229q0 -44 15.5 -59.5t64.5 -16.5v-35h-255v35q49 1 64.5 16.5t15.5 59.5v383h-70zM212 390h284v104h-284v-104z" />
    <glyph glyph-name="hbar" unicode="&#x127;" horiz-adv-x="583" 
d="M190 631v-26h163v-41h-163v-143q40 40 77.5 61t89.5 21q61 0 98 -35t37 -99v-265q0 -42 12 -54.5t53 -15.5v-34h-226v34q46 2 58 13.5t12 49.5v254q0 82 -73 82t-138 -63v-273q0 -38 12 -49.5t58 -13.5v-34h-231v34q44 3 57 15.5t13 54.5v460h-77v41h77q-1 43 -13 52.5
t-63 11.5v32l140 29h15q12 -34 12 -99z" />
    <glyph glyph-name="Itilde" unicode="&#x128;" horiz-adv-x="329" 
d="M117 111v467q0 44 -15.5 59.5t-64.5 16.5v35h255v-35q-49 -1 -64.5 -16.5t-15.5 -59.5v-467q0 -44 15.5 -59.5t64.5 -16.5v-35h-255v35q49 1 64.5 16.5t15.5 59.5zM232 818q45 0 73 45l36 -14q-32 -95 -109 -95q-38 0 -79 22t-59 22q-26 0 -41 -11.5t-30 -35.5l-34 13
q25 100 105 100q35 0 75.5 -23t62.5 -23z" />
    <glyph glyph-name="itilde" unicode="&#x129;" horiz-adv-x="286" 
d="M260 0h-231v34q44 3 57 15.5t13 54.5v245q0 53 -14 68t-59 17v30l149 40h15v-400q0 -43 11.5 -55.5t58.5 -14.5v-34zM186 669q43 0 66 42l35 -15q-13 -43 -38.5 -72t-62.5 -29q-29 0 -68.5 14.5t-55.5 14.5q-40 0 -64 -44l-33 14q10 46 34.5 76t62.5 30q29 0 67 -15.5
t57 -15.5z" />
    <glyph glyph-name="Imacron" unicode="&#x12a;" horiz-adv-x="329" 
d="M117 111v467q0 44 -15.5 59.5t-64.5 16.5v35h255v-35q-49 -1 -64.5 -16.5t-15.5 -59.5v-467q0 -44 15.5 -59.5t64.5 -16.5v-35h-255v35q49 1 64.5 16.5t15.5 59.5zM305 769h-281v57h281v-57z" />
    <glyph glyph-name="imacron" unicode="&#x12b;" horiz-adv-x="286" 
d="M260 0h-231v34q44 3 57 15.5t13 54.5v245q0 53 -14 68t-59 17v30l149 40h15v-400q0 -43 11.5 -55.5t58.5 -14.5v-34zM242 590h-238v57h238v-57z" />
    <glyph glyph-name="Ibreve" unicode="&#x12c;" horiz-adv-x="329" 
d="M117 111v467q0 44 -15.5 59.5t-64.5 16.5v35h255v-35q-49 -1 -64.5 -16.5t-15.5 -59.5v-467q0 -44 15.5 -59.5t64.5 -16.5v-35h-255v35q49 1 64.5 16.5t15.5 59.5zM164 741q-53 0 -99.5 41t-66.5 92l31 26q34 -40 64.5 -60.5t70.5 -20.5t70.5 20.5t64.5 60.5l31 -26
q-20 -51 -66.5 -92t-99.5 -41z" />
    <glyph glyph-name="ibreve" unicode="&#x12d;" horiz-adv-x="286" 
d="M260 0h-231v34q44 3 57 15.5t13 54.5v245q0 53 -14 68t-59 17v30l149 40h15v-400q0 -43 11.5 -55.5t58.5 -14.5v-34zM134 567q-50 0 -92 41.5t-60 93.5l31 22q53 -79 119 -79q65 0 119 79l32 -22q-18 -52 -59 -93.5t-90 -41.5z" />
    <glyph glyph-name="Iogonek" unicode="&#x12e;" horiz-adv-x="329" 
d="M275 -144l16 -24q-39 -37 -95 -37q-46 0 -72 23.5t-26 62.5q0 71 86 119h-147v35q49 1 64.5 16.5t15.5 59.5v467q0 44 -15.5 59.5t-64.5 16.5v35h255v-35q-49 -1 -64.5 -16.5t-15.5 -59.5v-467q0 -44 15.5 -59.5t64.5 -16.5v-35h-19q-46 0 -70.5 -31t-24.5 -74
q0 -23 12 -37.5t32 -14.5q27 0 53 13z" />
    <glyph glyph-name="iogonek" unicode="&#x12f;" horiz-adv-x="286" 
d="M253 -144l16 -24q-39 -37 -95 -37q-46 0 -72 23.5t-26 62.5q0 71 86 119h-133v34q44 3 57 15.5t13 54.5v245q0 53 -14 68t-59 17v30l149 40h15v-400q0 -43 11.5 -55.5t58.5 -14.5v-34q-55 -3 -79.5 -33t-24.5 -72q0 -23 12 -37.5t32 -14.5q27 0 53 13zM200 644
q0 -26 -18 -44.5t-44 -18.5t-44 18.5t-18 44.5t18 44.5t44 18.5t44 -18.5t18 -44.5z" />
    <glyph glyph-name="Idotaccent" unicode="&#x130;" horiz-adv-x="329" 
d="M117 111v467q0 44 -15.5 59.5t-64.5 16.5v35h255v-35q-49 -1 -64.5 -16.5t-15.5 -59.5v-467q0 -44 15.5 -59.5t64.5 -16.5v-35h-255v35q49 1 64.5 16.5t15.5 59.5zM225 808q0 -26 -18 -44.5t-44 -18.5t-44 18.5t-18 44.5t18 44.5t44 18.5t44 -18.5t18 -44.5z" />
    <glyph glyph-name="dotlessi" unicode="&#x131;" horiz-adv-x="286" 
d="M260 0h-231v34q44 3 57 15.5t13 54.5v245q0 53 -14 68t-59 17v30l149 40h15v-400q0 -43 11.5 -55.5t58.5 -14.5v-34z" />
    <glyph glyph-name="IJ" unicode="&#x132;" horiz-adv-x="668" 
d="M117 111v467q0 44 -15.5 59.5t-64.5 16.5v35h255v-35q-49 -1 -64.5 -16.5t-15.5 -59.5v-467q0 -44 15.5 -59.5t64.5 -16.5v-35h-255v35q49 1 64.5 16.5t15.5 59.5zM451 100v478q0 44 -16.5 59.5t-68.5 16.5v35h265v-35q-52 -1 -68.5 -16.5t-16.5 -59.5v-471
q0 -116 -39.5 -168t-149.5 -86l-24 37q77 39 97.5 80t20.5 130z" />
    <glyph glyph-name="ij" unicode="&#x133;" horiz-adv-x="525" 
d="M260 0h-231v34q44 3 57 15.5t13 54.5v245q0 53 -14 68t-59 17v30l149 40h15v-400q0 -43 11.5 -55.5t58.5 -14.5v-34zM200 644q0 -26 -18 -44.5t-44 -18.5t-44 18.5t-18 44.5t18 44.5t44 18.5t44 -18.5t18 -44.5zM355 12v337q0 53 -14 68t-59 17v30l149 40h15v-493
q0 -54 -9 -90t-31.5 -60t-42 -36t-59.5 -31l-29 40q45 21 62.5 60.5t17.5 117.5zM456 644q0 -26 -18 -44.5t-44 -18.5t-44 18.5t-18 44.5t18 44.5t44 18.5t44 -18.5t18 -44.5z" />
    <glyph glyph-name="Jcircumflex" unicode="&#x134;" horiz-adv-x="339" 
d="M122 100v478q0 44 -16.5 59.5t-68.5 16.5v35h265v-35q-52 -1 -68.5 -16.5t-16.5 -59.5v-471q0 -116 -39.5 -168t-149.5 -86l-24 37q77 39 97.5 80t20.5 130zM302 728l-137 81l-137 -81l-25 30l162 149l162 -149z" />
    <glyph glyph-name="jcircumflex" unicode="&#x135;" horiz-adv-x="269" 
d="M99 12v337q0 53 -14 68t-59 17v30l149 40h15v-493q0 -54 -9 -90t-31.5 -60t-42 -36t-59.5 -31l-29 40q45 21 62.5 60.5t17.5 117.5zM280 564l-137 85l-137 -85l-25 30l162 153l162 -153z" />
    <glyph glyph-name="Kcommaaccent" unicode="&#x136;" horiz-adv-x="622" 
d="M117 111v467q0 44 -15.5 59.5t-64.5 16.5v35h255v-35q-49 -1 -64.5 -16.5t-15.5 -59.5v-467q0 -44 15.5 -59.5t64.5 -16.5v-35h-255v35q49 1 64.5 16.5t15.5 59.5zM458 552l-144 -162l211 -306q19 -28 36 -37t55 -12v-35h-149l-239 361l184 215q24 29 24 48q0 28 -54 30
v35h212v-35q-34 -5 -59 -24t-77 -78zM379 -141q0 -48 -33 -85.5t-94 -49.5l-19 27q38 12 52.5 25.5t14.5 32.5q0 16 -27 26q-31 13 -31 48q0 23 18 39t47 16q34 0 53 -21.5t19 -57.5z" />
    <glyph glyph-name="kcommaaccent" unicode="&#x137;" horiz-adv-x="531" 
d="M29 0v34q44 3 57 15.5t13 54.5v480q0 53 -15 68t-61 17v32l140 29h15q12 -36 12 -99v-534q0 -38 12 -49.5t58 -13.5v-34h-231zM408 0l-209 262l137 140q24 25 16 39t-43 16v34h188v-34q-7 -1 -14.5 -3t-13.5 -4.5t-14 -8.5t-12.5 -9t-14 -12t-14 -13t-16 -15.5
l-16.5 -16.5l-92 -91l151 -190q43 -55 88 -60v-34h-121zM349 -141q0 -48 -33 -85.5t-94 -49.5l-19 27q38 12 52.5 25.5t14.5 32.5q0 16 -27 26q-31 13 -31 48q0 23 18 39t47 16q34 0 53 -21.5t19 -57.5z" />
    <glyph glyph-name="kgreenlandic" unicode="&#x138;" horiz-adv-x="531" 
d="M382 375l-92 -91l151 -190q43 -55 88 -60v-34h-121l-209 262l137 140q18 18 18 31q0 22 -45 24v34h188v-34q-7 -1 -14.5 -3t-13.5 -4.5t-14 -8.5t-12.5 -9t-14 -12t-14 -13t-16 -15.5zM260 0h-231v34q44 3 57 15.5t13 54.5v245q0 53 -14 68t-59 17v30l149 40h15v-400
q0 -43 11.5 -55.5t58.5 -14.5v-34z" />
    <glyph glyph-name="Lacute" unicode="&#x139;" horiz-adv-x="544" 
d="M212 576v-527h144q54 0 77.5 25.5t38.5 94.5h44l-15 -169h-464v35q49 1 64.5 16.5t15.5 59.5v467q0 44 -15.5 59.5t-64.5 16.5v35h260v-35q-52 -1 -68.5 -17.5t-16.5 -60.5zM101 727l-20 34l191 128l43 -92z" />
    <glyph glyph-name="lacute" unicode="&#x13a;" horiz-adv-x="294" 
d="M194 631v-524q0 -45 13 -58t61 -15v-34h-239v34q47 3 60.5 15.5t13.5 54.5v480q0 53 -15.5 68t-64.5 17v32l144 29h15q12 -36 12 -99zM48 745l-20 34l191 128l43 -92z" />
    <glyph glyph-name="Lcommaaccent" unicode="&#x13b;" horiz-adv-x="544" 
d="M212 576v-527h144q54 0 77.5 25.5t38.5 94.5h44l-15 -169h-464v35q49 1 64.5 16.5t15.5 59.5v467q0 44 -15.5 59.5t-64.5 16.5v35h260v-35q-52 -1 -68.5 -17.5t-16.5 -60.5zM349 -141q0 -48 -33 -85.5t-94 -49.5l-19 27q38 12 52.5 25.5t14.5 32.5q0 16 -27 26
q-31 13 -31 48q0 23 18 39t47 16q34 0 53 -21.5t19 -57.5z" />
    <glyph glyph-name="lcommaaccent" unicode="&#x13c;" horiz-adv-x="294" 
d="M194 631v-524q0 -45 13 -58t61 -15v-34h-239v34q47 3 60.5 15.5t13.5 54.5v480q0 53 -15.5 68t-64.5 17v32l144 29h15q12 -36 12 -99zM218 -141q0 -48 -33 -85.5t-94 -49.5l-19 27q38 12 52.5 25.5t14.5 32.5q0 16 -27 26q-31 13 -31 48q0 23 18 39t47 16q34 0 53 -21.5
t19 -57.5z" />
    <glyph glyph-name="Lcaron" unicode="&#x13d;" horiz-adv-x="544" 
d="M212 576v-527h144q54 0 77.5 25.5t38.5 94.5h44l-15 -169h-464v35q49 1 64.5 16.5t15.5 59.5v467q0 44 -15.5 59.5t-64.5 16.5v35h260v-35q-52 -1 -68.5 -17.5t-16.5 -60.5zM475 715l-62 -188l-44 11l15 192z" />
    <glyph glyph-name="lcaron" unicode="&#x13e;" horiz-adv-x="294" 
d="M194 631v-524q0 -45 13 -58t61 -15v-34h-239v34q47 3 60.5 15.5t13.5 54.5v480q0 53 -15.5 68t-64.5 17v32l144 29h15q12 -36 12 -99zM352 715l-62 -188l-44 11l15 192z" />
    <glyph glyph-name="Ldot" unicode="&#x13f;" horiz-adv-x="544" 
d="M212 576v-527h144q54 0 77.5 25.5t38.5 94.5h44l-15 -169h-464v35q49 1 64.5 16.5t15.5 59.5v467q0 44 -15.5 59.5t-64.5 16.5v35h260v-35q-52 -1 -68.5 -17.5t-16.5 -60.5zM520 375q0 -31 -21 -53t-50 -22t-49.5 22t-20.5 53t20.5 52.5t49.5 21.5t50 -21.5t21 -52.5z
" />
    <glyph glyph-name="ldot" unicode="&#x140;" horiz-adv-x="352" 
d="M194 631v-524q0 -45 13 -58t61 -15v-34h-239v34q47 3 60.5 15.5t13.5 54.5v480q0 53 -15.5 68t-64.5 17v32l144 29h15q12 -36 12 -99zM386 348q0 -26 -18.5 -45t-43.5 -19q-26 0 -44 19t-18 45q0 27 18 45t44 18t44 -18t18 -45z" />
    <glyph glyph-name="Lslash" unicode="&#x141;" horiz-adv-x="544" 
d="M212 576v-205l194 70v-50l-194 -69v-273h144q54 0 77.5 25.5t38.5 94.5h44l-15 -169h-464v35q49 1 64.5 16.5t15.5 59.5v177l-78 -28v49l78 28v241q0 44 -15.5 59.5t-64.5 16.5v35h260v-35q-52 -1 -68.5 -17.5t-16.5 -60.5z" />
    <glyph glyph-name="lslash" unicode="&#x142;" horiz-adv-x="294" 
d="M21 339l82 39v206q0 53 -15.5 68t-64.5 17v32l144 29h15q12 -34 12 -99v-210l83 40v-49l-83 -39v-266q0 -45 13 -58t61 -15v-34h-239v34q47 3 60.5 15.5t13.5 54.5v226l-82 -39v48z" />
    <glyph glyph-name="Nacute" unicode="&#x143;" horiz-adv-x="685" 
d="M516 333v245q0 44 -15.5 59.5t-64.5 16.5v35h219v-35q-45 -1 -58.5 -16.5t-13.5 -59.5v-578h-71l-250 408q-57 93 -84 170h-6q12 -81 12 -184v-283q0 -44 15.5 -59.5t64.5 -16.5v-35h-227v35q49 1 64.5 16.5t15.5 59.5v467q0 44 -15.5 59.5t-64.5 16.5v35h162l255 -418
q46 -76 68 -145h6q-12 72 -12 207zM249 727l-20 34l191 128l43 -92z" />
    <glyph glyph-name="nacute" unicode="&#x144;" horiz-adv-x="583" 
d="M492 369v-265q0 -42 12 -54.5t53 -15.5v-34h-226v34q46 2 58 13.5t12 49.5v254q0 82 -73 82t-138 -63v-273q0 -38 12 -49.5t58 -13.5v-34h-231v34q44 3 57 15.5t13 54.5v245q0 53 -14 68t-59 17v30l128 40h15q16 -35 17 -87q82 86 171 86q61 0 98 -35t37 -99zM196 566
l-20 34l179 153l53 -91z" />
    <glyph glyph-name="Ncommaaccent" unicode="&#x145;" horiz-adv-x="685" 
d="M516 333v245q0 44 -15.5 59.5t-64.5 16.5v35h219v-35q-45 -1 -58.5 -16.5t-13.5 -59.5v-578h-71l-250 408q-57 93 -84 170h-6q12 -81 12 -184v-283q0 -44 15.5 -59.5t64.5 -16.5v-35h-227v35q49 1 64.5 16.5t15.5 59.5v467q0 44 -15.5 59.5t-64.5 16.5v35h162l255 -418
q46 -76 68 -145h6q-12 72 -12 207zM419 -141q0 -48 -33 -85.5t-94 -49.5l-19 27q38 12 52.5 25.5t14.5 32.5q0 16 -27 26q-31 13 -31 48q0 23 18 39t47 16q34 0 53 -21.5t19 -57.5z" />
    <glyph glyph-name="ncommaaccent" unicode="&#x146;" horiz-adv-x="583" 
d="M492 369v-265q0 -42 12 -54.5t53 -15.5v-34h-226v34q46 2 58 13.5t12 49.5v254q0 82 -73 82t-138 -63v-273q0 -38 12 -49.5t58 -13.5v-34h-231v34q44 3 57 15.5t13 54.5v245q0 53 -14 68t-59 17v30l128 40h15q16 -35 17 -87q82 86 171 86q61 0 98 -35t37 -99zM364 -141
q0 -48 -33 -85.5t-94 -49.5l-19 27q38 12 52.5 25.5t14.5 32.5q0 16 -27 26q-31 13 -31 48q0 23 18 39t47 16q34 0 53 -21.5t19 -57.5z" />
    <glyph glyph-name="Ncaron" unicode="&#x147;" horiz-adv-x="685" 
d="M516 333v245q0 44 -15.5 59.5t-64.5 16.5v35h219v-35q-45 -1 -58.5 -16.5t-13.5 -59.5v-578h-71l-250 408q-57 93 -84 170h-6q12 -81 12 -184v-283q0 -44 15.5 -59.5t64.5 -16.5v-35h-227v35q49 1 64.5 16.5t15.5 59.5v467q0 44 -15.5 59.5t-64.5 16.5v35h162l255 -418
q46 -76 68 -145h6q-12 72 -12 207zM346 826l137 81l25 -30l-162 -149l-162 149l25 30z" />
    <glyph glyph-name="ncaron" unicode="&#x148;" horiz-adv-x="583" 
d="M492 369v-265q0 -42 12 -54.5t53 -15.5v-34h-226v34q46 2 58 13.5t12 49.5v254q0 82 -73 82t-138 -63v-273q0 -38 12 -49.5t58 -13.5v-34h-231v34q44 3 57 15.5t13 54.5v245q0 53 -14 68t-59 17v30l128 40h15q16 -35 17 -87q82 86 171 86q61 0 98 -35t37 -99zM291 645
l137 85l25 -30l-162 -153l-162 153l25 30z" />
    <glyph glyph-name="napostrophe" unicode="&#x149;" horiz-adv-x="583" 
d="M67 625q0 -48 -33 -85.5t-94 -49.5l-19 27q38 12 52.5 25.5t14.5 32.5q0 16 -27 26q-31 13 -31 48q0 23 18 39t47 16q34 0 53 -21.5t19 -57.5zM492 369v-265q0 -42 12 -54.5t53 -15.5v-34h-226v34q46 2 58 13.5t12 49.5v254q0 82 -73 82t-138 -63v-273q0 -38 12 -49.5
t58 -13.5v-34h-231v34q44 3 57 15.5t13 54.5v245q0 53 -14 68t-59 17v30l128 40h15q16 -35 17 -87q82 86 171 86q61 0 98 -35t37 -99z" />
    <glyph glyph-name="Eng" unicode="&#x14a;" horiz-adv-x="685" 
d="M494 29l-232 379q-57 93 -84 170h-6q12 -81 12 -184v-283q0 -44 15.5 -59.5t64.5 -16.5v-35h-227v35q49 1 64.5 16.5t15.5 59.5v467q0 44 -15.5 59.5t-64.5 16.5v35h162l255 -418q46 -76 68 -145h6q-12 72 -12 207v245q0 44 -15.5 59.5t-64.5 16.5v35h219v-35
q-45 -1 -58.5 -16.5t-13.5 -59.5v-512q0 -107 -41 -158t-148 -85l-24 37q69 35 94.5 71t29.5 98z" />
    <glyph glyph-name="eng" unicode="&#x14b;" horiz-adv-x="564" 
d="M401 12v339q0 82 -73 82t-138 -63v-273q0 -38 12 -49.5t58 -13.5v-34h-231v34q44 3 57 15.5t13 54.5v245q0 53 -14 68t-59 17v30l128 40h15q15 -35 17 -87q82 86 171 86q61 0 98 -35t37 -99v-358q0 -54 -9 -90t-31.5 -60t-42 -36t-59.5 -31l-29 40q45 21 62.5 60.5
t17.5 117.5z" />
    <glyph glyph-name="Omacron" unicode="&#x14c;" horiz-adv-x="674" 
d="M340 -11q-143 0 -219.5 98.5t-76.5 259.5q0 168 78.5 261t212.5 93q77 0 135 -29t92 -80t51 -114.5t17 -137.5q0 -160 -77.5 -255.5t-212.5 -95.5zM335 654q-98 0 -143.5 -73.5t-45.5 -222.5q0 -324 194 -324q186 0 186 297q0 161 -44.5 242t-146.5 81zM478 769h-281v57
h281v-57z" />
    <glyph glyph-name="omacron" unicode="&#x14d;" horiz-adv-x="532" 
d="M496 242q0 -117 -64 -185.5t-166 -68.5t-166 69.5t-64 189.5q0 119 63.5 189t164.5 70q108 0 170 -74t62 -190zM398 238q0 219 -134 219q-71 0 -100.5 -50.5t-29.5 -149.5q0 -115 31 -167.5t103 -52.5q64 0 97 52t33 149zM408 590h-281v57h281v-57z" />
    <glyph glyph-name="Obreve" unicode="&#x14e;" horiz-adv-x="674" 
d="M340 -11q-143 0 -219.5 98.5t-76.5 259.5q0 168 78.5 261t212.5 93q77 0 135 -29t92 -80t51 -114.5t17 -137.5q0 -160 -77.5 -255.5t-212.5 -95.5zM335 654q-98 0 -143.5 -73.5t-45.5 -222.5q0 -324 194 -324q186 0 186 297q0 161 -44.5 242t-146.5 81zM337 741
q-53 0 -99.5 41t-66.5 92l31 26q34 -40 64.5 -60.5t70.5 -20.5t70.5 20.5t64.5 60.5l31 -26q-20 -51 -66.5 -92t-99.5 -41z" />
    <glyph glyph-name="obreve" unicode="&#x14f;" horiz-adv-x="532" 
d="M496 242q0 -117 -64 -185.5t-166 -68.5t-166 69.5t-64 189.5q0 119 63.5 189t164.5 70q108 0 170 -74t62 -190zM398 238q0 219 -134 219q-71 0 -100.5 -50.5t-29.5 -149.5q0 -115 31 -167.5t103 -52.5q64 0 97 52t33 149zM268 567q-50 0 -92 41.5t-60 93.5l31 22
q53 -79 119 -79q65 0 119 79l32 -22q-18 -52 -59 -93.5t-90 -41.5z" />
    <glyph glyph-name="Ohungarumlaut" unicode="&#x150;" horiz-adv-x="674" 
d="M340 -11q-143 0 -219.5 98.5t-76.5 259.5q0 168 78.5 261t212.5 93q77 0 135 -29t92 -80t51 -114.5t17 -137.5q0 -160 -77.5 -255.5t-212.5 -95.5zM335 654q-98 0 -143.5 -73.5t-45.5 -222.5q0 -324 194 -324q186 0 186 297q0 161 -44.5 242t-146.5 81zM358 901l-96 -174
l-42 18l52 192zM538 873l-124 -152l-37 26l84 175z" />
    <glyph glyph-name="ohungarumlaut" unicode="&#x151;" horiz-adv-x="532" 
d="M496 242q0 -117 -64 -185.5t-166 -68.5t-166 69.5t-64 189.5q0 119 63.5 189t164.5 70q108 0 170 -74t62 -190zM398 238q0 219 -134 219q-71 0 -100.5 -50.5t-29.5 -149.5q0 -115 31 -167.5t103 -52.5q64 0 97 52t33 149zM308 770l-113 -207l-42 18l70 225zM492 740
l-145 -183l-37 26l104 208z" />
    <glyph glyph-name="OE" unicode="&#x152;" horiz-adv-x="926" 
d="M398 51h67v591h-69q-248 0 -248 -310q0 -158 64 -219.5t186 -61.5zM408 689h460l10 -150h-42q-17 60 -35.5 80.5t-60.5 20.5h-167v-256h93q47 0 65 14.5t21 56.5h41v-190h-41q-3 41 -21 56t-64 15h-94v-287h168q57 0 77.5 23t26.5 93h45v-165h-482q-179 0 -271.5 94
t-92.5 250q0 172 101 258.5t263 86.5z" />
    <glyph glyph-name="oe" unicode="&#x153;" horiz-adv-x="847" 
d="M653 49q69 0 133 42l21 -34q-88 -68 -178 -68q-60 0 -108.5 25t-73.5 69q-30 -45 -77 -70t-104 -25q-102 0 -166 69.5t-64 189.5q0 119 63.5 189t164.5 70q59 0 107 -25.5t74 -69.5q25 46 70.5 71t99.5 25q95 0 147.5 -62.5t52.5 -176.5v-27h-319q0 -105 38 -148.5
t119 -43.5zM398 238q0 219 -134 219q-71 0 -100.5 -50.5t-29.5 -149.5q0 -115 31 -167.5t103 -52.5q64 0 97 52t33 149zM613 459q-54 0 -82.5 -38.5t-33.5 -130.5h223q0 91 -25 130t-82 39z" />
    <glyph glyph-name="Racute" unicode="&#x154;" horiz-adv-x="611" 
d="M324 328v-4q62 -15 101 -66q17 -21 103 -165q18 -31 34.5 -44t52.5 -14v-35h-148q-98 191 -128 239q-30 47 -56.5 66.5t-70.5 20.5v-217q0 -41 16 -57t62 -17v-35h-253v35q49 1 64.5 16.5t15.5 59.5v467q0 44 -15.5 59.5t-64.5 16.5v35h248q249 0 249 -186
q0 -83 -58 -128t-152 -47zM433 502q0 79 -32.5 108.5t-109.5 29.5h-79v-278h74q71 0 109 32t38 108zM191 727l-20 34l191 128l43 -92z" />
    <glyph glyph-name="racute" unicode="&#x155;" horiz-adv-x="364" 
d="M186 390q66 117 136 117q17 0 30 -5l-22 -99q-12 5 -31 5q-61 0 -85 -28t-24 -101v-175q0 -43 14.5 -55.5t70.5 -14.5v-34h-246v34q44 3 57 15.5t13 54.5v245q0 53 -14 68t-59 17v30l128 40h15q17 -41 17 -114zM94 566l-20 34l179 153l53 -91z" />
    <glyph glyph-name="Rcommaaccent" unicode="&#x156;" horiz-adv-x="611" 
d="M324 328v-4q62 -15 101 -66q17 -21 103 -165q18 -31 34.5 -44t52.5 -14v-35h-148q-98 191 -128 239q-30 47 -56.5 66.5t-70.5 20.5v-217q0 -41 16 -57t62 -17v-35h-253v35q49 1 64.5 16.5t15.5 59.5v467q0 44 -15.5 59.5t-64.5 16.5v35h248q249 0 249 -186
q0 -83 -58 -128t-152 -47zM433 502q0 79 -32.5 108.5t-109.5 29.5h-79v-278h74q71 0 109 32t38 108zM383 -141q0 -48 -33 -85.5t-94 -49.5l-19 27q38 12 52.5 25.5t14.5 32.5q0 16 -27 26q-31 13 -31 48q0 23 18 39t47 16q34 0 53 -21.5t19 -57.5z" />
    <glyph glyph-name="rcommaaccent" unicode="&#x157;" horiz-adv-x="364" 
d="M186 390q66 117 136 117q17 0 30 -5l-22 -99q-12 5 -31 5q-61 0 -85 -28t-24 -101v-175q0 -43 14.5 -55.5t70.5 -14.5v-34h-246v34q44 3 57 15.5t13 54.5v245q0 53 -14 68t-59 17v30l128 40h15q17 -41 17 -114zM214 -141q0 -48 -33 -85.5t-94 -49.5l-19 27
q38 12 52.5 25.5t14.5 32.5q0 16 -27 26q-31 13 -31 48q0 23 18 39t47 16q34 0 53 -21.5t19 -57.5z" />
    <glyph glyph-name="Rcaron" unicode="&#x158;" horiz-adv-x="611" 
d="M324 328v-4q62 -15 101 -66q17 -21 103 -165q18 -31 34.5 -44t52.5 -14v-35h-148q-98 191 -128 239q-30 47 -56.5 66.5t-70.5 20.5v-217q0 -41 16 -57t62 -17v-35h-253v35q49 1 64.5 16.5t15.5 59.5v467q0 44 -15.5 59.5t-64.5 16.5v35h248q249 0 249 -186
q0 -83 -58 -128t-152 -47zM433 502q0 79 -32.5 108.5t-109.5 29.5h-79v-278h74q71 0 109 32t38 108zM288 826l137 81l25 -30l-162 -149l-162 149l25 30z" />
    <glyph glyph-name="rcaron" unicode="&#x159;" horiz-adv-x="364" 
d="M186 390q66 117 136 117q17 0 30 -5l-22 -99q-12 5 -31 5q-61 0 -85 -28t-24 -101v-175q0 -43 14.5 -55.5t70.5 -14.5v-34h-246v34q44 3 57 15.5t13 54.5v245q0 53 -14 68t-59 17v30l128 40h15q17 -41 17 -114zM194 645l137 85l25 -30l-162 -153l-162 153l25 30z" />
    <glyph glyph-name="Sacute" unicode="&#x15a;" horiz-adv-x="538" 
d="M245 -11q-119 0 -205 55v124h69q10 -70 41.5 -101t108.5 -31q147 0 147 130q0 61 -28 88.5t-101 49.5l-69 21q-78 24 -116.5 67t-38.5 114q0 87 60 141t163 54q120 0 189 -51v-107h-65q-10 55 -40 83t-97 28q-59 0 -93.5 -31t-34.5 -86q0 -53 26.5 -78t94.5 -46l70 -21
q167 -50 167 -191q0 -100 -64.5 -156t-183.5 -56zM183 727l-20 34l191 128l43 -92z" />
    <glyph glyph-name="sacute" unicode="&#x15b;" horiz-adv-x="431" 
d="M202 -12q-98 0 -165 42v97h67q5 -51 29.5 -72t77.5 -21q103 0 103 87q0 39 -20 57.5t-66 29.5l-59 14q-127 30 -127 139q0 68 50 106t125 38q80 0 150 -35v-90h-64q-15 79 -94 79q-44 0 -68 -20.5t-24 -56.5q0 -32 17.5 -50.5t62.5 -28.5l59 -14q71 -17 104 -49.5
t33 -86.5q0 -75 -51.5 -120t-139.5 -45zM119 566l-20 34l179 153l53 -91z" />
    <glyph glyph-name="Scircumflex" unicode="&#x15c;" horiz-adv-x="538" 
d="M245 -11q-119 0 -205 55v124h69q10 -70 41.5 -101t108.5 -31q147 0 147 130q0 61 -28 88.5t-101 49.5l-69 21q-78 24 -116.5 67t-38.5 114q0 87 60 141t163 54q120 0 189 -51v-107h-65q-10 55 -40 83t-97 28q-59 0 -93.5 -31t-34.5 -86q0 -53 26.5 -78t94.5 -46l70 -21
q167 -50 167 -191q0 -100 -64.5 -156t-183.5 -56zM417 728l-137 81l-137 -81l-25 30l162 149l162 -149z" />
    <glyph glyph-name="scircumflex" unicode="&#x15d;" horiz-adv-x="431" 
d="M202 -12q-98 0 -165 42v97h67q5 -51 29.5 -72t77.5 -21q103 0 103 87q0 39 -20 57.5t-66 29.5l-59 14q-127 30 -127 139q0 68 50 106t125 38q80 0 150 -35v-90h-64q-15 79 -94 79q-44 0 -68 -20.5t-24 -56.5q0 -32 17.5 -50.5t62.5 -28.5l59 -14q71 -17 104 -49.5
t33 -86.5q0 -75 -51.5 -120t-139.5 -45zM351 564l-137 85l-137 -85l-25 30l162 153l162 -153z" />
    <glyph glyph-name="Scedilla" unicode="&#x15e;" horiz-adv-x="538" 
d="M370 -113q0 -85 -99 -85q-44 0 -81 25l16 32q28 -18 62 -18q40 0 40 36q0 31 -70 33v21l16 58q-128 0 -214 55v124h69q10 -70 41.5 -101t108.5 -31q147 0 147 130q0 61 -28 88.5t-101 49.5l-69 21q-78 24 -116.5 67t-38.5 114q0 87 60 141t163 54q120 0 189 -51v-107h-65
q-10 55 -40 83t-97 28q-59 0 -93.5 -31t-34.5 -86q0 -53 26.5 -78t94.5 -46l70 -21q167 -50 167 -191q0 -89 -51.5 -143.5t-147.5 -65.5l-9 -31q44 -3 64.5 -23.5t20.5 -50.5z" />
    <glyph glyph-name="scedilla" unicode="&#x15f;" horiz-adv-x="431" 
d="M289 -113q0 -85 -99 -85q-44 0 -81 25l16 32q28 -18 62 -18q40 0 40 36q0 31 -70 33v21l16 58q-83 6 -136 41v97h67q5 -51 29.5 -72t77.5 -21q103 0 103 87q0 39 -20 57.5t-66 29.5l-59 14q-127 30 -127 139q0 68 50 106t125 38q80 0 150 -35v-90h-64q-15 79 -94 79
q-44 0 -68 -20.5t-24 -56.5q0 -32 17.5 -50.5t62.5 -28.5l59 -14q71 -17 104 -49.5t33 -86.5q0 -73 -49 -117.5t-132 -47.5l-8 -27q44 -3 64.5 -23.5t20.5 -50.5z" />
    <glyph glyph-name="Scaron" unicode="&#x160;" horiz-adv-x="538" 
d="M245 -11q-119 0 -205 55v124h69q10 -70 41.5 -101t108.5 -31q147 0 147 130q0 61 -28 88.5t-101 49.5l-69 21q-78 24 -116.5 67t-38.5 114q0 87 60 141t163 54q120 0 189 -51v-107h-65q-10 55 -40 83t-97 28q-59 0 -93.5 -31t-34.5 -86q0 -53 26.5 -78t94.5 -46l70 -21
q167 -50 167 -191q0 -100 -64.5 -156t-183.5 -56zM280 826l137 81l25 -30l-162 -149l-162 149l25 30z" />
    <glyph glyph-name="scaron" unicode="&#x161;" horiz-adv-x="431" 
d="M202 -12q-98 0 -165 42v97h67q5 -51 29.5 -72t77.5 -21q103 0 103 87q0 39 -20 57.5t-66 29.5l-59 14q-127 30 -127 139q0 68 50 106t125 38q80 0 150 -35v-90h-64q-15 79 -94 79q-44 0 -68 -20.5t-24 -56.5q0 -32 17.5 -50.5t62.5 -28.5l59 -14q71 -17 104 -49.5
t33 -86.5q0 -75 -51.5 -120t-139.5 -45zM214 645l137 85l25 -30l-162 -153l-162 153l25 30z" />
    <glyph glyph-name="Tcommaaccent" unicode="&#x162;" horiz-adv-x="551" 
d="M368 -113q0 -85 -99 -85q-44 0 -81 25l16 32q28 -18 62 -18q40 0 40 36q0 31 -70 33v21l20 69h-118v35q53 2 71.5 16t18.5 60v529h-77q-43 0 -57 -20t-27 -88h-47l8 157h495l8 -157h-47q-13 68 -27 88t-57 20h-77v-529q0 -46 18.5 -60t71.5 -16v-35h-119l-11 -39
q44 -3 64.5 -23.5t20.5 -50.5z" />
    <glyph glyph-name="tcommaaccent" unicode="&#x163;" horiz-adv-x="321" 
d="M298 491l-14 -55h-106v-302q0 -58 13 -77t51 -19q27 0 57 10l8 -36q-50 -26 -99 -26h-4l-7 -25q44 -3 64.5 -23.5t20.5 -50.5q0 -85 -99 -85q-44 0 -81 25l16 32q28 -18 62 -18q40 0 40 36q0 31 -70 33v21l17 60q-80 17 -80 130v315h-60v32l67 23q17 90 47 138l47 12
q-9 -65 -9 -150h119z" />
    <glyph glyph-name="Tcaron" unicode="&#x164;" horiz-adv-x="551" 
d="M28 689h495l8 -157h-47q-13 68 -27 88t-57 20h-77v-529q0 -46 18.5 -60t71.5 -16v-35h-275v35q53 2 71.5 16t18.5 60v529h-77q-43 0 -57 -20t-27 -88h-47zM276 826l137 81l25 -30l-162 -149l-162 149l25 30z" />
    <glyph glyph-name="tcaron" unicode="&#x165;" horiz-adv-x="321" 
d="M298 491l-14 -55h-106v-302q0 -58 13 -77t51 -19q27 0 57 10l8 -36q-50 -26 -99 -26q-59 0 -90 31.5t-31 103.5v315h-60v32l67 23q17 90 47 138l47 12q-9 -65 -9 -150h119zM360 715l-62 -188l-44 11l15 192z" />
    <glyph glyph-name="Tbar" unicode="&#x166;" horiz-adv-x="551" 
d="M28 689h495l8 -157h-47q-13 68 -27 88t-57 20h-77v-257h128v-46h-128v-226q0 -46 18.5 -60t71.5 -16v-35h-275v35q53 2 71.5 16t18.5 60v226h-120v46h120v257h-77q-43 0 -57 -20t-27 -88h-47z" />
    <glyph glyph-name="tbar" unicode="&#x167;" horiz-adv-x="321" 
d="M298 491l-14 -55h-106v-91h117v-41h-117v-170q0 -58 13 -77t51 -19q27 0 57 10l8 -36q-50 -26 -99 -26q-59 0 -90 31.5t-31 103.5v183h-60v41h60v91h-60v32l67 23q17 90 47 138l47 12q-9 -65 -9 -150h119z" />
    <glyph glyph-name="Utilde" unicode="&#x168;" horiz-adv-x="684" 
d="M517 224v354q0 44 -16 59.5t-69 16.5v35h224v-35q-45 -1 -58.5 -16.5t-13.5 -59.5v-354q0 -121 -59 -178t-175 -57q-247 0 -247 228v361q0 44 -14.5 59.5t-60.5 16.5v35h255v-35q-53 -1 -69 -16.5t-16 -59.5v-339q0 -103 36 -146.5t130 -43.5q83 0 118 40.5t35 134.5z
M424 818q45 0 73 45l36 -14q-32 -95 -109 -95q-38 0 -79 22t-59 22q-26 0 -41 -11.5t-30 -35.5l-34 13q25 100 105 100q35 0 75.5 -23t62.5 -23z" />
    <glyph glyph-name="utilde" unicode="&#x169;" horiz-adv-x="580" 
d="M481 504v-366q0 -53 14 -68t59 -17v-30l-121 -36h-15q-18 44 -22 89q-40 -43 -77.5 -65.5t-89.5 -22.5q-63 0 -100.5 33.5t-37.5 99.5v228q0 53 -13.5 68t-56.5 17v30l139 40h22v-366q0 -45 18.5 -63t56.5 -18q42 0 70.5 15.5t62.5 48.5v228q0 53 -13.5 68t-56.5 17v30
l139 40h22zM350 669q43 0 66 42l35 -15q-13 -43 -38.5 -72t-62.5 -29q-29 0 -68.5 14.5t-55.5 14.5q-40 0 -64 -44l-33 14q10 46 34.5 76t62.5 30q29 0 67 -15.5t57 -15.5z" />
    <glyph glyph-name="Umacron" unicode="&#x16a;" horiz-adv-x="684" 
d="M517 224v354q0 44 -16 59.5t-69 16.5v35h224v-35q-45 -1 -58.5 -16.5t-13.5 -59.5v-354q0 -121 -59 -178t-175 -57q-247 0 -247 228v361q0 44 -14.5 59.5t-60.5 16.5v35h255v-35q-53 -1 -69 -16.5t-16 -59.5v-339q0 -103 36 -146.5t130 -43.5q83 0 118 40.5t35 134.5z
M497 769h-281v57h281v-57z" />
    <glyph glyph-name="umacron" unicode="&#x16b;" horiz-adv-x="580" 
d="M481 504v-366q0 -53 14 -68t59 -17v-30l-121 -36h-15q-18 44 -22 89q-40 -43 -77.5 -65.5t-89.5 -22.5q-63 0 -100.5 33.5t-37.5 99.5v228q0 53 -13.5 68t-56.5 17v30l139 40h22v-366q0 -45 18.5 -63t56.5 -18q42 0 70.5 15.5t62.5 48.5v228q0 53 -13.5 68t-56.5 17v30
l139 40h22zM428 590h-281v57h281v-57z" />
    <glyph glyph-name="Ubreve" unicode="&#x16c;" horiz-adv-x="684" 
d="M517 224v354q0 44 -16 59.5t-69 16.5v35h224v-35q-45 -1 -58.5 -16.5t-13.5 -59.5v-354q0 -121 -59 -178t-175 -57q-247 0 -247 228v361q0 44 -14.5 59.5t-60.5 16.5v35h255v-35q-53 -1 -69 -16.5t-16 -59.5v-339q0 -103 36 -146.5t130 -43.5q83 0 118 40.5t35 134.5z
M356 741q-53 0 -99.5 41t-66.5 92l31 26q34 -40 64.5 -60.5t70.5 -20.5t70.5 20.5t64.5 60.5l31 -26q-20 -51 -66.5 -92t-99.5 -41z" />
    <glyph glyph-name="ubreve" unicode="&#x16d;" horiz-adv-x="580" 
d="M481 504v-366q0 -53 14 -68t59 -17v-30l-121 -36h-15q-18 44 -22 89q-40 -43 -77.5 -65.5t-89.5 -22.5q-63 0 -100.5 33.5t-37.5 99.5v228q0 53 -13.5 68t-56.5 17v30l139 40h22v-366q0 -45 18.5 -63t56.5 -18q42 0 70.5 15.5t62.5 48.5v228q0 53 -13.5 68t-56.5 17v30
l139 40h22zM288 567q-50 0 -92 41.5t-60 93.5l31 22q53 -79 119 -79q65 0 119 79l32 -22q-18 -52 -59 -93.5t-90 -41.5z" />
    <glyph glyph-name="Uring" unicode="&#x16e;" horiz-adv-x="684" 
d="M517 224v354q0 44 -16 59.5t-69 16.5v35h224v-35q-45 -1 -58.5 -16.5t-13.5 -59.5v-354q0 -121 -59 -178t-175 -57q-247 0 -247 228v361q0 44 -14.5 59.5t-60.5 16.5v35h255v-35q-53 -1 -69 -16.5t-16 -59.5v-339q0 -103 36 -146.5t130 -43.5q83 0 118 40.5t35 134.5z
M356 719q-44 0 -72.5 29t-28.5 73t28.5 73t72.5 29q45 0 73.5 -29t28.5 -73t-28.5 -73t-73.5 -29zM356 888q-27 0 -44 -19.5t-17 -48.5q0 -28 17 -46.5t44 -18.5q28 0 45 18.5t17 46.5q0 29 -17 48.5t-45 19.5z" />
    <glyph glyph-name="uring" unicode="&#x16f;" horiz-adv-x="580" 
d="M481 504v-366q0 -53 14 -68t59 -17v-30l-121 -36h-15q-18 44 -22 89q-40 -43 -77.5 -65.5t-89.5 -22.5q-63 0 -100.5 33.5t-37.5 99.5v228q0 53 -13.5 68t-56.5 17v30l139 40h22v-366q0 -45 18.5 -63t56.5 -18q42 0 70.5 15.5t62.5 48.5v228q0 53 -13.5 68t-56.5 17v30
l139 40h22zM287 560q-44 0 -72.5 29t-28.5 73t28.5 73t72.5 29q45 0 73.5 -29t28.5 -73t-28.5 -73t-73.5 -29zM287 729q-27 0 -44 -19.5t-17 -48.5q0 -28 17 -46.5t44 -18.5q28 0 45 18.5t17 46.5q0 29 -17 48.5t-45 19.5z" />
    <glyph glyph-name="Uhungarumlaut" unicode="&#x170;" horiz-adv-x="684" 
d="M517 224v354q0 44 -16 59.5t-69 16.5v35h224v-35q-45 -1 -58.5 -16.5t-13.5 -59.5v-354q0 -121 -59 -178t-175 -57q-247 0 -247 228v361q0 44 -14.5 59.5t-60.5 16.5v35h255v-35q-53 -1 -69 -16.5t-16 -59.5v-339q0 -103 36 -146.5t130 -43.5q83 0 118 40.5t35 134.5z
M377 901l-96 -174l-42 18l52 192zM557 873l-124 -152l-37 26l84 175z" />
    <glyph glyph-name="uhungarumlaut" unicode="&#x171;" horiz-adv-x="580" 
d="M481 504v-366q0 -53 14 -68t59 -17v-30l-121 -36h-15q-18 44 -22 89q-40 -43 -77.5 -65.5t-89.5 -22.5q-63 0 -100.5 33.5t-37.5 99.5v228q0 53 -13.5 68t-56.5 17v30l139 40h22v-366q0 -45 18.5 -63t56.5 -18q42 0 70.5 15.5t62.5 48.5v228q0 53 -13.5 68t-56.5 17v30
l139 40h22zM329 770l-113 -207l-42 18l70 225zM513 740l-145 -183l-37 26l104 208z" />
    <glyph glyph-name="Uogonek" unicode="&#x172;" horiz-adv-x="684" 
d="M480 -144l16 -24q-39 -37 -95 -37q-46 0 -72 23.5t-26 62.5q0 62 70 109q-8 -1 -23 -1q-247 0 -247 228v361q0 44 -14.5 59.5t-60.5 16.5v35h255v-35q-53 -1 -69 -16.5t-16 -59.5v-339q0 -103 36 -146.5t130 -43.5q83 0 118 40.5t35 134.5v354q0 44 -16 59.5t-69 16.5v35
h224v-35q-45 -1 -58.5 -16.5t-13.5 -59.5v-354q0 -165 -116 -214q-85 -36 -85 -115q0 -23 12 -37.5t32 -14.5q27 0 53 13z" />
    <glyph glyph-name="uogonek" unicode="&#x173;" horiz-adv-x="580" 
d="M513 -144l16 -24q-39 -37 -95 -37q-46 0 -72 23.5t-26 62.5q0 66 80 111q-17 44 -20 84q-40 -43 -77.5 -65.5t-89.5 -22.5q-63 0 -100.5 33.5t-37.5 99.5v228q0 53 -13.5 68t-56.5 17v30l139 40h22v-366q0 -45 18.5 -63t56.5 -18q42 0 70.5 15.5t62.5 48.5v228
q0 53 -13.5 68t-56.5 17v30l139 40h22v-366q0 -53 14 -68t59 -17v-30l-35 -10q-103 -31 -103 -118q0 -23 12 -37.5t32 -14.5q27 0 53 13z" />
    <glyph glyph-name="Wcircumflex" unicode="&#x174;" horiz-adv-x="897" 
d="M580 0l-109 438q-11 42 -21 121h-4q-11 -70 -23 -121l-103 -438h-96l-128 566q-11 49 -26.5 66.5t-53.5 21.5v35h241v-35q-38 -3 -54 -12.5t-16 -31.5q0 -13 3 -28l66 -298q16 -71 27 -176h6q22 108 38 176l97 405h75l101 -406q15 -60 40 -175h6q15 96 32 175l61 277
q5 25 5 41q0 28 -16.5 39.5t-56.5 13.5v35h209v-35q-35 -5 -51.5 -26.5t-28.5 -70.5l-128 -557h-92zM595 728l-137 81l-137 -81l-25 30l162 149l162 -149z" />
    <glyph glyph-name="wcircumflex" unicode="&#x175;" horiz-adv-x="747" 
d="M345 253l-74 -258h-73l-126 392q-12 40 -26 53t-44 17v34h214v-34q-19 -1 -29.5 -3.5t-19 -9t-8.5 -18.5q0 -10 5 -28l60 -199q13 -42 24 -99h4q11 52 24 98l80 293h63l95 -292q14 -42 24 -99h4q4 16 13 53t11 45l51 200q4 13 4 26q0 16 -12.5 24t-43.5 9v34h180v-34
q-32 -4 -45.5 -17.5t-24.5 -52.5l-114 -392h-71l-80 258q-10 33 -32 121h-4q-10 -53 -29 -121zM520 564l-137 85l-137 -85l-25 30l162 153l162 -153z" />
    <glyph glyph-name="Ycircumflex" unicode="&#x176;" horiz-adv-x="594" 
d="M319 345h4l108 234q12 27 12 43q0 29 -59 32v35h199v-35q-31 -4 -50.5 -21.5t-46.5 -71.5l-137 -279v-171q0 -44 16.5 -59.5t68.5 -16.5v-35h-265v35q52 1 68.5 16.5t16.5 59.5v165l-149 296q-23 46 -43 62t-51 20v35h238v-35q-53 -1 -53 -30q0 -16 14 -47zM448 728
l-137 81l-137 -81l-25 30l162 149l162 -149z" />
    <glyph glyph-name="ycircumflex" unicode="&#x177;" horiz-adv-x="505" 
d="M105 -213l-24 69q66 17 102 45t57 101l-36 -5q-22 89 -52 172l-80 218q-14 38 -29 52t-44 18v34h222v-34q-36 -1 -50 -8.5t-14 -22.5q0 -7 7 -28l72 -202q23 -65 35 -132h3q10 52 29 111l72 223q4 13 6 23q2 19 -11 27t-52 9v34h188v-34q-31 -4 -45 -17t-28 -53
l-140 -403q-32 -93 -73.5 -137.5t-114.5 -59.5zM407 564l-137 85l-137 -85l-25 30l162 153l162 -153z" />
    <glyph glyph-name="Ydieresis" unicode="&#x178;" horiz-adv-x="594" 
d="M319 345h4l108 234q12 27 12 43q0 29 -59 32v35h199v-35q-31 -4 -50.5 -21.5t-46.5 -71.5l-137 -279v-171q0 -44 16.5 -59.5t68.5 -16.5v-35h-265v35q52 1 68.5 16.5t16.5 59.5v165l-149 296q-23 46 -43 62t-51 20v35h238v-35q-53 -1 -53 -30q0 -16 14 -47zM267 787
q0 -25 -17.5 -42.5t-42.5 -17.5t-42.5 17.5t-17.5 42.5t17.5 42.5t42.5 17.5t42.5 -17.5t17.5 -42.5zM476 787q0 -25 -17 -42.5t-43 -17.5t-43 17.5t-17 42.5t17 42.5t43 17.5t43 -17.5t17 -42.5z" />
    <glyph glyph-name="Zacute" unicode="&#x179;" horiz-adv-x="519" 
d="M497 633l-374 -584h197q57 0 84 27t42 96h44l-15 -172h-451v56l374 584h-186q-49 0 -75.5 -26.5t-41.5 -86.5h-44l14 162h432v-56zM183 727l-20 34l191 128l43 -92z" />
    <glyph glyph-name="zacute" unicode="&#x17a;" horiz-adv-x="455" 
d="M432 153l-24 -153h-368v49l281 393h-122q-50 0 -68 -18t-26 -75h-43v142h358v-53l-278 -389h111q67 0 89 18.5t45 85.5h45zM151 566l-20 34l179 153l53 -91z" />
    <glyph glyph-name="Zdotaccent" unicode="&#x17b;" horiz-adv-x="519" 
d="M497 633l-374 -584h197q57 0 84 27t42 96h44l-15 -172h-451v56l374 584h-186q-49 0 -75.5 -26.5t-41.5 -86.5h-44l14 162h432v-56zM341 808q0 -26 -18 -44.5t-44 -18.5t-44 18.5t-18 44.5t18 44.5t44 18.5t44 -18.5t18 -44.5z" />
    <glyph glyph-name="zdotaccent" unicode="&#x17c;" horiz-adv-x="455" 
d="M432 153l-24 -153h-368v49l281 393h-122q-50 0 -68 -18t-26 -75h-43v142h358v-53l-278 -389h111q67 0 89 18.5t45 85.5h45zM310 644q0 -26 -18 -44.5t-44 -18.5t-44 18.5t-18 44.5t18 44.5t44 18.5t44 -18.5t18 -44.5z" />
    <glyph glyph-name="Zcaron" unicode="&#x17d;" horiz-adv-x="519" 
d="M497 633l-374 -584h197q57 0 84 27t42 96h44l-15 -172h-451v56l374 584h-186q-49 0 -75.5 -26.5t-41.5 -86.5h-44l14 162h432v-56zM280 826l137 81l25 -30l-162 -149l-162 149l25 30z" />
    <glyph glyph-name="zcaron" unicode="&#x17e;" horiz-adv-x="455" 
d="M432 153l-24 -153h-368v49l281 393h-122q-50 0 -68 -18t-26 -75h-43v142h358v-53l-278 -389h111q67 0 89 18.5t45 85.5h45zM247 645l137 85l25 -30l-162 -153l-162 153l25 30z" />
    <glyph glyph-name="longs" unicode="&#x17f;" horiz-adv-x="316" 
d="M190 586v-482q0 -41 16 -54.5t73 -15.5v-34h-250v34q44 3 57 15.5t13 54.5v332h-63v32l63 23v94q0 68 43.5 106.5t115.5 38.5q55 0 98 -18v-83h-61q-8 52 -46 52q-59 0 -59 -95z" />
    <glyph glyph-name="uni018F" unicode="&#x18f;" horiz-adv-x="608" 
d="M266 632q-96 0 -182 -68l-24 34q92 103 229 103q134 0 204.5 -95t70.5 -265q0 -169 -67.5 -260.5t-198.5 -91.5q-115 0 -183 73t-68 194q0 54 11 97h406q-3 145 -51.5 212t-146.5 67zM298 34q93 0 129.5 69.5t36.5 200.5h-318q-3 -30 -3 -58q0 -103 40.5 -157.5
t114.5 -54.5z" />
    <glyph glyph-name="florin" unicode="&#x192;" horiz-adv-x="326" 
d="M37 383l3 34l73 13l7 111q5 78 49 119t117 41q59 0 100 -18l-7 -83h-64q-7 58 -41 58q-61 0 -67 -88l-11 -143h116v-44h-120l-32 -427q-5 -69 -45 -112t-107 -43l-7 26q39 12 56.5 39t21.5 85l30 432h-72z" />
    <glyph glyph-name="uni01B5" unicode="&#x1b5;" horiz-adv-x="519" 
d="M497 633l-162 -250h116v-46h-145l-186 -288h200q57 0 84 27t42 96h44l-15 -172h-451v56l181 281h-117v46h147l166 257h-189q-49 0 -75.5 -26.5t-41.5 -86.5h-44l14 162h432v-56z" />
    <glyph glyph-name="uni01B6" unicode="&#x1b6;" horiz-adv-x="455" 
d="M432 153l-24 -153h-368v49l135 189h-93v41h122l117 163h-122q-50 0 -68 -18t-26 -75h-43v142h358v-53l-114 -159h84v-41h-113l-135 -189h111q67 0 89 18.5t45 85.5h45z" />
    <glyph glyph-name="Aringacute" unicode="&#x1fa;" horiz-adv-x="657" 
d="M227 910l-20 34l191 128l43 -92zM459 107l-33 108h-230l-33 -108q-6 -21 -6 -35q0 -21 16 -28t57 -9v-35h-214v35q36 3 53 19.5t33 66.5l184 568h89l182 -566q15 -47 31.5 -66t52.5 -22v-35h-245v35q36 2 52 11.5t16 30.5q0 13 -5 30zM257 411l-46 -148h201l-45 148
q-31 101 -52 191h-4q-40 -146 -54 -191zM329 710q-44 0 -72.5 29t-28.5 73t28.5 73t72.5 29q45 0 73.5 -29t28.5 -73t-28.5 -73t-73.5 -29zM329 879q-27 0 -44 -19.5t-17 -48.5q0 -28 17 -46.5t44 -18.5q28 0 45 18.5t17 46.5q0 29 -17 48.5t-45 19.5z" />
    <glyph glyph-name="aringacute" unicode="&#x1fb;" horiz-adv-x="512" 
d="M420 131q0 -57 13 -73t61 -20v-33q-27 -11 -69 -11q-49 0 -68 17.5t-23 53.5q-17 -30 -52 -55t-85 -25q-73 0 -117 37.5t-44 105.5q0 161 262 161q22 0 35 -1v44q0 67 -19.5 95.5t-71.5 28.5q-100 0 -116 -90h-63v89q93 51 187 51q174 0 174 -168q0 -7 -2 -80.5
t-2 -126.5zM331 240q-28 2 -35 2q-86 0 -124.5 -25t-38.5 -82q0 -52 20.5 -72.5t65.5 -20.5q67 0 109 73zM255 547q-44 0 -72.5 29t-28.5 73t28.5 73t72.5 29q45 0 73.5 -29t28.5 -73t-28.5 -73t-73.5 -29zM255 716q-27 0 -44 -19.5t-17 -48.5q0 -28 17 -46.5t44 -18.5
q28 0 45 18.5t17 46.5q0 29 -17 48.5t-45 19.5zM158 768l-20 34l191 128l43 -92z" />
    <glyph glyph-name="AEacute" unicode="&#x1fc;" horiz-adv-x="904" 
d="M109 105l253 476q11 20 11 35q0 35 -73 38v35h546l10 -150h-42q-17 60 -35.5 80.5t-60.5 20.5h-167v-256h93q47 0 65 14.5t21 56.5h41v-190h-41q-3 41 -21 56t-64 15h-94v-287h168q57 0 77.5 23t26.5 93h45v-165h-492v35q49 1 64.5 16.5t15.5 59.5v134h-207l-77 -145
q-13 -24 -13 -36q0 -26 57 -29v-35h-200v35q36 3 53.5 16t39.5 54zM457 643l-184 -350h183v164q0 71 5 186h-4zM513 727l-20 34l191 128l43 -92z" />
    <glyph glyph-name="aeacute" unicode="&#x1fd;" horiz-adv-x="770" 
d="M390 446q59 61 148 61q95 0 147.5 -62.5t52.5 -176.5v-27h-319q1 -106 38.5 -149t118.5 -43q69 0 133 42l21 -34q-88 -68 -178 -68q-120 0 -180 83q-56 -83 -175 -83q-74 0 -117.5 36t-43.5 103q0 162 262 162h29v46q-1 66 -18 93t-67 27q-100 0 -116 -90h-63v89
q93 51 187 51q102 0 140 -60zM536 459q-54 0 -82.5 -38.5t-33.5 -130.5h223q0 91 -25 130t-82 39zM219 49q77 0 126 72q-17 42 -19 120h-30q-86 0 -124.5 -24.5t-38.5 -81.5q0 -86 86 -86zM325 566l-20 34l179 153l53 -91z" />
    <glyph glyph-name="Oslashacute" unicode="&#x1fe;" horiz-adv-x="674" 
d="M585 726l-57 -95q102 -96 102 -291q0 -160 -77.5 -255.5t-212.5 -95.5q-98 0 -166 48l-58 -98l-40 22l62 106q-94 95 -94 280q0 168 78.5 261t212.5 93q88 0 154 -40l53 88zM526 331q0 152 -39 231l-279 -469q47 -59 132 -59q186 0 186 297zM335 654q-98 0 -143.5 -73.5
t-45.5 -222.5q0 -142 35 -219l276 467q-46 48 -122 48zM240 727l-20 34l191 128l43 -92z" />
    <glyph glyph-name="oslashacute" unicode="&#x1ff;" horiz-adv-x="532" 
d="M468 539l-53 -88q81 -72 81 -209q0 -117 -64 -185.5t-166 -68.5q-62 0 -114 27l-52 -87l-37 22l54 90q-81 70 -81 207q0 119 63.5 189t164.5 70q64 0 114 -28l50 84zM134 257q0 -101 22 -151l191 320q-32 31 -83 31q-71 0 -100.5 -50.5t-29.5 -149.5zM398 238
q0 94 -24 146l-191 -318q29 -29 85 -29q64 0 97 52t33 149zM170 566l-20 34l179 153l53 -91z" />
    <glyph glyph-name="Scommaaccent" unicode="&#x218;" horiz-adv-x="538" 
d="M245 -11q-119 0 -205 55v124h69q10 -70 41.5 -101t108.5 -31q147 0 147 130q0 61 -28 88.5t-101 49.5l-69 21q-78 24 -116.5 67t-38.5 114q0 87 60 141t163 54q120 0 189 -51v-107h-65q-10 55 -40 83t-97 28q-59 0 -93.5 -31t-34.5 -86q0 -53 26.5 -78t94.5 -46l70 -21
q167 -50 167 -191q0 -100 -64.5 -156t-183.5 -56zM353 -141q0 -48 -33 -85.5t-94 -49.5l-19 27q38 12 52.5 25.5t14.5 32.5q0 16 -27 26q-31 13 -31 48q0 23 18 39t47 16q34 0 53 -21.5t19 -57.5z" />
    <glyph glyph-name="scommaaccent" unicode="&#x219;" horiz-adv-x="431" 
d="M202 -12q-98 0 -165 42v97h67q5 -51 29.5 -72t77.5 -21q103 0 103 87q0 39 -20 57.5t-66 29.5l-59 14q-127 30 -127 139q0 68 50 106t125 38q80 0 150 -35v-90h-64q-15 79 -94 79q-44 0 -68 -20.5t-24 -56.5q0 -32 17.5 -50.5t62.5 -28.5l59 -14q71 -17 104 -49.5
t33 -86.5q0 -75 -51.5 -120t-139.5 -45zM288 -141q0 -48 -33 -85.5t-94 -49.5l-19 27q38 12 52.5 25.5t14.5 32.5q0 16 -27 26q-31 13 -31 48q0 23 18 39t47 16q34 0 53 -21.5t19 -57.5z" />
    <glyph glyph-name="uni021A" unicode="&#x21a;" horiz-adv-x="551" 
d="M28 689h495l8 -157h-47q-13 68 -27 88t-57 20h-77v-529q0 -46 18.5 -60t71.5 -16v-35h-275v35q53 2 71.5 16t18.5 60v529h-77q-43 0 -57 -20t-27 -88h-47zM349 -141q0 -48 -33 -85.5t-94 -49.5l-19 27q38 12 52.5 25.5t14.5 32.5q0 16 -27 26q-31 13 -31 48q0 23 18 39
t47 16q34 0 53 -21.5t19 -57.5z" />
    <glyph glyph-name="uni021B" unicode="&#x21b;" horiz-adv-x="321" 
d="M298 491l-14 -55h-106v-302q0 -58 13 -77t51 -19q27 0 57 10l8 -36q-50 -26 -99 -26q-59 0 -90 31.5t-31 103.5v315h-60v32l67 23q17 90 47 138l47 12q-9 -65 -9 -150h119zM233 -141q0 -48 -33 -85.5t-94 -49.5l-19 27q38 12 52.5 25.5t14.5 32.5q0 16 -27 26
q-31 13 -31 48q0 23 18 39t47 16q34 0 53 -21.5t19 -57.5z" />
    <glyph glyph-name="uni0237" unicode="&#x237;" horiz-adv-x="269" 
d="M99 12v337q0 53 -14 68t-59 17v30l149 40h15v-493q0 -54 -9 -90t-31.5 -60t-42 -36t-59.5 -31l-29 40q45 21 62.5 60.5t17.5 117.5z" />
    <glyph glyph-name="uni0259" unicode="&#x259;" horiz-adv-x="483" 
d="M198 444q-73 0 -137 -42l-21 34q83 70 186 70q102 0 161.5 -69t59.5 -191q0 -120 -60 -189t-155 -69q-91 0 -145 54.5t-54 155.5q0 32 6 56h312q0 102 -37.5 146t-115.5 44zM234 36q54 0 82.5 38.5t33.5 130.5h-223v-21q0 -77 26.5 -112.5t80.5 -35.5z" />
    <glyph glyph-name="uni02BB" unicode="&#x2bb;" horiz-adv-x="267" 
d="M59 537q0 59 36 104.5t98 63.5l21 -29q-81 -31 -81 -80q0 -12 7 -18t28 -14q41 -15 41 -57q0 -29 -20.5 -49t-50.5 -20q-35 0 -57 28t-22 71z" />
    <glyph glyph-name="afii57929" unicode="&#x2bc;" horiz-adv-x="267" 
d="M208 605q0 -59 -36 -104.5t-98 -63.5l-21 29q81 31 81 80q0 12 -7 18t-23 12q-46 17 -46 59q0 29 20.5 49t50.5 20q35 0 57 -28t22 -71z" />
    <glyph glyph-name="circumflex" unicode="&#x2c6;" horiz-adv-x="484" 
d="M379 564l-137 85l-137 -85l-25 30l162 153l162 -153z" />
    <glyph glyph-name="caron" unicode="&#x2c7;" horiz-adv-x="484" 
d="M242 645l137 85l25 -30l-162 -153l-162 153l25 30z" />
    <glyph glyph-name="breve" unicode="&#x2d8;" horiz-adv-x="461" 
d="M232 567q-50 0 -92 41.5t-60 93.5l31 22q53 -79 119 -79q65 0 119 79l32 -22q-18 -52 -59 -93.5t-90 -41.5z" />
    <glyph glyph-name="dotaccent" unicode="&#x2d9;" horiz-adv-x="284" 
d="M204 644q0 -26 -18 -44.5t-44 -18.5t-44 18.5t-18 44.5t18 44.5t44 18.5t44 -18.5t18 -44.5z" />
    <glyph glyph-name="ring" unicode="&#x2da;" horiz-adv-x="363" 
d="M181 560q-44 0 -72.5 29t-28.5 73t28.5 73t72.5 29q45 0 73.5 -29t28.5 -73t-28.5 -73t-73.5 -29zM181 729q-27 0 -44 -19.5t-17 -48.5q0 -28 17 -46.5t44 -18.5q28 0 45 18.5t17 46.5q0 29 -17 48.5t-45 19.5z" />
    <glyph glyph-name="ogonek" unicode="&#x2db;" horiz-adv-x="288" 
d="M224 -144l16 -24q-39 -37 -95 -37q-46 0 -72 23.5t-26 62.5q0 86 127 138l21 -16q-68 -39 -68 -108q0 -23 12 -37.5t32 -14.5q27 0 53 13z" />
    <glyph glyph-name="tilde" unicode="&#x2dc;" horiz-adv-x="482" 
d="M301 669q43 0 66 42l35 -15q-13 -43 -38.5 -72t-62.5 -29q-29 0 -68.5 14.5t-55.5 14.5q-40 0 -64 -44l-33 14q10 46 34.5 76t62.5 30q29 0 67 -15.5t57 -15.5z" />
    <glyph glyph-name="hungarumlaut" unicode="&#x2dd;" horiz-adv-x="499" 
d="M235 770l-113 -207l-42 18l70 225zM419 740l-145 -183l-37 26l104 208z" />
    <glyph glyph-name="gravecomb" unicode="&#x300;" 
d="M-163 600l-20 -34l-212 96l53 91z" />
    <glyph glyph-name="acutecomb" unicode="&#x301;" 
d="M-361 566l-20 34l179 153l53 -91z" />
    <glyph glyph-name="uni0302" unicode="&#x302;" 
d="M-129 564l-137 85l-137 -85l-25 30l162 153l162 -153z" />
    <glyph glyph-name="tildecomb" unicode="&#x303;" 
d="M-202 669q43 0 66 42l35 -15q-13 -43 -38.5 -72t-62.5 -29q-29 0 -68.5 14.5t-55.5 14.5q-40 0 -64 -44l-33 14q10 46 34.5 76t62.5 30q29 0 67 -15.5t57 -15.5z" />
    <glyph glyph-name="uni0304" unicode="&#x304;" 
d="M-79 616h-281v57h281v-57z" />
    <glyph glyph-name="uni0306" unicode="&#x306;" 
d="M-228 547q-50 0 -92 41.5t-60 93.5l31 22q53 -79 119 -79q65 0 119 79l32 -22q-18 -52 -59 -93.5t-90 -41.5z" />
    <glyph glyph-name="uni0307" unicode="&#x307;" 
d="M-85 644q0 -26 -18 -44.5t-44 -18.5t-44 18.5t-18 44.5t18 44.5t44 18.5t44 -18.5t18 -44.5z" />
    <glyph glyph-name="uni0308" unicode="&#x308;" 
d="M-288 638q0 -26 -17 -43t-43 -17t-43 17t-17 43t17 43t43 17t43 -17t17 -43zM-79 638q0 -26 -17.5 -43t-42.5 -17t-42.5 17t-17.5 43t17.5 43t42.5 17t42.5 -17t17.5 -43z" />
    <glyph glyph-name="uni030A" unicode="&#x30a;" 
d="M-181 560q-44 0 -72.5 29t-28.5 73t28.5 73t72.5 29q45 0 73.5 -29t28.5 -73t-28.5 -73t-73.5 -29zM-181 729q-27 0 -44 -19.5t-17 -48.5q0 -28 17 -46.5t44 -18.5q28 0 45 18.5t17 46.5q0 29 -17 48.5t-45 19.5z" />
    <glyph glyph-name="uni030B" unicode="&#x30b;" 
d="M-263 779l-113 -207l-42 18l70 225zM-79 749l-145 -183l-37 26l104 208z" />
    <glyph glyph-name="uni030C" unicode="&#x30c;" 
d="M-207 645l137 85l25 -30l-162 -153l-162 153l25 30z" />
    <glyph glyph-name="uni0312" unicode="&#x312;" 
d="M-232 645q0 48 33 85.5t94 49.5l19 -27q-38 -12 -52.5 -25.5t-14.5 -32.5q0 -16 27 -26q31 -13 31 -48q0 -23 -18 -39t-47 -16q-34 0 -53 21.5t-19 57.5z" />
    <glyph glyph-name="uni0313" unicode="&#x313;" 
d="M-88 715l-62 -188l-44 11l15 192z" />
    <glyph glyph-name="dotbelowcomb" unicode="&#x323;" 
d="M200 -116q0 -26 -18 -44.5t-44 -18.5t-44 18.5t-18 44.5t18 44.5t44 18.5t44 -18.5t18 -44.5z" />
    <glyph glyph-name="uni0326" unicode="&#x326;" 
d="M218 -141q0 -48 -33 -85.5t-94 -49.5l-19 27q38 12 52.5 25.5t14.5 32.5q0 16 -27 26q-31 13 -31 48q0 23 18 39t47 16q34 0 53 -21.5t19 -57.5z" />
    <glyph glyph-name="uni0327" unicode="&#x327;" 
d="M-54 -113q0 -85 -99 -85q-44 0 -81 25l16 32q28 -18 62 -18q40 0 40 36q0 31 -70 33v21l23 80l37 -6l-13 -44q44 -3 64.5 -23.5t20.5 -50.5z" />
    <glyph glyph-name="uni0328" unicode="&#x328;" 
d="M-63 -137l16 -24q-39 -37 -95 -37q-46 0 -72 23.5t-26 62.5q0 86 127 138l21 -16q-68 -39 -68 -108q0 -23 12 -37.5t32 -14.5q27 0 53 13z" />
    <glyph glyph-name="uni0335" unicode="&#x335;" 
d="M-79 217h-281v57h281v-57z" />
    <glyph glyph-name="uni0336" unicode="&#x336;" 
d="M-54 220h-705v51h705v-51z" />
    <glyph glyph-name="uni037E" unicode="&#x37e;" horiz-adv-x="327" 
d="M238 31q0 -59 -39.5 -107.5t-103.5 -66.5l-20 31q42 16 65 38.5t23 44.5q0 4 -0.5 7t-3 6t-4 5t-5.5 4t-6.5 3t-8 4t-8.5 4q-42 19 -42 58q0 29 21 49.5t51 20.5q35 0 58 -28.5t23 -72.5zM227 373q0 -31 -20 -52t-51 -21t-51 21t-20 52t20 52t51 21t51 -21t20 -52z" />
    <glyph glyph-name="tonos" unicode="&#x384;" horiz-adv-x="392" 
d="M192 545l-52 4l39 191l90 -21z" />
    <glyph glyph-name="dieresistonos" unicode="&#x385;" horiz-adv-x="489" 
d="M165 608q0 -26 -17.5 -43t-42.5 -17t-42.5 17t-17.5 43t17.5 43t42.5 17t42.5 -17t17.5 -43zM444 608q0 -26 -17 -43t-43 -17t-43 17t-17 43t17 43t43 17t43 -17t17 -43zM260 571l-52 4l25 192l90 -21z" />
    <glyph glyph-name="Alphatonos" unicode="&#x386;" horiz-adv-x="657" 
d="M459 107l-33 108h-230l-33 -108q-6 -21 -6 -35q0 -21 16 -28t57 -9v-35h-214v35q36 3 53 19.5t33 66.5l184 568h89l182 -566q15 -47 31.5 -66t52.5 -22v-35h-245v35q36 2 52 11.5t16 30.5q0 13 -5 30zM257 411l-46 -148h201l-45 148q-31 101 -52 191h-4
q-40 -146 -54 -191zM137 510l-52 4l39 191l90 -21z" />
    <glyph glyph-name="anoteleia" unicode="&#x387;" horiz-adv-x="291" 
d="M216 278q0 -31 -21 -53t-50 -22t-49.5 22t-20.5 53t20.5 52.5t49.5 21.5t50 -21.5t21 -52.5z" />
    <glyph glyph-name="Epsilontonos" unicode="&#x388;" horiz-adv-x="565" 
d="M37 0v35q49 1 64.5 16.5t15.5 59.5v467q0 44 -15.5 59.5t-64.5 16.5v35h470l10 -150h-42q-17 60 -35.5 80.5t-60.5 20.5h-167v-256h93q47 0 65 14.5t21 56.5h41v-190h-41q-3 41 -21 56t-64 15h-94v-287h168q57 0 77.5 23t26.5 93h45v-165h-492zM-59 510l-52 4l39 191
l90 -21z" />
    <glyph glyph-name="Etatonos" unicode="&#x389;" horiz-adv-x="708" 
d="M496 111v229h-284v-229q0 -44 15.5 -59.5t64.5 -16.5v-35h-255v35q49 1 64.5 16.5t15.5 59.5v467q0 44 -15.5 59.5t-64.5 16.5v35h255v-35q-49 -1 -64.5 -16.5t-15.5 -59.5v-188h284v188q0 44 -15.5 59.5t-64.5 16.5v35h255v-35q-49 -1 -64.5 -16.5t-15.5 -59.5v-467
q0 -44 15.5 -59.5t64.5 -16.5v-35h-255v35q49 1 64.5 16.5t15.5 59.5zM-59 510l-52 4l39 191l90 -21z" />
    <glyph glyph-name="Iotatonos" unicode="&#x38a;" horiz-adv-x="329" 
d="M117 111v467q0 44 -15.5 59.5t-64.5 16.5v35h255v-35q-49 -1 -64.5 -16.5t-15.5 -59.5v-467q0 -44 15.5 -59.5t64.5 -16.5v-35h-255v35q49 1 64.5 16.5t15.5 59.5zM-59 510l-52 4l39 191l90 -21z" />
    <glyph glyph-name="Omicrontonos" unicode="&#x38c;" horiz-adv-x="674" 
d="M340 -11q-143 0 -219.5 98.5t-76.5 259.5q0 168 78.5 261t212.5 93q77 0 135 -29t92 -80t51 -114.5t17 -137.5q0 -160 -77.5 -255.5t-212.5 -95.5zM335 654q-98 0 -143.5 -73.5t-45.5 -222.5q0 -324 194 -324q186 0 186 297q0 161 -44.5 242t-146.5 81zM21 510l-52 4
l39 191l90 -21z" />
    <glyph glyph-name="Upsilontonos" unicode="&#x38e;" horiz-adv-x="594" 
d="M319 345h4l108 234q12 27 12 43q0 29 -59 32v35h199v-35q-31 -4 -50.5 -21.5t-46.5 -71.5l-137 -279v-171q0 -44 16.5 -59.5t68.5 -16.5v-35h-265v35q52 1 68.5 16.5t16.5 59.5v165l-149 296q-23 46 -43 62t-51 20v35h238v-35q-53 -1 -53 -30q0 -16 14 -47zM-85 510
l-52 4l39 191l90 -21z" />
    <glyph glyph-name="Omegatonos" unicode="&#x38f;" horiz-adv-x="700" 
d="M350 656q-96 0 -142 -72t-46 -200q0 -109 34.5 -185.5t114.5 -134.5v-64h-260l-13 151h40q12 -51 29 -63.5t75 -12.5h53q-175 128 -175 308q0 136 79 227t211 91t211 -91t79 -227q0 -180 -175 -308h53q58 0 75 12.5t29 63.5h40l-13 -151h-260v64q80 58 114.5 134.5
t34.5 185.5q0 272 -188 272zM41 510l-52 4l39 191l90 -21z" />
    <glyph glyph-name="iotadieresistonos" unicode="&#x390;" horiz-adv-x="275" 
d="M170 504v-382q0 -38 11 -56t44 -18q13 0 36 3v-38q-39 -22 -94 -22q-91 0 -91 131v192q0 132 -3 175l78 15h19zM58 608q0 -26 -17 -43t-43 -17t-43 17t-17 43t17 43t43 17t43 -17t17 -43zM337 608q0 -26 -17.5 -43t-42.5 -17t-42.5 17t-17.5 43t17.5 43t42.5 17t42.5 -17
t17.5 -43zM153 571l-52 4l25 192l90 -21z" />
    <glyph glyph-name="Alpha" unicode="&#x391;" horiz-adv-x="657" 
d="M459 107l-33 108h-230l-33 -108q-6 -21 -6 -35q0 -21 16 -28t57 -9v-35h-214v35q36 3 53 19.5t33 66.5l184 568h89l182 -566q15 -47 31.5 -66t52.5 -22v-35h-245v35q36 2 52 11.5t16 30.5q0 13 -5 30zM257 411l-46 -148h201l-45 148q-31 101 -52 191h-4
q-40 -146 -54 -191z" />
    <glyph glyph-name="Beta" unicode="&#x392;" horiz-adv-x="607" 
d="M37 0v35q49 1 64.5 16.5t15.5 59.5v467q0 44 -15.5 59.5t-64.5 16.5v35h252q131 0 190.5 -42.5t59.5 -127.5q0 -117 -126 -149v-4q80 -12 120.5 -60t40.5 -117q0 -94 -68 -141.5t-173 -47.5h-296zM212 49h127q78 0 106.5 33.5t28.5 112.5q0 78 -32 109t-120 31h-110v-286
zM212 383h103q71 0 99.5 30t28.5 95q0 73 -29.5 102.5t-102.5 29.5h-99v-257z" />
    <glyph glyph-name="Gamma" unicode="&#x393;" horiz-adv-x="520" 
d="M212 640v-527q0 -44 18 -60.5t70 -17.5v-35h-263v35q49 1 64.5 16.5t15.5 59.5v467q0 44 -15.5 59.5t-64.5 16.5v35h456l15 -161h-44q-15 65 -38.5 88.5t-77.5 23.5h-136z" />
    <glyph glyph-name="uni0394" unicode="&#x394;" horiz-adv-x="573" 
d="M79 54h367l-148 432q-22 63 -32 116h-4q-7 -38 -34 -118zM555 0h-543v35l226 654h87l230 -654v-35z" />
    <glyph glyph-name="Epsilon" unicode="&#x395;" horiz-adv-x="565" 
d="M37 0v35q49 1 64.5 16.5t15.5 59.5v467q0 44 -15.5 59.5t-64.5 16.5v35h470l10 -150h-42q-17 60 -35.5 80.5t-60.5 20.5h-167v-256h93q47 0 65 14.5t21 56.5h41v-190h-41q-3 41 -21 56t-64 15h-94v-287h168q57 0 77.5 23t26.5 93h45v-165h-492z" />
    <glyph glyph-name="Zeta" unicode="&#x396;" horiz-adv-x="519" 
d="M497 633l-374 -584h197q57 0 84 27t42 96h44l-15 -172h-451v56l374 584h-186q-49 0 -75.5 -26.5t-41.5 -86.5h-44l14 162h432v-56z" />
    <glyph glyph-name="Eta" unicode="&#x397;" horiz-adv-x="708" 
d="M496 111v229h-284v-229q0 -44 15.5 -59.5t64.5 -16.5v-35h-255v35q49 1 64.5 16.5t15.5 59.5v467q0 44 -15.5 59.5t-64.5 16.5v35h255v-35q-49 -1 -64.5 -16.5t-15.5 -59.5v-188h284v188q0 44 -15.5 59.5t-64.5 16.5v35h255v-35q-49 -1 -64.5 -16.5t-15.5 -59.5v-467
q0 -44 15.5 -59.5t64.5 -16.5v-35h-255v35q49 1 64.5 16.5t15.5 59.5z" />
    <glyph glyph-name="Theta" unicode="&#x398;" horiz-adv-x="684" 
d="M345 -11q-146 0 -223.5 98.5t-77.5 259.5q0 168 79.5 261t216.5 93q78 0 137 -29t94 -80t52 -114.5t17 -137.5q0 -160 -78.5 -255.5t-216.5 -95.5zM340 654q-100 0 -147 -73.5t-47 -222.5q0 -155 46.5 -239.5t152.5 -84.5q191 0 191 297q0 161 -45.5 242t-150.5 81z
M365 331h-53q-45 0 -58.5 -10t-16.5 -41h-41v150h41q3 -32 16.5 -41.5t59.5 -9.5h51q46 0 59.5 9.5t16.5 41.5h41v-150h-41q-3 31 -16.5 41t-58.5 10z" />
    <glyph glyph-name="Iota" unicode="&#x399;" horiz-adv-x="329" 
d="M117 111v467q0 44 -15.5 59.5t-64.5 16.5v35h255v-35q-49 -1 -64.5 -16.5t-15.5 -59.5v-467q0 -44 15.5 -59.5t64.5 -16.5v-35h-255v35q49 1 64.5 16.5t15.5 59.5z" />
    <glyph glyph-name="Kappa" unicode="&#x39a;" horiz-adv-x="622" 
d="M117 111v467q0 44 -15.5 59.5t-64.5 16.5v35h255v-35q-49 -1 -64.5 -16.5t-15.5 -59.5v-467q0 -44 15.5 -59.5t64.5 -16.5v-35h-255v35q49 1 64.5 16.5t15.5 59.5zM458 552l-144 -162l211 -306q19 -28 36 -37t55 -12v-35h-149l-239 361l184 215q24 29 24 48q0 28 -54 30
v35h212v-35q-34 -5 -59 -24t-77 -78z" />
    <glyph glyph-name="Lambda" unicode="&#x39b;" horiz-adv-x="651" 
d="M453 107l-89 304q-35 118 -52 191h-4q-40 -146 -54 -191l-91 -304q-6 -21 -6 -35q0 -21 15.5 -28t55.5 -9v-35h-212v35q36 3 53 19.5t33 66.5l181 568h89l179 -566q15 -47 31.5 -66t52.5 -22v-35h-243v35q36 2 51 11t15 31q0 13 -5 30z" />
    <glyph glyph-name="Mu" unicode="&#x39c;" horiz-adv-x="801" 
d="M758 689v-35q-52 -3 -67.5 -19.5t-12.5 -56.5l40 -464q4 -46 17 -62t54 -17v-35h-237v35q49 1 63 16.5t11 55.5l-29 366q-3 31 -3 98v20h-6q-9 -63 -23 -109l-150 -482h-60l-147 460q-15 47 -29 132h-6q0 -33 -6 -132l-20 -352q-2 -18 -1 -32t7.5 -22.5t22.5 -13.5t44 -5
v-35h-208v35q42 1 55 17t17 62l34 464q3 41 -12 57.5t-68 18.5v35h193l145 -453q17 -53 23 -116h6q6 62 23 115l136 454h194z" />
    <glyph glyph-name="Nu" unicode="&#x39d;" horiz-adv-x="685" 
d="M516 333v245q0 44 -15.5 59.5t-64.5 16.5v35h219v-35q-45 -1 -58.5 -16.5t-13.5 -59.5v-578h-71l-250 408q-57 93 -84 170h-6q12 -81 12 -184v-283q0 -44 15.5 -59.5t64.5 -16.5v-35h-227v35q49 1 64.5 16.5t15.5 59.5v467q0 44 -15.5 59.5t-64.5 16.5v35h162l255 -418
q46 -76 68 -145h6q-12 72 -12 207z" />
    <glyph glyph-name="Xi" unicode="&#x39e;" horiz-adv-x="579" 
d="M530 0h-481l-7 163h45q9 -57 27 -71t71 -14h209q51 0 70 15.5t28 69.5h45zM390 614h-201q-45 0 -62.5 -14t-33.5 -69h-42l10 158h457l10 -158h-42q-16 55 -33.5 69t-62.5 14zM246 334q-46 0 -64 -14.5t-21 -52.5h-41v181h41q3 -39 21 -52.5t65 -13.5h85q47 0 65 13.5
t21 52.5h41v-181h-41q-3 38 -21 52.5t-64 14.5h-87z" />
    <glyph glyph-name="Omicron" unicode="&#x39f;" horiz-adv-x="674" 
d="M340 -11q-143 0 -219.5 98.5t-76.5 259.5q0 168 78.5 261t212.5 93q77 0 135 -29t92 -80t51 -114.5t17 -137.5q0 -160 -77.5 -255.5t-212.5 -95.5zM335 654q-98 0 -143.5 -73.5t-45.5 -222.5q0 -324 194 -324q186 0 186 297q0 161 -44.5 242t-146.5 81z" />
    <glyph glyph-name="Pi" unicode="&#x3a0;" horiz-adv-x="700" 
d="M488 111v530h-276v-530q0 -44 15.5 -59.5t64.5 -16.5v-35h-255v35q49 1 64.5 16.5t15.5 59.5v467q0 44 -15.5 59.5t-64.5 16.5v35h626v-35q-49 -1 -64.5 -16.5t-15.5 -59.5v-467q0 -44 15.5 -59.5t64.5 -16.5v-35h-255v35q49 1 64.5 16.5t15.5 59.5z" />
    <glyph glyph-name="Rho" unicode="&#x3a1;" horiz-adv-x="577" 
d="M212 287v-173q0 -45 17.5 -61.5t70.5 -17.5v-35h-263v35q49 1 64.5 16.5t15.5 59.5v467q0 44 -15.5 59.5t-64.5 16.5v35h252q258 0 258 -198q0 -97 -60 -150.5t-172 -53.5h-103zM446 480q0 90 -32 125t-123 35h-79v-305h97q74 0 105.5 33.5t31.5 111.5z" />
    <glyph glyph-name="Sigma" unicode="&#x3a3;" horiz-adv-x="528" 
d="M251 345l-215 288v56h465l14 -152h-44q-15 58 -40.5 80.5t-76.5 22.5h-206l201 -267l-222 -288h228q57 0 83 20.5t40 73.5h44l-15 -179h-475v56z" />
    <glyph glyph-name="Tau" unicode="&#x3a4;" horiz-adv-x="551" 
d="M28 689h495l8 -157h-47q-13 68 -27 88t-57 20h-77v-529q0 -46 18.5 -60t71.5 -16v-35h-275v35q53 2 71.5 16t18.5 60v529h-77q-43 0 -57 -20t-27 -88h-47z" />
    <glyph glyph-name="Upsilon" unicode="&#x3a5;" horiz-adv-x="594" 
d="M319 345h4l108 234q12 27 12 43q0 29 -59 32v35h199v-35q-31 -4 -50.5 -21.5t-46.5 -71.5l-137 -279v-171q0 -44 16.5 -59.5t68.5 -16.5v-35h-265v35q52 1 68.5 16.5t16.5 59.5v165l-149 296q-23 46 -43 62t-51 20v35h238v-35q-53 -1 -53 -30q0 -16 14 -47z" />
    <glyph glyph-name="Phi" unicode="&#x3a6;" horiz-adv-x="779" 
d="M653 358q0 106 -49 151t-168 45v-414q122 0 169.5 50t47.5 168zM263 654v35h253v-35q-45 -2 -62.5 -13.5t-17.5 -42.5q157 0 238 -63t81 -188q0 -123 -81.5 -187t-237.5 -64q0 -34 17 -46.5t63 -14.5v-35h-253v35q46 2 63 14.5t17 46.5q-156 0 -237.5 64t-81.5 187
q0 125 81 188t238 63q0 31 -17.5 42.5t-62.5 13.5zM126 358q0 -118 47.5 -168t169.5 -50v414q-119 0 -168 -45t-49 -151z" />
    <glyph glyph-name="Chi" unicode="&#x3a7;" horiz-adv-x="632" 
d="M474 574l-115 -200l149 -257q26 -44 47.5 -61t52.5 -21v-35h-244v35q55 1 55 31q0 16 -16 46l-110 198h-4l-105 -200q-14 -25 -14 -43q0 -29 59 -32v-35h-205v35q31 4 52.5 22.5t50.5 70.5l133 235l-128 217q-25 42 -44 56t-50 18v35h239v-35q-56 -3 -56 -30
q0 -15 17 -46l88 -157h4l83 156q15 27 15 45q0 29 -53 32v35h194v-35q-30 -4 -50.5 -20.5t-44.5 -59.5z" />
    <glyph glyph-name="Psi" unicode="&#x3a8;" horiz-adv-x="761" 
d="M683 503q-14 -119 -68 -173q-55 -56 -187 -61v-158q0 -44 15.5 -59.5t64.5 -16.5v-35h-255v35q49 1 64.5 16.5t15.5 59.5v158q-134 5 -187 61q-54 54 -68 173q-8 73 -20 94.5t-52 33.5l9 65q89 -7 117 -44t39 -150q10 -104 47.5 -144.5t114.5 -44.5v265q0 44 -15.5 59.5
t-64.5 16.5v35h255v-35q-49 -1 -64.5 -16.5t-15.5 -59.5v-265q75 4 113.5 45t48.5 144q11 113 39 150t117 44l9 -65q-40 -12 -52 -33.5t-20 -94.5z" />
    <glyph glyph-name="uni03A9" unicode="&#x3a9;" horiz-adv-x="700" 
d="M350 656q-96 0 -142 -72t-46 -200q0 -109 34.5 -185.5t114.5 -134.5v-64h-260l-13 151h40q12 -51 29 -63.5t75 -12.5h53q-175 128 -175 308q0 136 79 227t211 91t211 -91t79 -227q0 -180 -175 -308h53q58 0 75 12.5t29 63.5h40l-13 -151h-260v64q80 58 114.5 134.5
t34.5 185.5q0 272 -188 272z" />
    <glyph glyph-name="Iotadieresis" unicode="&#x3aa;" horiz-adv-x="329" 
d="M117 111v467q0 44 -15.5 59.5t-64.5 16.5v35h255v-35q-49 -1 -64.5 -16.5t-15.5 -59.5v-467q0 -44 15.5 -59.5t64.5 -16.5v-35h-255v35q49 1 64.5 16.5t15.5 59.5zM120 787q0 -25 -17 -42.5t-43 -17.5t-43 17.5t-17 42.5t17 42.5t43 17.5t43 -17.5t17 -42.5zM329 787
q0 -25 -17.5 -42.5t-42.5 -17.5t-42.5 17.5t-17.5 42.5t17.5 42.5t42.5 17.5t42.5 -17.5t17.5 -42.5z" />
    <glyph glyph-name="Upsilondieresis" unicode="&#x3ab;" horiz-adv-x="594" 
d="M319 345h4l108 234q12 27 12 43q0 29 -59 32v35h199v-35q-31 -4 -50.5 -21.5t-46.5 -71.5l-137 -279v-171q0 -44 16.5 -59.5t68.5 -16.5v-35h-265v35q52 1 68.5 16.5t16.5 59.5v165l-149 296q-23 46 -43 62t-51 20v35h238v-35q-53 -1 -53 -30q0 -16 14 -47zM260 787
q0 -25 -17 -42.5t-43 -17.5t-43 17.5t-17 42.5t17 42.5t43 17.5t43 -17.5t17 -42.5zM469 787q0 -25 -17.5 -42.5t-42.5 -17.5t-42.5 17.5t-17.5 42.5t17.5 42.5t42.5 17.5t42.5 -17.5t17.5 -42.5z" />
    <glyph glyph-name="alphatonos" unicode="&#x3ac;" horiz-adv-x="552" 
d="M455 -9q-66 0 -83 81q-20 -39 -58.5 -60.5t-81.5 -21.5q-83 0 -139.5 62t-56.5 183q0 120 52.5 194t152.5 74q92 0 130 -66q4 28 16 51l61 7h19q-10 -36 -10 -124v-249q0 -38 9.5 -56t40.5 -18q10 0 31 3v-38q-39 -22 -83 -22zM366 191v104q0 77 -29.5 114t-80.5 37
q-56 0 -89 -48t-33 -151q0 -108 26 -154.5t86 -46.5q51 0 85.5 43.5t34.5 101.5zM286 545l-52 4l39 191l90 -21z" />
    <glyph glyph-name="epsilontonos" unicode="&#x3ad;" horiz-adv-x="467" 
d="M242 44q98 0 174 75l31 -26q-34 -48 -90.5 -76t-123.5 -28q-203 0 -203 138q0 116 130 134v4q-58 9 -83 39t-25 63q0 135 195 135q97 0 176 -41v-84h-68q-9 41 -30 60.5t-71 19.5q-107 0 -107 -91q0 -47 22 -67.5t81 -20.5h63v-46h-61q-72 0 -98 -21.5t-26 -74.5
q0 -46 31.5 -69t82.5 -23zM268 545l-52 4l39 191l90 -21z" />
    <glyph glyph-name="etatonos" unicode="&#x3ae;" horiz-adv-x="577" 
d="M387 132q0 53 2 125.5t2 93.5q0 82 -75 82q-65 0 -132 -65v-121q0 -178 -5 -247h-104v16q18 41 18 178v155q0 53 -14 68t-59 17v30l128 40h15q16 -36 17 -86q73 85 167 85q61 0 96.5 -35t35.5 -99v-237q0 -39 10 -61t39 -22q15 0 35 4v-39q-41 -23 -86 -23q-90 0 -90 141
zM331 545l-52 4l39 191l90 -21z" />
    <glyph glyph-name="iotatonos" unicode="&#x3af;" horiz-adv-x="275" 
d="M170 504v-382q0 -38 11 -56t44 -18q13 0 36 3v-38q-39 -22 -94 -22q-91 0 -91 131v192q0 132 -3 175l78 15h19zM145 545l-52 4l39 191l90 -21z" />
    <glyph glyph-name="upsilondieresistonos" unicode="&#x3b0;" horiz-adv-x="543" 
d="M355 469v21l78 13q20 -27 42.5 -83.5t22.5 -120.5q0 -138 -70.5 -225.5t-205.5 -87.5q-133 0 -133 158v213q0 47 -17.5 66.5t-68.5 20.5v31q42 24 92 24q86 0 86 -130v-231q0 -103 62 -103q54 0 90.5 36t51.5 87t15 112q0 116 -45 199zM175 608q0 -26 -17.5 -43
t-42.5 -17t-42.5 17t-17.5 43t17.5 43t42.5 17t42.5 -17t17.5 -43zM454 608q0 -26 -17 -43t-43 -17t-43 17t-17 43t17 43t43 17t43 -17t17 -43zM270 571l-52 4l25 192l90 -21z" />
    <glyph glyph-name="alpha" unicode="&#x3b1;" horiz-adv-x="552" 
d="M455 -9q-66 0 -83 81q-20 -39 -58.5 -60.5t-81.5 -21.5q-83 0 -139.5 62t-56.5 183q0 120 52.5 194t152.5 74q92 0 130 -66q4 28 16 51l61 7h19q-10 -36 -10 -124v-249q0 -38 9.5 -56t40.5 -18q10 0 31 3v-38q-39 -22 -83 -22zM366 191v104q0 77 -29.5 114t-80.5 37
q-56 0 -89 -48t-33 -151q0 -108 26 -154.5t86 -46.5q51 0 85.5 43.5t34.5 101.5z" />
    <glyph glyph-name="beta" unicode="&#x3b2;" horiz-adv-x="514" 
d="M270 -13q-71 0 -124 41v-213l-98 -14l-4 23q13 65 13 181v518q0 102 54.5 154.5t142.5 52.5q86 0 138 -47.5t52 -121.5q0 -59 -34.5 -106t-98.5 -58v-4q74 -7 122.5 -57.5t48.5 -129.5q0 -91 -53.5 -155t-158.5 -64zM259 35q125 0 125 167q0 164 -165 164h-12v47h22
q65 0 92 33.5t27 111.5q0 126 -94 126q-55 0 -81 -38.5t-26 -127.5v-439q42 -44 112 -44z" />
    <glyph glyph-name="gamma" unicode="&#x3b3;" horiz-adv-x="491" 
d="M340 459v31l119 13l6 -54q0 -153 -155 -445q-43 -82 -98.5 -135t-138.5 -82l-19 53v27q81 8 119 34.5t38 77.5q0 47 -78 277q-41 120 -66 153.5t-73 34.5v31q42 24 82 24q47 0 74.5 -42t65.5 -155q51 -153 51 -237q0 -10 -2 -28h4q31 50 77 171.5t46 185.5q0 25 -11 40.5
t-41 24.5z" />
    <glyph glyph-name="delta" unicode="&#x3b4;" horiz-adv-x="508" 
d="M97 601q0 62 41.5 98.5t118.5 36.5q85 0 127.5 -34t42.5 -97q0 -16 -5 -34l-35 -14q-23 55 -58 85t-96 30q-41 0 -61.5 -15.5t-20.5 -35.5q0 -18 8 -33t27 -29.5t34.5 -23.5t46.5 -26t46 -26q72 -42 114.5 -96.5t42.5 -141.5q0 -116 -58.5 -186.5t-161.5 -70.5
q-97 0 -155.5 69t-58.5 169q0 164 138 238q-77 52 -77 137zM134 231q0 -194 118 -194q62 0 92 53t30 144q0 40 -11.5 71.5t-37.5 56t-46 38t-56 34.5q-89 -69 -89 -203z" />
    <glyph glyph-name="epsilon" unicode="&#x3b5;" horiz-adv-x="467" 
d="M242 44q98 0 174 75l31 -26q-34 -48 -90.5 -76t-123.5 -28q-203 0 -203 138q0 116 130 134v4q-58 9 -83 39t-25 63q0 135 195 135q97 0 176 -41v-84h-68q-9 41 -30 60.5t-71 19.5q-107 0 -107 -91q0 -47 22 -67.5t81 -20.5h63v-46h-61q-72 0 -98 -21.5t-26 -74.5
q0 -46 31.5 -69t82.5 -23z" />
    <glyph glyph-name="zeta" unicode="&#x3b6;" horiz-adv-x="403" 
d="M191 588q-88 44 -88 139l31 14q19 -46 43.5 -69.5t69.5 -29.5l120 82l47 -9v-18q-13 -46 -61.5 -85t-105.5 -39q-56 -55 -83.5 -140.5t-27.5 -173.5q0 -63 14.5 -97.5t44.5 -54t94 -41.5q65 -23 92 -45.5t27 -65.5q0 -64 -93 -157l-57 33q58 77 58 103q0 24 -16 36.5
t-56 24.5q-106 31 -154.5 89.5t-48.5 160.5q0 101 39.5 190.5t110.5 152.5z" />
    <glyph glyph-name="eta" unicode="&#x3b7;" horiz-adv-x="577" 
d="M387 132q0 53 2 125.5t2 93.5q0 82 -75 82q-65 0 -132 -65v-121q0 -178 -5 -247h-104v16q18 41 18 178v155q0 53 -14 68t-59 17v30l128 40h15q16 -36 17 -86q73 85 167 85q61 0 96.5 -35t35.5 -99v-237q0 -39 10 -61t39 -22q15 0 35 4v-39q-41 -23 -86 -23q-90 0 -90 141
z" />
    <glyph glyph-name="theta" unicode="&#x3b8;" horiz-adv-x="508" 
d="M476 356q0 -169 -60 -269t-160 -100q-108 0 -166 101.5t-58 272.5q0 169 60 269t160 100q108 0 166 -101.5t58 -272.5zM256 34q71 0 97.5 72t27.5 232h-254q4 -304 129 -304zM252 683q-69 0 -96 -70.5t-29 -221.5h253q-8 292 -128 292z" />
    <glyph glyph-name="iota" unicode="&#x3b9;" horiz-adv-x="275" 
d="M170 504v-382q0 -38 11 -56t44 -18q13 0 36 3v-38q-39 -22 -94 -22q-91 0 -91 131v192q0 132 -3 175l78 15h19z" />
    <glyph glyph-name="kappa" unicode="&#x3ba;" horiz-adv-x="514" 
d="M346 371l-56 -75l101 -176q20 -35 40 -47.5t65 -18.5l-10 -63q-50 0 -83.5 8.5t-57 30t-35.5 40.5t-31 57l-47 92q-22 -30 -48 -60q-2 -115 -5 -159h-104v16q18 41 18 178v155q0 53 -14 68t-59 17v30l128 40h15q21 -48 21 -87v-186q20 25 38 51t43.5 63.5t45.5 65.5
q22 31 31 42.5t28.5 26t44 19t63.5 5.5l8 -81l-47 -6q-41 -5 -58.5 -14t-34.5 -32z" />
    <glyph glyph-name="lambda" unicode="&#x3bb;" horiz-adv-x="514" 
d="M240 450h-4l-140 -460h-30l-62 19q35 36 66 132l119 366l28 -5l-40 112q-14 40 -36 50t-68 10v35q35 20 81 20q78 0 107 -89l170 -534q11 -34 22 -45.5t32 -11.5q13 0 27 2v-38q-34 -22 -73 -22q-40 0 -62.5 26t-39.5 87z" />
    <glyph glyph-name="uni03BC" unicode="&#x3bc;" horiz-adv-x="541" 
d="M48 -199l-4 23q13 65 13 181v157q-2 242 -6 325l76 14h22l-1 -131v-201q0 -68 20 -90t56 -22q34 0 69.5 18t61.5 46v368l68 12h23v-379q0 -38 9.5 -56t40.5 -18q10 0 31 3v-38q-39 -22 -83 -22q-66 0 -84 81q-64 -85 -148 -85q-48 0 -71 27l-4 -2q9 -36 9 -116l1 -81z
" />
    <glyph glyph-name="nu" unicode="&#x3bd;" horiz-adv-x="497" 
d="M282 -5h-62l-132 362q-10 27 -15 38.5t-15.5 25t-25.5 18.5t-38 5v31q42 24 82 24q22 0 37.5 -7t28 -28t19.5 -37.5t21 -57.5l97 -281h4q36 58 75.5 150.5t39.5 155.5q0 25 -11 40.5t-41 24.5v31l119 13l6 -54q0 -105 -64 -240.5t-125 -213.5z" />
    <glyph glyph-name="xi" unicode="&#x3be;" horiz-adv-x="438" 
d="M182 599q-70 30 -70 128l31 14q18 -44 39.5 -65t62.5 -30l130 79l48 -9v-18q-22 -54 -64 -84.5t-122 -30.5q-58 -49 -58 -103q0 -104 152 -104h29v-53h-26q-100 -2 -151.5 -43t-51.5 -95q0 -58 36.5 -78t147.5 -37q119 -18 119 -115q0 -64 -93 -157l-57 33q58 77 58 105
q0 26 -16 39t-58 18q-124 16 -180 53t-56 115q0 66 47 114t120 70v3q-55 8 -81.5 39.5t-26.5 71.5q0 75 91 140z" />
    <glyph glyph-name="omicron" unicode="&#x3bf;" horiz-adv-x="532" 
d="M496 242q0 -117 -64 -185.5t-166 -68.5t-166 69.5t-64 189.5q0 119 63.5 189t164.5 70q108 0 170 -74t62 -190zM398 238q0 219 -134 219q-71 0 -100.5 -50.5t-29.5 -149.5q0 -115 31 -167.5t103 -52.5q64 0 97 52t33 149z" />
    <glyph glyph-name="pi" unicode="&#x3c0;" horiz-adv-x="571" 
d="M450 -9q-90 0 -90 141v82q0 86 6 205h-168q-4 -102 -6.5 -155t-13 -133.5t-28.5 -130.5h-99l-2 16q36 52 59.5 140.5t33.5 262.5q-35 -3 -56.5 -16t-45.5 -42l-28 22q23 62 61.5 87.5t111.5 25.5h225q73 0 112 9h21l-7 -75q-22 -8 -84 -11v-287q0 -39 10 -61t39 -22
q15 0 35 4v-39q-41 -23 -86 -23z" />
    <glyph glyph-name="rho" unicode="&#x3c1;" horiz-adv-x="518" 
d="M136 -21v-164l-98 -14l-4 23q13 65 13 181v267q0 112 57 173.5t159 61.5q98 0 158.5 -67t60.5 -180q0 -117 -55 -194.5t-151 -77.5q-38 0 -78 15.5t-67 43.5l-3 -1q8 -43 8 -67zM384 241q0 107 -29 161t-95 54q-74 0 -100 -47.5t-26 -127.5v-180q22 -29 57 -46t66 -17
q127 0 127 203z" />
    <glyph glyph-name="sigma1" unicode="&#x3c2;" horiz-adv-x="440" 
d="M133 274q0 -91 38 -132.5t134 -74.5q65 -22 92 -45.5t27 -66.5q0 -64 -93 -157l-57 33q58 77 58 103q0 24 -15.5 36t-56.5 24q-111 32 -167.5 96t-56.5 174q0 107 63.5 173t161.5 66q102 0 159 -39v-89h-72q-5 37 -27.5 59.5t-61.5 22.5q-126 0 -126 -183z" />
    <glyph glyph-name="sigma" unicode="&#x3c3;" horiz-adv-x="539" 
d="M391 440v-4q90 -64 90 -194q0 -114 -59 -184t-156 -70q-102 0 -166 69.5t-64 189.5q0 119 63.5 189t164.5 70q32 0 78 -6.5t78 -6.5q58 0 102 19l15 -52v-23q-28 -14 -72 -14q-36 0 -74 17zM383 238q0 118 -29.5 168.5t-89.5 50.5q-71 0 -100.5 -50.5t-29.5 -149.5
q0 -115 31 -167.5t103 -52.5q57 0 86 52t29 149z" />
    <glyph glyph-name="tau" unicode="&#x3c4;" horiz-adv-x="473" 
d="M348 419h-62v-287q0 -39 10 -61t39 -22q15 0 35 4v-39q-41 -23 -86 -23q-87 0 -87 141q0 152 11 287h-74q-34 0 -55.5 -13.5t-46.5 -44.5l-28 22q23 62 61.5 87.5t111.5 25.5h151q73 0 112 9h21l-7 -75q-31 -11 -106 -11z" />
    <glyph glyph-name="upsilon" unicode="&#x3c5;" horiz-adv-x="543" 
d="M355 469v21l78 13q20 -27 42.5 -83.5t22.5 -120.5q0 -138 -70.5 -225.5t-205.5 -87.5q-133 0 -133 158v213q0 47 -17.5 66.5t-68.5 20.5v31q42 24 92 24q86 0 86 -130v-231q0 -103 62 -103q54 0 90.5 36t51.5 87t15 112q0 116 -45 199z" />
    <glyph glyph-name="phi" unicode="&#x3c6;" horiz-adv-x="679" 
d="M643 265q0 -115 -75 -192t-200 -77v-180l-96 -15l-4 23q13 69 13 172q-109 6 -177 67.5t-68 164.5q0 92 32.5 155.5t94.5 116.5l67 -10q-101 -104 -101 -241q0 -86 42.5 -142.5t109.5 -63.5v276q0 83 40 135.5t129 52.5q98 0 145.5 -64t47.5 -178zM368 311v-267
q74 0 125.5 53.5t51.5 148.5q0 115 -25 162.5t-73 47.5q-43 0 -61 -30.5t-18 -114.5z" />
    <glyph glyph-name="chi" unicode="&#x3c7;" horiz-adv-x="469" 
d="M391 -9q-44 0 -75.5 27.5t-57.5 84.5l-41 89h-4l-116 -204h-31l-61 21q61 63 81 95l94 147l-69 131q-19 36 -39 47.5t-58 12.5h-7v35q35 20 81 20q72 0 113 -89l44 -94h4l104 189h30l60 -21q-52 -54 -78 -95l-85 -133l80 -148q18 -33 33.5 -45t43.5 -12q13 0 27 2v-38
q-34 -22 -73 -22z" />
    <glyph glyph-name="psi" unicode="&#x3c8;" horiz-adv-x="712" 
d="M404 730v-685q95 9 131 69t36 156q0 116 -45 199v21l78 13q20 -27 42.5 -83.5t22.5 -120.5q0 -136 -67.5 -217.5t-197.5 -85.5v-180l-95 -15l-4 23q13 69 13 173q-115 3 -177 55t-62 153v152q0 47 -16 66.5t-60 20.5v31q42 24 92 24q44 0 60 -34t16 -96v-165
q0 -76 32 -117t115 -43v511q0 88 -5 161l67 14h24z" />
    <glyph glyph-name="omega" unicode="&#x3c9;" horiz-adv-x="736" 
d="M329 189q0 77 -7 177l69 12h23v-240q0 -103 56 -103q124 0 124 235q0 102 -53 199v21l77 13q13 -16 27 -41t30 -73t16 -93q0 -146 -58 -228t-171 -82q-82 0 -115 68q-47 -68 -133 -68q-77 0 -123.5 63t-46.5 173q0 169 127 278l68 -10q-45 -47 -73.5 -113t-28.5 -133
q0 -205 96 -205q50 0 73 42t23 108z" />
    <glyph glyph-name="iotadieresis" unicode="&#x3ca;" horiz-adv-x="275" 
d="M170 504v-382q0 -38 11 -56t44 -18q13 0 36 3v-38q-39 -22 -94 -22q-91 0 -91 131v192q0 132 -3 175l78 15h19zM84 638q0 -26 -17 -43t-43 -17t-43 17t-17 43t17 43t43 17t43 -17t17 -43zM293 638q0 -26 -17.5 -43t-42.5 -17t-42.5 17t-17.5 43t17.5 43t42.5 17t42.5 -17
t17.5 -43z" />
    <glyph glyph-name="upsilondieresis" unicode="&#x3cb;" horiz-adv-x="543" 
d="M355 469v21l78 13q20 -27 42.5 -83.5t22.5 -120.5q0 -138 -70.5 -225.5t-205.5 -87.5q-133 0 -133 158v213q0 47 -17.5 66.5t-68.5 20.5v31q42 24 92 24q86 0 86 -130v-231q0 -103 62 -103q54 0 90.5 36t51.5 87t15 112q0 116 -45 199zM225 638q0 -26 -17.5 -43
t-42.5 -17t-42.5 17t-17.5 43t17.5 43t42.5 17t42.5 -17t17.5 -43zM434 638q0 -26 -17 -43t-43 -17t-43 17t-17 43t17 43t43 17t43 -17t17 -43z" />
    <glyph glyph-name="omicrontonos" unicode="&#x3cc;" horiz-adv-x="532" 
d="M496 242q0 -117 -64 -185.5t-166 -68.5t-166 69.5t-64 189.5q0 119 63.5 189t164.5 70q108 0 170 -74t62 -190zM398 238q0 219 -134 219q-71 0 -100.5 -50.5t-29.5 -149.5q0 -115 31 -167.5t103 -52.5q64 0 97 52t33 149zM314 545l-52 4l39 191l90 -21z" />
    <glyph glyph-name="upsilontonos" unicode="&#x3cd;" horiz-adv-x="543" 
d="M355 469v21l78 13q20 -27 42.5 -83.5t22.5 -120.5q0 -138 -70.5 -225.5t-205.5 -87.5q-133 0 -133 158v213q0 47 -17.5 66.5t-68.5 20.5v31q42 24 92 24q86 0 86 -130v-231q0 -103 62 -103q54 0 90.5 36t51.5 87t15 112q0 116 -45 199zM290 545l-52 4l39 191l90 -21z" />
    <glyph glyph-name="omegatonos" unicode="&#x3ce;" horiz-adv-x="736" 
d="M329 189q0 77 -7 177l69 12h23v-240q0 -103 56 -103q124 0 124 235q0 102 -53 199v21l77 13q13 -16 27 -41t30 -73t16 -93q0 -146 -58 -228t-171 -82q-82 0 -115 68q-47 -68 -133 -68q-77 0 -123.5 63t-46.5 173q0 169 127 278l68 -10q-45 -47 -73.5 -113t-28.5 -133
q0 -205 96 -205q50 0 73 42t23 108zM418 545l-52 4l39 191l90 -21z" />
    <glyph glyph-name="uni03D0" unicode="&#x3d0;" horiz-adv-x="524" 
d="M453 561q0 -52 -26.5 -92t-93.5 -70q73 -19 116.5 -68t43.5 -121q0 -90 -58.5 -156.5t-164.5 -66.5q-230 0 -230 342q0 94 12 165.5t32 115.5t49.5 71.5t61.5 38t72 10.5q86 0 136 -47.5t50 -121.5zM395 206q0 69 -27 105t-91 67q-46 -14 -66 -18l-9 47q80 16 117.5 47.5
t37.5 103.5q0 63 -20.5 94.5t-69.5 31.5q-45 0 -73 -30t-44 -108t-16 -209q0 -302 135 -302q56 0 91 43.5t35 127.5z" />
    <glyph glyph-name="theta1" unicode="&#x3d1;" horiz-adv-x="532" 
d="M30 312l76 21q26 -30 34 -58.5t8 -108.5q0 -131 113 -131q131 0 134 288q-177 27 -252 83t-75 154q0 75 51.5 122.5t142.5 47.5q42 0 72.5 -8t61.5 -33t50.5 -67.5t31.5 -116.5t12 -176q0 -342 -230 -342q-57 0 -99 16t-63.5 43.5t-31.5 58t-10 65.5q0 61 -5.5 86.5
t-20.5 55.5zM164 558q0 -79 51.5 -121t179.5 -64q-2 124 -18.5 194t-42.5 93.5t-70 23.5q-100 0 -100 -126z" />
    <glyph glyph-name="Upsilon1" unicode="&#x3d2;" horiz-adv-x="625" 
d="M366 247v-136q0 -44 15.5 -59.5t64.5 -16.5v-35h-255v35q49 1 64.5 16.5t15.5 59.5v150q0 132 -77.5 235t-189.5 130l9 70q70 0 128 -29.5t96 -79.5t61.5 -105t34.5 -115h4q10 57 29.5 110t51.5 105t82.5 83t113.5 31l9 -55q-106 -22 -181.5 -138t-75.5 -256z" />
    <glyph glyph-name="uni03D3" unicode="&#x3d3;" horiz-adv-x="625" 
d="M366 247v-136q0 -44 15.5 -59.5t64.5 -16.5v-35h-255v35q49 1 64.5 16.5t15.5 59.5v150q0 132 -77.5 235t-189.5 130l9 70q70 0 128 -29.5t96 -79.5t61.5 -105t34.5 -115h4q10 57 29.5 110t51.5 105t82.5 83t113.5 31l9 -55q-106 -22 -181.5 -138t-75.5 -256zM-89 510
l-52 4l39 191l90 -21z" />
    <glyph glyph-name="uni03D4" unicode="&#x3d4;" horiz-adv-x="625" 
d="M366 247v-136q0 -44 15.5 -59.5t64.5 -16.5v-35h-255v35q49 1 64.5 16.5t15.5 59.5v150q0 132 -77.5 235t-189.5 130l9 70q70 0 128 -29.5t96 -79.5t61.5 -105t34.5 -115h4q10 57 29.5 110t51.5 105t82.5 83t113.5 31l9 -55q-106 -22 -181.5 -138t-75.5 -256zM278 787
q0 -25 -17 -42.5t-43 -17.5t-43 17.5t-17 42.5t17 42.5t43 17.5t43 -17.5t17 -42.5zM487 787q0 -25 -17.5 -42.5t-42.5 -17.5t-42.5 17.5t-17.5 42.5t17.5 42.5t42.5 17.5t42.5 -17.5t17.5 -42.5z" />
    <glyph glyph-name="phi1" unicode="&#x3d5;" horiz-adv-x="704" 
d="M395 730v-225q131 -4 203 -66.5t72 -183.5q0 -138 -70.5 -197t-204.5 -62v-180l-95 -15l-4 23q13 68 13 172q-135 3 -205 62t-70 197q0 121 71.5 183.5t203.5 66.5v50q0 88 -5 161l67 14h24zM573 236q0 124 -42 171t-136 49v-412q178 3 178 192zM131 236q0 -189 178 -192
v412q-94 -2 -136 -49t-42 -171z" />
    <glyph glyph-name="uni0400" unicode="&#x400;" horiz-adv-x="565" 
d="M37 0v35q49 1 64.5 16.5t15.5 59.5v467q0 44 -15.5 59.5t-64.5 16.5v35h470l10 -150h-42q-17 60 -35.5 80.5t-60.5 20.5h-167v-256h93q47 0 65 14.5t21 56.5h41v-190h-41q-3 41 -21 56t-64 15h-94v-287h168q57 0 77.5 23t26.5 93h45v-165h-492zM412 761l-20 -34l-214 70
l43 92z" />
    <glyph glyph-name="afii10023" unicode="&#x401;" horiz-adv-x="565" 
d="M37 0v35q49 1 64.5 16.5t15.5 59.5v467q0 44 -15.5 59.5t-64.5 16.5v35h470l10 -150h-42q-17 60 -35.5 80.5t-60.5 20.5h-167v-256h93q47 0 65 14.5t21 56.5h41v-190h-41q-3 41 -21 56t-64 15h-94v-287h168q57 0 77.5 23t26.5 93h45v-165h-492zM237 787
q0 -25 -17.5 -42.5t-42.5 -17.5t-42.5 17.5t-17.5 42.5t17.5 42.5t42.5 17.5t42.5 -17.5t17.5 -42.5zM446 787q0 -25 -17 -42.5t-43 -17.5t-43 17.5t-17 42.5t17 42.5t43 17.5t43 -17.5t17 -42.5z" />
    <glyph glyph-name="afii10051" unicode="&#x402;" horiz-adv-x="721" 
d="M28 689h495l8 -157h-47q-13 68 -27 88t-57 20h-73v-262q90 69 191 69q77 0 125.5 -44.5t48.5 -124.5v-54q0 -119 -41 -173t-152 -91l-19 44q39 24 56 36t34 34t22 51t5 76v59q0 56 -31 84t-77 28q-86 0 -162 -48v-213q0 -46 18.5 -60t71.5 -16v-35h-275v35q53 2 71.5 16
t18.5 60v529h-81q-43 0 -57 -20t-27 -88h-47z" />
    <glyph glyph-name="afii10052" unicode="&#x403;" horiz-adv-x="520" 
d="M218 727l-20 34l191 128l43 -92zM212 640v-527q0 -44 18 -60.5t70 -17.5v-35h-263v35q49 1 64.5 16.5t15.5 59.5v467q0 44 -15.5 59.5t-64.5 16.5v35h456l15 -161h-44q-15 65 -38.5 88.5t-77.5 23.5h-136z" />
    <glyph glyph-name="afii10053" unicode="&#x404;" horiz-adv-x="587" 
d="M353 36q60 0 92 25t43 83h65v-105q-70 -50 -200 -50q-153 0 -231 92.5t-78 257.5q0 169 83 265.5t218 96.5q136 0 203 -47v-112h-70q-15 60 -45 86t-91 26q-182 0 -193 -276h265v-50h-265q2 -162 54 -227t150 -65z" />
    <glyph glyph-name="afii10054" unicode="&#x405;" horiz-adv-x="538" 
d="M245 -11q-119 0 -205 55v124h69q10 -70 41.5 -101t108.5 -31q147 0 147 130q0 61 -28 88.5t-101 49.5l-69 21q-78 24 -116.5 67t-38.5 114q0 87 60 141t163 54q120 0 189 -51v-107h-65q-10 55 -40 83t-97 28q-59 0 -93.5 -31t-34.5 -86q0 -53 26.5 -78t94.5 -46l70 -21
q167 -50 167 -191q0 -100 -64.5 -156t-183.5 -56z" />
    <glyph glyph-name="afii10055" unicode="&#x406;" horiz-adv-x="329" 
d="M117 111v467q0 44 -15.5 59.5t-64.5 16.5v35h255v-35q-49 -1 -64.5 -16.5t-15.5 -59.5v-467q0 -44 15.5 -59.5t64.5 -16.5v-35h-255v35q49 1 64.5 16.5t15.5 59.5z" />
    <glyph glyph-name="afii10056" unicode="&#x407;" horiz-adv-x="329" 
d="M117 111v467q0 44 -15.5 59.5t-64.5 16.5v35h255v-35q-49 -1 -64.5 -16.5t-15.5 -59.5v-467q0 -44 15.5 -59.5t64.5 -16.5v-35h-255v35q49 1 64.5 16.5t15.5 59.5zM120 787q0 -25 -17 -42.5t-43 -17.5t-43 17.5t-17 42.5t17 42.5t43 17.5t43 -17.5t17 -42.5zM329 787
q0 -25 -17.5 -42.5t-42.5 -17.5t-42.5 17.5t-17.5 42.5t17.5 42.5t42.5 17.5t42.5 -17.5t17.5 -42.5z" />
    <glyph glyph-name="afii10057" unicode="&#x408;" horiz-adv-x="339" 
d="M122 100v478q0 44 -16.5 59.5t-68.5 16.5v35h265v-35q-52 -1 -68.5 -16.5t-16.5 -59.5v-471q0 -116 -39.5 -168t-149.5 -86l-24 37q77 39 97.5 80t20.5 130z" />
    <glyph glyph-name="afii10058" unicode="&#x409;" horiz-adv-x="880" 
d="M186 578q0 44 -15.5 59.5t-64.5 16.5v35h515v-35q-49 -1 -64.5 -16.5t-15.5 -59.5v-176h65q258 0 258 -198q0 -97 -60 -150.5t-172 -53.5h-261v35q48 1 61.5 16t13.5 60v530h-200q0 -123 -1 -185.5t-8 -145.5t-22 -138q-28 -106 -69 -143t-131 -37l-9 67q79 16 113 62
q38 53 52.5 158.5t14.5 298.5zM763 194q0 90 -32 125t-123 35h-67v-305h85q74 0 105.5 33.5t31.5 111.5z" />
    <glyph glyph-name="afii10059" unicode="&#x40a;" horiz-adv-x="909" 
d="M475 111v235h-263v-235q0 -44 14 -59.5t63 -16.5v-35h-252v35q49 1 64.5 16.5t15.5 59.5v467q0 44 -15.5 59.5t-64.5 16.5v35h252v-35q-49 -1 -63 -16.5t-14 -59.5v-182h263v182q0 44 -14 59.5t-63 16.5v35h252v-35q-49 -1 -64.5 -16.5t-15.5 -59.5v-182h65
q258 0 258 -193q0 -97 -59.5 -150t-172.5 -53h-263v35q49 1 63 16.5t14 59.5zM637 346h-67v-297h85q74 0 105.5 33.5t31.5 110.5q0 88 -32.5 120.5t-122.5 32.5z" />
    <glyph glyph-name="afii10060" unicode="&#x40b;" horiz-adv-x="784" 
d="M28 689h495l8 -157h-47q-13 68 -27 88t-57 20h-73v-262q90 69 191 69q77 0 125.5 -44.5t48.5 -124.5v-167q0 -44 15.5 -59.5t64.5 -16.5v-35h-255v35q49 1 64.5 16.5t15.5 59.5v149q0 56 -31 84t-77 28q-86 0 -162 -48v-213q0 -46 18.5 -60t71.5 -16v-35h-275v35
q53 2 71.5 16t18.5 60v529h-81q-43 0 -57 -20t-27 -88h-47z" />
    <glyph glyph-name="afii10061" unicode="&#x40c;" horiz-adv-x="653" 
d="M481 543q-13 -88 -36.5 -121.5t-74.5 -50.5v-5q58 -15 79.5 -48.5t50.5 -144.5q15 -56 43 -83.5t83 -32.5l-9 -67q-98 0 -144.5 38.5t-74.5 146.5q-9 33 -12.5 46t-10.5 36.5t-12.5 31.5t-14 21.5t-18.5 17.5t-23 8t-30 4h-65v-229q0 -44 15.5 -59.5t64.5 -16.5v-35h-255
v35q49 1 64.5 16.5t15.5 59.5v467q0 44 -15.5 59.5t-64.5 16.5v35h255v-35q-49 -1 -64.5 -16.5t-15.5 -59.5v-188h35q33 0 51.5 1.5t43 9.5t38 24t25.5 46t18 74q9 72 48 110.5t127 41.5l9 -79l-61 -10q-57 -9 -65 -65zM253 727l-20 34l191 128l43 -92z" />
    <glyph glyph-name="uni040D" unicode="&#x40d;" horiz-adv-x="704" 
d="M503 563h-5q-15 -42 -87 -170l-180 -318q-16 -30 -16 -75h-178v35q49 1 64.5 16.5t15.5 59.5v467q0 44 -15.5 59.5t-64.5 16.5v35h250v-35q-46 -1 -60.5 -16.5t-14.5 -59.5v-266q0 -110 -11 -184h5q15 42 87 170l179 316q16 28 16 75h179v-35q-49 -1 -64.5 -16.5
t-15.5 -59.5v-467q0 -44 15.5 -59.5t64.5 -16.5v-35h-250v35q46 1 60.5 16.5t14.5 59.5v268q0 110 11 184zM453 761l-20 -34l-214 70l43 92z" />
    <glyph glyph-name="afii10062" unicode="&#x40e;" horiz-adv-x="644" 
d="M308 183l-33 -3l-171 386q-16 35 -23.5 48.5t-23.5 25.5t-41 14v35h245v-35q-37 -2 -52.5 -11t-15.5 -31q0 -9 7 -30l131 -339h13q0 13 60 158l78 184q6 14 6 32q0 20 -16 27.5t-53 9.5v35h209v-35q-35 -5 -49.5 -20t-36.5 -66l-168 -388q-29 -67 -50 -103t-49 -56
t-54.5 -24.5t-75.5 -4.5l-9 67q67 7 109.5 32.5t62.5 91.5zM333 733q-53 0 -102 36t-65 84l31 22q23 -35 55 -49.5t79 -14.5t78.5 14.5t55.5 49.5l32 -22q-16 -48 -64 -84t-100 -36z" />
    <glyph glyph-name="afii10145" unicode="&#x40f;" horiz-adv-x="700" 
d="M379 -180h-58q-2 94 -14.5 137t-41.5 43h-228v35q49 1 64.5 16.5t15.5 59.5v467q0 44 -15.5 59.5t-64.5 16.5v35h255v-35q-49 -1 -64.5 -16.5t-15.5 -59.5v-530h276v530q0 44 -15.5 59.5t-64.5 16.5v35h255v-35q-49 -1 -64.5 -16.5t-15.5 -59.5v-467q0 -44 15.5 -59.5
t64.5 -16.5v-35h-229q-29 0 -41.5 -43t-13.5 -137z" />
    <glyph glyph-name="afii10017" unicode="&#x410;" horiz-adv-x="657" 
d="M459 107l-33 108h-230l-33 -108q-6 -21 -6 -35q0 -21 16 -28t57 -9v-35h-214v35q36 3 53 19.5t33 66.5l184 568h89l182 -566q15 -47 31.5 -66t52.5 -22v-35h-245v35q36 2 52 11.5t16 30.5q0 13 -5 30zM257 411l-46 -148h201l-45 148q-31 101 -52 191h-4
q-40 -146 -54 -191z" />
    <glyph glyph-name="afii10018" unicode="&#x411;" horiz-adv-x="589" 
d="M338 640h-126v-236h85q258 0 258 -200q0 -97 -60 -150.5t-172 -53.5h-286v35q49 1 64.5 16.5t15.5 59.5v467q0 44 -15.5 59.5t-64.5 16.5v35h446l15 -158h-44q-15 64 -38.5 86.5t-77.5 22.5zM454 194q0 90 -32 125t-123 35h-87v-305h105q74 0 105.5 33.5t31.5 111.5z" />
    <glyph glyph-name="afii10019" unicode="&#x412;" horiz-adv-x="607" 
d="M37 0v35q49 1 64.5 16.5t15.5 59.5v467q0 44 -15.5 59.5t-64.5 16.5v35h252q131 0 190.5 -42.5t59.5 -127.5q0 -117 -126 -149v-4q80 -12 120.5 -60t40.5 -117q0 -94 -68 -141.5t-173 -47.5h-296zM212 49h127q78 0 106.5 33.5t28.5 112.5q0 78 -32 109t-120 31h-110v-286
zM212 383h103q71 0 99.5 30t28.5 95q0 73 -29.5 102.5t-102.5 29.5h-99v-257z" />
    <glyph glyph-name="afii10020" unicode="&#x413;" horiz-adv-x="520" 
d="M212 640v-527q0 -44 18 -60.5t70 -17.5v-35h-263v35q49 1 64.5 16.5t15.5 59.5v467q0 44 -15.5 59.5t-64.5 16.5v35h456l15 -161h-44q-15 65 -38.5 88.5t-77.5 23.5h-136z" />
    <glyph glyph-name="afii10021" unicode="&#x414;" horiz-adv-x="686" 
d="M67 -180h-54v228h42q35 19 64 68q36 64 53 170t17 292q0 44 -15.5 59.5t-64.5 16.5v35h530v-35q-49 -1 -64.5 -16.5t-15.5 -59.5v-467q0 -41 13.5 -52t61.5 -11h25v-48l-25 -180h-51q0 112 -7 146t-35 34h-407q-39 0 -53 -44t-14 -136zM155 54v-6h309v593h-216
q0 -343 -39 -469q-21 -66 -54 -118z" />
    <glyph glyph-name="afii10022" unicode="&#x415;" horiz-adv-x="565" 
d="M37 0v35q49 1 64.5 16.5t15.5 59.5v467q0 44 -15.5 59.5t-64.5 16.5v35h470l10 -150h-42q-17 60 -35.5 80.5t-60.5 20.5h-167v-256h93q47 0 65 14.5t21 56.5h41v-190h-41q-3 41 -21 56t-64 15h-94v-287h168q57 0 77.5 23t26.5 93h45v-165h-492z" />
    <glyph glyph-name="afii10024" unicode="&#x416;" horiz-adv-x="957" 
d="M786 545q-13 -89 -37 -123.5t-75 -51.5v-4q58 -15 79.5 -48.5t50.5 -144.5q15 -56 43 -83.5t83 -32.5l-9 -67q-98 0 -142 38t-73 147q-26 96 -47 130.5t-73 34.5h-60v-229q0 -44 15.5 -59.5t64.5 -16.5v-35h-255v35q49 1 64.5 16.5t15.5 59.5v229h-54q-57 0 -78.5 -33.5
t-47.5 -131.5q-29 -109 -73 -147t-142 -38l-9 67q55 5 83 32.5t43 83.5q29 111 50.5 144.5t79.5 48.5v4q-51 17 -75 51.5t-37 123.5q-7 54 -65 63l-61 10l9 79q89 -3 128 -41t48 -111q5 -44 17.5 -74t27 -46t39 -24t42.5 -9.5t50 -1.5h25v188q0 44 -15.5 59.5t-64.5 16.5v35
h255v-35q-49 -1 -64.5 -16.5t-15.5 -59.5v-188h25q32 0 50 1.5t42.5 9.5t39 24t27 46t17.5 74q9 73 48 111t128 41l9 -79l-61 -10q-58 -9 -65 -63z" />
    <glyph glyph-name="afii10025" unicode="&#x417;" horiz-adv-x="531" 
d="M211 340h-43v51h67q73 0 105.5 40.5t32.5 103.5q0 55 -33.5 87t-92.5 32q-67 0 -96.5 -27.5t-39.5 -83.5h-65v107q28 20 84 35.5t111 15.5q108 0 169 -42t61 -125q0 -62 -41.5 -106t-113.5 -58v-4q88 -12 135.5 -51t47.5 -121q0 -97 -69 -151t-190 -54q-120 0 -206 55
v123h67q10 -70 41.5 -100.5t109.5 -30.5q75 0 109.5 41.5t34.5 106.5q0 37 -6 62t-24.5 48t-57 34.5t-97.5 11.5z" />
    <glyph glyph-name="afii10026" unicode="&#x418;" horiz-adv-x="704" 
d="M503 563h-5q-15 -42 -87 -170l-180 -318q-16 -30 -16 -75h-178v35q49 1 64.5 16.5t15.5 59.5v467q0 44 -15.5 59.5t-64.5 16.5v35h250v-35q-46 -1 -60.5 -16.5t-14.5 -59.5v-266q0 -110 -11 -184h5q15 42 87 170l179 316q16 28 16 75h179v-35q-49 -1 -64.5 -16.5
t-15.5 -59.5v-467q0 -44 15.5 -59.5t64.5 -16.5v-35h-250v35q46 1 60.5 16.5t14.5 59.5v268q0 110 11 184z" />
    <glyph glyph-name="afii10027" unicode="&#x419;" horiz-adv-x="704" 
d="M503 563h-5q-15 -42 -87 -170l-180 -318q-16 -30 -16 -75h-178v35q49 1 64.5 16.5t15.5 59.5v467q0 44 -15.5 59.5t-64.5 16.5v35h250v-35q-46 -1 -60.5 -16.5t-14.5 -59.5v-266q0 -110 -11 -184h5q15 42 87 170l179 316q16 28 16 75h179v-35q-49 -1 -64.5 -16.5
t-15.5 -59.5v-467q0 -44 15.5 -59.5t64.5 -16.5v-35h-250v35q46 1 60.5 16.5t14.5 59.5v268q0 110 11 184zM353 733q-53 0 -102 36t-65 84l31 22q23 -35 55 -49.5t79 -14.5t78.5 14.5t55.5 49.5l32 -22q-16 -48 -64 -84t-100 -36z" />
    <glyph glyph-name="afii10028" unicode="&#x41a;" horiz-adv-x="653" 
d="M481 543q-13 -88 -36.5 -121.5t-74.5 -50.5v-5q58 -15 79.5 -48.5t50.5 -144.5q15 -56 43 -83.5t83 -32.5l-9 -67q-98 0 -144.5 38.5t-74.5 146.5q-9 33 -12.5 46t-10.5 36.5t-12.5 31.5t-14 21.5t-18.5 17.5t-23 8t-30 4h-65v-229q0 -44 15.5 -59.5t64.5 -16.5v-35h-255
v35q49 1 64.5 16.5t15.5 59.5v467q0 44 -15.5 59.5t-64.5 16.5v35h255v-35q-49 -1 -64.5 -16.5t-15.5 -59.5v-188h35q33 0 51.5 1.5t43 9.5t38 24t25.5 46t18 74q9 72 48 110.5t127 41.5l9 -79l-61 -10q-57 -9 -65 -65z" />
    <glyph glyph-name="afii10029" unicode="&#x41b;" horiz-adv-x="673" 
d="M186 578q0 44 -15.5 59.5t-64.5 16.5v35h530v-35q-49 -1 -64.5 -16.5t-15.5 -59.5v-467q0 -44 15.5 -59.5t64.5 -16.5v-35h-255v35q49 1 64.5 16.5t15.5 59.5v530h-215q0 -123 -1 -185.5t-8 -145.5t-22 -138q-28 -106 -69 -143t-131 -37l-9 67q79 16 113 62
q38 53 52.5 158.5t14.5 298.5z" />
    <glyph glyph-name="afii10030" unicode="&#x41c;" horiz-adv-x="801" 
d="M758 689v-35q-52 -3 -67.5 -19.5t-12.5 -56.5l40 -464q4 -46 17 -62t54 -17v-35h-237v35q49 1 63 16.5t11 55.5l-29 366q-3 31 -3 98v20h-6q-9 -63 -23 -109l-150 -482h-60l-147 460q-15 47 -29 132h-6q0 -33 -6 -132l-20 -352q-2 -18 -1 -32t7.5 -22.5t22.5 -13.5t44 -5
v-35h-208v35q42 1 55 17t17 62l34 464q3 41 -12 57.5t-68 18.5v35h193l145 -453q17 -53 23 -116h6q6 62 23 115l136 454h194z" />
    <glyph glyph-name="afii10031" unicode="&#x41d;" horiz-adv-x="708" 
d="M496 111v229h-284v-229q0 -44 15.5 -59.5t64.5 -16.5v-35h-255v35q49 1 64.5 16.5t15.5 59.5v467q0 44 -15.5 59.5t-64.5 16.5v35h255v-35q-49 -1 -64.5 -16.5t-15.5 -59.5v-188h284v188q0 44 -15.5 59.5t-64.5 16.5v35h255v-35q-49 -1 -64.5 -16.5t-15.5 -59.5v-467
q0 -44 15.5 -59.5t64.5 -16.5v-35h-255v35q49 1 64.5 16.5t15.5 59.5z" />
    <glyph glyph-name="afii10032" unicode="&#x41e;" horiz-adv-x="674" 
d="M340 -11q-143 0 -219.5 98.5t-76.5 259.5q0 168 78.5 261t212.5 93q77 0 135 -29t92 -80t51 -114.5t17 -137.5q0 -160 -77.5 -255.5t-212.5 -95.5zM335 654q-98 0 -143.5 -73.5t-45.5 -222.5q0 -324 194 -324q186 0 186 297q0 161 -44.5 242t-146.5 81z" />
    <glyph glyph-name="afii10033" unicode="&#x41f;" horiz-adv-x="700" 
d="M488 111v530h-276v-530q0 -44 15.5 -59.5t64.5 -16.5v-35h-255v35q49 1 64.5 16.5t15.5 59.5v467q0 44 -15.5 59.5t-64.5 16.5v35h626v-35q-49 -1 -64.5 -16.5t-15.5 -59.5v-467q0 -44 15.5 -59.5t64.5 -16.5v-35h-255v35q49 1 64.5 16.5t15.5 59.5z" />
    <glyph glyph-name="afii10034" unicode="&#x420;" horiz-adv-x="577" 
d="M212 287v-173q0 -45 17.5 -61.5t70.5 -17.5v-35h-263v35q49 1 64.5 16.5t15.5 59.5v467q0 44 -15.5 59.5t-64.5 16.5v35h252q258 0 258 -198q0 -97 -60 -150.5t-172 -53.5h-103zM446 480q0 90 -32 125t-123 35h-79v-305h97q74 0 105.5 33.5t31.5 111.5z" />
    <glyph glyph-name="afii10035" unicode="&#x421;" horiz-adv-x="577" 
d="M348 -11q-153 0 -228.5 92t-75.5 258q0 170 80.5 266t215.5 96q131 0 198 -47v-112h-70q-15 60 -43 86t-88 26q-91 0 -139.5 -73t-48.5 -240q0 -171 50 -238t149 -67q59 0 89 24.5t41 83.5h65v-105q-70 -50 -195 -50z" />
    <glyph glyph-name="afii10036" unicode="&#x422;" horiz-adv-x="551" 
d="M28 689h495l8 -157h-47q-13 68 -27 88t-57 20h-77v-529q0 -46 18.5 -60t71.5 -16v-35h-275v35q53 2 71.5 16t18.5 60v529h-77q-43 0 -57 -20t-27 -88h-47z" />
    <glyph glyph-name="afii10037" unicode="&#x423;" horiz-adv-x="644" 
d="M308 183l-33 -3l-171 386q-16 35 -23.5 48.5t-23.5 25.5t-41 14v35h245v-35q-37 -2 -52.5 -11t-15.5 -31q0 -9 7 -30l131 -339h13q0 13 60 158l78 184q6 14 6 32q0 20 -16 27.5t-53 9.5v35h209v-35q-35 -5 -49.5 -20t-36.5 -66l-168 -388q-29 -67 -50 -103t-49 -56
t-54.5 -24.5t-75.5 -4.5l-9 67q67 7 109.5 32.5t62.5 91.5z" />
    <glyph glyph-name="afii10038" unicode="&#x424;" horiz-adv-x="755" 
d="M424 137q118 0 167.5 58.5t49.5 178.5q0 109 -49.5 162t-167.5 53v-452zM251 686v35h253v-35q-46 -2 -63 -12t-17 -41q157 0 238 -71t81 -199q0 -125 -83 -197.5t-236 -72.5q0 -34 16.5 -45t63.5 -13v-35h-253v35q47 2 63.5 13t16.5 45q-153 0 -236 72.5t-83 197.5
q0 128 81 199t238 71q0 31 -17 41t-63 12zM331 137v452q-118 0 -167.5 -53t-49.5 -162q0 -120 49.5 -178.5t167.5 -58.5z" />
    <glyph glyph-name="afii10039" unicode="&#x425;" horiz-adv-x="632" 
d="M474 574l-115 -200l149 -257q26 -44 47.5 -61t52.5 -21v-35h-244v35q55 1 55 31q0 16 -16 46l-110 198h-4l-105 -200q-14 -25 -14 -43q0 -29 59 -32v-35h-205v35q31 4 52.5 22.5t50.5 70.5l133 235l-128 217q-25 42 -44 56t-50 18v35h239v-35q-56 -3 -56 -30
q0 -15 17 -46l88 -157h4l83 156q15 27 15 45q0 29 -53 32v35h194v-35q-30 -4 -50.5 -20.5t-44.5 -59.5z" />
    <glyph glyph-name="afii10040" unicode="&#x426;" horiz-adv-x="710" 
d="M658 -180h-51q0 112 -7 146t-35 34h-528v35q49 1 64.5 16.5t15.5 59.5v467q0 44 -15.5 59.5t-64.5 16.5v35h255v-35q-49 -1 -64.5 -16.5t-15.5 -59.5v-530h276v530q0 44 -15.5 59.5t-64.5 16.5v35h255v-35q-49 -1 -64.5 -16.5t-15.5 -59.5v-467q0 -39 11 -50.5t50 -12.5
h39v-48z" />
    <glyph glyph-name="afii10041" unicode="&#x427;" horiz-adv-x="679" 
d="M92 578q0 44 -15.5 59.5t-64.5 16.5v35h255v-35q-49 -1 -64.5 -16.5t-15.5 -59.5v-189q0 -56 31 -84t77 -28q90 0 172 49v252q0 44 -15.5 59.5t-64.5 16.5v35h255v-35q-49 -1 -64.5 -16.5t-15.5 -59.5v-467q0 -44 15.5 -59.5t64.5 -16.5v-35h-255v35q49 1 64.5 16.5
t15.5 59.5v164q-101 -73 -201 -73q-77 0 -125.5 44.5t-48.5 124.5v207z" />
    <glyph glyph-name="afii10042" unicode="&#x428;" horiz-adv-x="949" 
d="M37 0v35q49 1 64.5 16.5t15.5 59.5v467q0 44 -15.5 59.5t-64.5 16.5v35h244v-35q-43 -1 -56.5 -16.5t-13.5 -59.5v-530h217v530q0 44 -13.5 59.5t-56.5 16.5v35h233v-35q-43 -1 -56.5 -16.5t-13.5 -59.5v-530h217v530q0 44 -13.5 59.5t-56.5 16.5v35h244v-35
q-49 -1 -64.5 -16.5t-15.5 -59.5v-467q0 -44 15.5 -59.5t64.5 -16.5v-35h-875z" />
    <glyph glyph-name="afii10043" unicode="&#x429;" horiz-adv-x="958" 
d="M37 0v35q49 1 64.5 16.5t15.5 59.5v467q0 44 -15.5 59.5t-64.5 16.5v35h244v-35q-43 -1 -56.5 -16.5t-13.5 -59.5v-530h217v530q0 44 -13.5 59.5t-56.5 16.5v35h233v-35q-43 -1 -56.5 -16.5t-13.5 -59.5v-530h217v530q0 44 -13.5 59.5t-56.5 16.5v35h244v-35
q-49 -1 -64.5 -16.5t-15.5 -59.5v-464q0 -40 12.5 -52.5t53.5 -13.5h33v-48l-25 -180h-51q0 112 -7 146t-35 34h-776z" />
    <glyph glyph-name="afii10044" unicode="&#x42a;" horiz-adv-x="694" 
d="M446 0h-286v35q49 1 64.5 16.5t15.5 59.5v529h-64q-54 0 -77.5 -23.5t-38.5 -88.5h-44l15 161h384v-35q-49 -1 -64.5 -16.5t-15.5 -59.5v-174h85q258 0 258 -200q0 -97 -60 -150.5t-172 -53.5zM577 194q0 90 -32 125t-123 35h-87v-305h105q74 0 105.5 33.5t31.5 111.5z
" />
    <glyph glyph-name="afii10045" unicode="&#x42b;" horiz-adv-x="849" 
d="M303 0h-266v35q49 1 64.5 16.5t15.5 59.5v467q0 44 -15.5 59.5t-64.5 16.5v35h255v-35q-49 -1 -64.5 -16.5t-15.5 -59.5v-174h65q258 0 258 -200q0 -97 -60 -150.5t-172 -53.5zM434 194q0 90 -32 125t-123 35h-67v-305h85q74 0 105.5 33.5t31.5 111.5zM637 111v467
q0 44 -15.5 59.5t-64.5 16.5v35h255v-35q-49 -1 -64.5 -16.5t-15.5 -59.5v-467q0 -44 15.5 -59.5t64.5 -16.5v-35h-255v35q49 1 64.5 16.5t15.5 59.5z" />
    <glyph glyph-name="afii10046" unicode="&#x42c;" horiz-adv-x="571" 
d="M323 0h-286v35q49 1 64.5 16.5t15.5 59.5v467q0 44 -15.5 59.5t-64.5 16.5v35h255v-35q-49 -1 -64.5 -16.5t-15.5 -59.5v-174h85q258 0 258 -200q0 -97 -60 -150.5t-172 -53.5zM454 194q0 90 -32 125t-123 35h-87v-305h105q74 0 105.5 33.5t31.5 111.5z" />
    <glyph glyph-name="afii10047" unicode="&#x42d;" horiz-adv-x="587" 
d="M163 328v50h274q-5 146 -52 211t-132 65q-62 0 -96 -27t-48 -85h-70v112q75 47 213 47q135 0 213 -92t78 -270q0 -160 -77.5 -255t-228.5 -95q-133 0 -203 50v105h65q11 -58 44.5 -83t93.5 -25q99 0 149 65.5t52 226.5h-275z" />
    <glyph glyph-name="afii10048" unicode="&#x42e;" horiz-adv-x="935" 
d="M616 -11q-129 0 -204 97.5t-77 253.5h-123v-229q0 -44 15.5 -59.5t64.5 -16.5v-35h-255v35q49 1 64.5 16.5t15.5 59.5v467q0 44 -15.5 59.5t-64.5 16.5v35h255v-35q-49 -1 -64.5 -16.5t-15.5 -59.5v-188h124q10 146 86 228.5t189 82.5q136 0 208 -103.5t72 -257.5
q0 -158 -76.5 -254.5t-198.5 -96.5zM611 654q-84 0 -129 -75.5t-45 -220.5q0 -152 44 -238t135 -86q77 0 124 73t47 224q0 323 -176 323z" />
    <glyph glyph-name="afii10049" unicode="&#x42f;" horiz-adv-x="619" 
d="M253 324v4q-74 2 -126 47.5t-52 126.5q0 187 251 187h256v-35q-49 -1 -64.5 -16.5t-15.5 -59.5v-467q0 -44 15.5 -59.5t64.5 -16.5v-35h-253v35q46 1 62 17t16 57v211q-27 0 -46.5 -2.5t-35 -12.5t-24.5 -16.5t-20.5 -29t-16.5 -34.5t-19 -47q-48 -121 -90.5 -154.5
t-141.5 -33.5l-9 67q96 9 125 92q13 37 18.5 51.5t17.5 40t22.5 37.5t27.5 25t38 21zM176 501q0 -74 36 -106.5t89 -32.5h106v278h-89q-77 0 -109.5 -30t-32.5 -109z" />
    <glyph glyph-name="afii10065" unicode="&#x430;" horiz-adv-x="512" 
d="M420 131q0 -57 13 -73t61 -20v-33q-27 -11 -69 -11q-49 0 -68 17.5t-23 53.5q-17 -30 -52 -55t-85 -25q-73 0 -117 37.5t-44 105.5q0 161 262 161q22 0 35 -1v44q0 67 -19.5 95.5t-71.5 28.5q-100 0 -116 -90h-63v89q93 51 187 51q174 0 174 -168q0 -7 -2 -80.5
t-2 -126.5zM331 240q-28 2 -35 2q-86 0 -124.5 -25t-38.5 -82q0 -52 20.5 -72.5t65.5 -20.5q67 0 109 73z" />
    <glyph glyph-name="afii10066" unicode="&#x431;" horiz-adv-x="512" 
d="M384 618l-122 -53q-45 -19 -65 -29.5t-42 -25.5t-29.5 -33t-13.5 -44t-8 -67h6q20 54 61.5 89.5t102.5 35.5q96 0 152 -67.5t56 -190.5q0 -100 -64 -172.5t-162 -72.5q-102 0 -161 74.5t-59 189.5q0 305 191 387l126 55q23 10 35.5 19t29.5 29l51 -49q-28 -51 -85 -75z
M261 442q-57 0 -94 -53t-37 -153q0 -91 31 -145t93 -54q46 0 76.5 31.5t42 75.5t11.5 97q0 91 -29.5 146t-93.5 55z" />
    <glyph glyph-name="afii10067" unicode="&#x432;" horiz-adv-x="520" 
d="M100 385q0 43 -13 56t-57 16v34h208q126 0 174 -27.5t48 -96.5q0 -36 -24.5 -66t-83.5 -40v-4q132 -18 132 -120q0 -35 -11.5 -60.5t-29.5 -40t-48 -23t-59.5 -11t-70.5 -2.5h-235v34q44 3 57 16t13 56v279zM254 228h-63v-181h76q69 0 95 19t26 71t-28 71.5t-106 19.5z
M249 446h-58v-172h62q62 0 88 19t26 69q0 45 -27.5 64.5t-90.5 19.5z" />
    <glyph glyph-name="afii10068" unicode="&#x433;" horiz-adv-x="433" 
d="M30 491h377l8 -151h-45q-12 62 -27.5 82.5t-55.5 20.5h-96v-337q0 -43 13 -56t57 -16v-34h-231v34q44 3 57 16t13 56v279q0 43 -13 56t-57 16v34z" />
    <glyph glyph-name="afii10069" unicode="&#x434;" horiz-adv-x="567" 
d="M432 0h-307q-28 0 -47.5 -38.5t-19.5 -106.5h-48v199h40q18 7 38 30t30 44q21 45 27.5 100.5t6.5 156.5q0 43 -13 56t-57 16v34h445v-34q-44 -3 -57 -16t-13 -56v-280q0 -34 14 -45.5t56 -11.5h20v-48l-25 -145h-48q0 82 -7 113.5t-35 31.5zM139 54v-6h227v395h-158
q0 -129 -4 -187t-18 -108q-13 -46 -47 -94z" />
    <glyph glyph-name="afii10070" unicode="&#x435;" horiz-adv-x="483" 
d="M289 49q69 0 133 42l21 -34q-88 -68 -178 -68q-108 0 -168.5 68.5t-60.5 191.5q0 120 60 189t155 69t147.5 -62.5t52.5 -176.5v-27h-319q1 -106 38.5 -149t118.5 -43zM249 459q-54 0 -82.5 -38.5t-33.5 -130.5h223q0 91 -25 130t-82 39z" />
    <glyph glyph-name="afii10072" unicode="&#x436;" horiz-adv-x="751" 
d="M330 232h-42q-34 0 -50.5 -23.5t-35.5 -82.5q-14 -46 -30.5 -72t-52.5 -44.5t-93 -18.5l-8 63q42 6 60.5 25t32.5 58q21 61 41 86.5t58 31.5v4q-31 10 -44 32t-31 80q-8 27 -20 39t-40 16l-46 6l8 72q75 -2 104.5 -30t47.5 -96q16 -59 42.5 -78.5t79.5 -19.5h19v105
q0 44 -11.5 56.5t-52.5 15.5v34h219v-34q-41 -3 -52.5 -15.5t-11.5 -56.5v-105h19q53 0 79.5 19.5t42.5 78.5q18 68 47.5 96t104.5 30l8 -72l-46 -6q-28 -4 -40 -16t-20 -39q-12 -41 -19 -58t-20.5 -32t-35.5 -22v-4q38 -6 58 -31.5t41 -86.5q14 -39 32.5 -58t60.5 -25
l-8 -63q-57 0 -93 18.5t-52.5 44.5t-30.5 72q-19 59 -35.5 82.5t-50.5 23.5h-42v-126q0 -44 11.5 -56.5t52.5 -15.5v-34h-219v34q41 3 52.5 15.5t11.5 56.5v126z" />
    <glyph glyph-name="afii10073" unicode="&#x437;" horiz-adv-x="448" 
d="M203 -11q-93 0 -171 39v92h58q9 -42 33.5 -63.5t78.5 -21.5q53 0 83 27t30 76q0 51 -25.5 72.5t-88.5 21.5h-52v46h51q51 0 73 21.5t22 67.5q0 90 -97 90q-85 0 -103 -83h-58v87q79 41 168 41q107 0 145.5 -36.5t38.5 -93.5q0 -36 -25 -66.5t-84 -40.5v-4
q69 -10 100.5 -39.5t31.5 -82.5q0 -79 -57 -114.5t-152 -35.5z" />
    <glyph glyph-name="afii10074" unicode="&#x438;" horiz-adv-x="602" 
d="M412 106v154q0 68 11 134h-5q-14 -42 -45 -88l-166 -245q-12 -17 -12 -61h-165v34q44 3 57 16t13 56v279q0 43 -13 56t-57 16v34h227v-34q-43 -3 -55 -15.5t-12 -56.5v-154q0 -68 -11 -134h5q14 42 45 88l166 245q12 17 12 61h165v-34q-44 -3 -57 -16t-13 -56v-279
q0 -43 13 -56t57 -16v-34h-227v34q43 3 55 15.5t12 56.5z" />
    <glyph glyph-name="afii10075" unicode="&#x439;" horiz-adv-x="602" 
d="M412 106v154q0 68 11 134h-5q-14 -42 -45 -88l-166 -245q-12 -17 -12 -61h-165v34q44 3 57 16t13 56v279q0 43 -13 56t-57 16v34h227v-34q-43 -3 -55 -15.5t-12 -56.5v-154q0 -68 -11 -134h5q14 42 45 88l166 245q12 17 12 61h165v-34q-44 -3 -57 -16t-13 -56v-279
q0 -43 13 -56t57 -16v-34h-227v34q43 3 55 15.5t12 56.5zM303 567q-53 0 -97 33.5t-60 81.5l31 22q39 -59 124 -59q42 0 71.5 12.5t52.5 46.5l32 -22q-16 -48 -59 -81.5t-95 -33.5z" />
    <glyph glyph-name="afii10076" unicode="&#x43a;" horiz-adv-x="532" 
d="M503 432l-46 -6q-28 -4 -40 -16t-20 -39q-17 -56 -31.5 -78t-48.5 -34v-4q39 -7 61.5 -33t42.5 -85q14 -39 32.5 -58t60.5 -25l-8 -63q-57 0 -93 18.5t-52 44.5t-32 72q-20 58 -39 82t-55 24h-44v-126q0 -44 12 -56.5t55 -15.5v-34h-228v34q44 3 57 16t13 56v279
q0 43 -13 56t-57 16v34h228v-34q-43 -3 -55 -15.5t-12 -56.5v-105h24q54 0 83 19.5t45 78.5q18 68 47.5 96t104.5 30z" />
    <glyph glyph-name="afii10077" unicode="&#x43b;" horiz-adv-x="559" 
d="M148 385q0 43 -13 56t-57 16v34h451v-34q-44 -3 -57 -16t-13 -56v-279q0 -43 13 -56t57 -16v-34h-228v34q43 3 55 15.5t12 56.5v337h-166q0 -127 -4 -194t-19 -114q-25 -81 -59.5 -112.5t-107.5 -31.5l-8 63q56 18 85 48q28 29 41.5 76t15.5 86t2 121z" />
    <glyph glyph-name="afii10078" unicode="&#x43c;" horiz-adv-x="692" 
d="M25 0v34q43 3 55.5 15.5t14.5 56.5l14 264q1 15 1 27q0 35 -14 46t-56 14v34h170l101 -265q29 -76 31 -111h6q1 28 32 110l97 266h175v-34q-42 -3 -56 -14t-14 -46q0 -4 2 -40l13 -251q2 -44 14.5 -56.5t55.5 -15.5v-34h-222v34q38 2 50 12.5t12 43.5q0 5 -0.5 12
t-1 19.5t-0.5 22.5l-8 171q-2 50 -2 82h-6q-3 -38 -27 -104l-107 -293h-52l-104 272q-23 63 -28 126h-6q0 -37 -2 -83l-9 -173q-2 -42 -2 -52q0 -33 12 -43.5t50 -12.5v-34h-189z" />
    <glyph glyph-name="afii10079" unicode="&#x43d;" horiz-adv-x="605" 
d="M414 385q0 44 -12 56.5t-55 15.5v34h228v-34q-44 -3 -57 -16t-13 -56v-279q0 -43 13 -56t57 -16v-34h-228v34q43 3 55 15.5t12 56.5v128h-223v-128q0 -44 12 -56.5t55 -15.5v-34h-228v34q44 3 57 16t13 56v279q0 43 -13 56t-57 16v34h228v-34q-43 -3 -55 -15.5t-12 -56.5
v-103h223v103z" />
    <glyph glyph-name="afii10080" unicode="&#x43e;" horiz-adv-x="532" 
d="M496 242q0 -117 -64 -185.5t-166 -68.5t-166 69.5t-64 189.5q0 119 63.5 189t164.5 70q108 0 170 -74t62 -190zM398 238q0 219 -134 219q-71 0 -100.5 -50.5t-29.5 -149.5q0 -115 31 -167.5t103 -52.5q64 0 97 52t33 149z" />
    <glyph glyph-name="afii10081" unicode="&#x43f;" horiz-adv-x="601" 
d="M100 385q0 43 -13 56t-57 16v34h541v-34q-44 -3 -57 -16t-13 -56v-279q0 -43 13 -56t57 -16v-34h-228v34q43 3 55 15.5t12 56.5v337h-219v-337q0 -44 12 -56.5t55 -15.5v-34h-228v34q44 3 57 16t13 56v279z" />
    <glyph glyph-name="afii10082" unicode="&#x440;" horiz-adv-x="568" 
d="M434 236q0 114 -26 158.5t-88 44.5q-72 0 -130 -64v-271q23 -28 55.5 -44t61.5 -16q66 0 96.5 41.5t30.5 150.5zM185 421q28 36 70.5 59t82.5 23q87 0 140.5 -62t53.5 -186q0 -119 -53.5 -189.5t-150.5 -70.5q-84 0 -138 57v-145q0 -41 14 -54t64 -15v-34h-239v34
q44 3 57 15.5t13 54.5v441q0 53 -14 68t-59 17v30l128 40h15q13 -32 16 -83z" />
    <glyph glyph-name="afii10083" unicode="&#x441;" horiz-adv-x="463" 
d="M415 464v-92h-68q-8 46 -26 65.5t-58 19.5q-128 0 -128 -199q0 -117 33.5 -165.5t105.5 -48.5q42 0 69 12.5t64 42.5l26 -28q-72 -82 -173 -82q-98 0 -161 64t-63 185q0 126 64 195.5t165 69.5q93 0 150 -39z" />
    <glyph glyph-name="afii10084" unicode="&#x442;" horiz-adv-x="502" 
d="M360 443h-63v-337q0 -43 13 -56t57 -16v-34h-231v34q44 3 57 16t13 56v337h-64q-40 0 -55.5 -20.5t-27.5 -82.5h-45l8 151h458l8 -151h-45q-12 62 -27.5 82.5t-55.5 20.5z" />
    <glyph glyph-name="afii10085" unicode="&#x443;" horiz-adv-x="505" 
d="M105 -213l-24 69q66 17 102 45t57 101l-36 -5q-22 89 -52 172l-80 218q-14 38 -29 52t-44 18v34h222v-34q-36 -1 -50 -8.5t-14 -22.5q0 -7 7 -28l72 -202q23 -65 35 -132h3q10 52 29 111l72 223q4 13 6 23q2 19 -11 27t-52 9v34h188v-34q-31 -4 -45 -17t-28 -53
l-140 -403q-32 -93 -73.5 -137.5t-114.5 -59.5z" />
    <glyph glyph-name="afii10086" unicode="&#x444;" horiz-adv-x="779" 
d="M36 248q0 119 49.5 187.5t141.5 68.5q32 0 66 -15t52 -46v141q0 53 -15 68t-61 17v32l137 29h16q12 -39 12 -98v-194q49 66 131 66q84 0 131 -67t47 -182q0 -119 -50.5 -189.5t-142.5 -70.5q-32 0 -64.5 15t-51.5 45v-148q0 -41 14 -54t64 -15v-34h-237v34q44 3 57 15.5
t13 54.5v153q-49 -66 -131 -66q-84 0 -131 69t-47 184zM539 439q-63 0 -105 -54v-266q42 -74 100 -74q54 0 83.5 54.5t29.5 145.5q0 194 -108 194zM240 60q63 0 105 54v266q-42 74 -106 74q-53 0 -80 -52.5t-27 -144.5q0 -197 108 -197z" />
    <glyph glyph-name="afii10087" unicode="&#x445;" horiz-adv-x="521" 
d="M238 215l-81 -129q-10 -16 -10 -27q0 -22 49 -25v-34h-182v34q31 3 45 14.5t40 48.5l108 160l-94 137q-26 38 -41.5 48.5t-51.5 14.5v34h223v-34q-45 -3 -45 -19q0 -11 14 -33l65 -103h4l62 103q12 20 12 31q0 19 -46 21v34h176v-34q-32 -4 -48 -15.5t-39 -47.5l-85 -132
l110 -165q26 -39 40 -49.5t47 -13.5v-34h-222v34q50 3 50 20q0 9 -14 32l-82 129h-4z" />
    <glyph glyph-name="afii10088" unicode="&#x446;" horiz-adv-x="609" 
d="M476 0h-446v34q44 3 57 16t13 56v279q0 43 -13 56t-57 16v34h228v-34q-43 -3 -55 -15.5t-12 -56.5v-337h219v337q0 44 -12 56.5t-55 15.5v34h228v-34q-44 -3 -57 -16t-13 -56v-280q0 -34 14 -45.5t56 -11.5h20v-48l-25 -145h-48q0 84 -6.5 114.5t-35.5 30.5z" />
    <glyph glyph-name="afii10089" unicode="&#x447;" horiz-adv-x="582" 
d="M171 385v-78q0 -61 19.5 -89t73.5 -28q61 0 127 42v153q0 44 -12 56.5t-55 15.5v34h228v-34q-44 -3 -57 -16t-13 -56v-290q0 -36 13.5 -47t56.5 -14v-34h-228v34q43 3 55 15.5t12 56.5v84q-77 -62 -154 -62q-73 0 -115 42t-42 119v97q0 43 -13 56t-57 16v33h228v-34
q-43 -3 -55 -15.5t-12 -56.5z" />
    <glyph glyph-name="afii10090" unicode="&#x448;" horiz-adv-x="832" 
d="M30 0v33q44 3 57 16t13 56v280q0 43 -13 56t-57 16v34h228v-34q-43 -3 -55 -15.5t-12 -56.5v-337h179v337q0 44 -11 57t-51 15v34h216v-34q-40 -2 -51 -15t-11 -57v-337h179v337q0 44 -12 56.5t-55 15.5v34h228v-34q-44 -3 -57 -16t-13 -56v-280q0 -43 13 -56t57 -16v-33
h-772z" />
    <glyph glyph-name="afii10091" unicode="&#x449;" horiz-adv-x="838" 
d="M705 0h-677v33q44 3 57 16t13 56v280q0 43 -13 56t-57 16v34h228v-34q-43 -3 -55 -15.5t-12 -56.5v-337h179v337q0 44 -11 57t-51 15v34h216v-34q-40 -2 -51 -15t-11 -57v-337h179v337q0 44 -12 56.5t-55 15.5v34h228v-34q-44 -3 -57 -16t-13 -56v-280q0 -32 12 -44.5
t46 -12.5h32v-48l-25 -145h-48q0 82 -7 113.5t-35 31.5z" />
    <glyph glyph-name="afii10092" unicode="&#x44a;" horiz-adv-x="575" 
d="M348 491v-34q-44 -3 -57 -16t-13 -56v-86h52q119 0 172 -34.5t53 -115.5q0 -85 -57 -117t-162 -32h-219v34q44 3 57 16t13 56v337h-47q-40 0 -55.5 -20.5t-27.5 -82.5h-45l8 151h328zM336 252h-58v-205h61q67 0 94 24t27 77q0 55 -25 79.5t-99 24.5z" />
    <glyph glyph-name="afii10093" unicode="&#x44b;" horiz-adv-x="742" 
d="M261 491v-34q-44 -3 -57 -16t-13 -56v-86h46q119 0 172 -34.5t53 -115.5q0 -44 -16 -74.5t-46.5 -46t-66.5 -22t-85 -6.5h-218v34q44 3 57 16t13 56v279q0 43 -13 56t-57 16v34h231zM551 385q0 44 -11.5 56.5t-54.5 15.5v34h227v-34q-44 -3 -57 -16t-13 -56v-279
q0 -43 13 -56t57 -16v-34h-227v34q43 3 54.5 15.5t11.5 56.5v279zM243 252h-52v-205h55q67 0 94 24t27 77q0 55 -25 79.5t-99 24.5z" />
    <glyph glyph-name="afii10094" unicode="&#x44c;" horiz-adv-x="488" 
d="M261 491v-34q-44 -3 -57 -16t-13 -56v-86h52q119 0 172 -34.5t53 -115.5q0 -85 -57 -117t-162 -32h-219v34q44 3 57 16t13 56v279q0 43 -13 56t-57 16v34h231zM249 252h-58v-205h61q67 0 94 24t27 77q0 55 -25 79.5t-99 24.5z" />
    <glyph glyph-name="afii10095" unicode="&#x44d;" horiz-adv-x="460" 
d="M125 224v48h200q-2 100 -34 142.5t-96 42.5q-40 0 -66 -22t-34 -61h-58v87q69 42 159 42q228 0 228 -265q0 -125 -62 -187t-172 -62q-101 0 -158 39v91h58q18 -84 100 -84q71 0 101 43.5t33 145.5h-199z" />
    <glyph glyph-name="afii10096" unicode="&#x44e;" horiz-adv-x="743" 
d="M707 242q0 -117 -61 -185.5t-156 -68.5q-93 0 -153.5 66t-64.5 180h-81v-128q0 -44 12 -56.5t55 -15.5v-34h-228v34q44 3 57 16t13 56v279q0 43 -13 56t-57 16v34h228v-34q-43 -3 -55 -15.5t-12 -56.5v-103h82q10 104 69.5 164t145.5 60q101 0 160 -74t59 -190zM609 238
q0 219 -121 219q-64 0 -91 -50.5t-27 -149.5q0 -113 29.5 -166.5t92.5 -53.5q117 0 117 201z" />
    <glyph glyph-name="afii10097" unicode="&#x44f;" horiz-adv-x="516" 
d="M416 385v-279q0 -43 13 -56t57 -16v-34h-231v34q44 3 57 16t13 56v100h-15q-56 0 -78 -18.5t-54 -94.5q-22 -54 -59 -78t-104 -24l-10 63q37 4 57.5 18t35.5 46q25 54 39 70.5t49 22.5v4q-145 5 -145 134q0 42 17.5 71t50.5 44t71 21t88 6h218v-34q-44 -3 -57 -16
t-13 -56zM136 350q0 -101 90 -101h99v195h-62q-64 0 -95.5 -22t-31.5 -72z" />
    <glyph glyph-name="uni0450" unicode="&#x450;" horiz-adv-x="483" 
d="M289 49q69 0 133 42l21 -34q-88 -68 -178 -68q-108 0 -168.5 68.5t-60.5 191.5q0 120 60 189t155 69t147.5 -62.5t52.5 -176.5v-27h-319q1 -106 38.5 -149t118.5 -43zM249 459q-54 0 -82.5 -38.5t-33.5 -130.5h223q0 91 -25 130t-82 39zM356 600l-20 -34l-212 96l53 91z
" />
    <glyph glyph-name="afii10071" unicode="&#x451;" horiz-adv-x="483" 
d="M289 49q69 0 133 42l21 -34q-88 -68 -178 -68q-108 0 -168.5 68.5t-60.5 191.5q0 120 60 189t155 69t147.5 -62.5t52.5 -176.5v-27h-319q1 -106 38.5 -149t118.5 -43zM249 459q-54 0 -82.5 -38.5t-33.5 -130.5h223q0 91 -25 130t-82 39zM197 638q0 -26 -17.5 -43
t-42.5 -17t-42.5 17t-17.5 43t17.5 43t42.5 17t42.5 -17t17.5 -43zM406 638q0 -26 -17 -43t-43 -17t-43 17t-17 43t17 43t43 17t43 -17t17 -43z" />
    <glyph glyph-name="afii10099" unicode="&#x452;" horiz-adv-x="573" 
d="M401 351q0 82 -73 82t-138 -63v-273q0 -38 12 -49.5t58 -13.5v-34h-231v34q44 3 57 15.5t13 54.5v460h-77v41h77q-1 43 -13 52.5t-63 11.5v32l140 29h15q12 -34 12 -99v-26h163v-41h-163v-143q40 40 77.5 61t89.5 21q61 0 98 -35t37 -99v-278q0 -136 -21 -189t-99 -98
l-43 52q72 52 72 148v347z" />
    <glyph glyph-name="afii10100" unicode="&#x453;" horiz-adv-x="433" 
d="M30 491h377l8 -151h-45q-12 62 -27.5 82.5t-55.5 20.5h-96v-337q0 -43 13 -56t57 -16v-34h-231v34q44 3 57 16t13 56v279q0 43 -13 56t-57 16v34zM151 566l-20 34l179 153l53 -91z" />
    <glyph glyph-name="afii10101" unicode="&#x454;" horiz-adv-x="462" 
d="M420 464v-87h-68q-9 40 -28.5 60t-58.5 20q-65 0 -97 -42.5t-33 -142.5h194v-48h-194q4 -99 37 -139.5t106 -40.5q42 0 69.5 12.5t64.5 42.5l26 -28q-72 -82 -174 -82q-109 0 -168.5 62.5t-59.5 186.5q0 130 59 197.5t172 67.5q96 0 153 -39z" />
    <glyph glyph-name="afii10102" unicode="&#x455;" horiz-adv-x="431" 
d="M202 -12q-98 0 -165 42v97h67q5 -51 29.5 -72t77.5 -21q103 0 103 87q0 39 -20 57.5t-66 29.5l-59 14q-127 30 -127 139q0 68 50 106t125 38q80 0 150 -35v-90h-64q-15 79 -94 79q-44 0 -68 -20.5t-24 -56.5q0 -32 17.5 -50.5t62.5 -28.5l59 -14q71 -17 104 -49.5
t33 -86.5q0 -75 -51.5 -120t-139.5 -45z" />
    <glyph glyph-name="afii10103" unicode="&#x456;" horiz-adv-x="286" 
d="M260 0h-231v34q44 3 57 15.5t13 54.5v245q0 53 -14 68t-59 17v30l149 40h15v-400q0 -43 11.5 -55.5t58.5 -14.5v-34zM200 644q0 -26 -18 -44.5t-44 -18.5t-44 18.5t-18 44.5t18 44.5t44 18.5t44 -18.5t18 -44.5z" />
    <glyph glyph-name="afii10104" unicode="&#x457;" horiz-adv-x="286" 
d="M260 0h-231v34q44 3 57 15.5t13 54.5v245q0 53 -14 68t-59 17v30l149 40h15v-400q0 -43 11.5 -55.5t58.5 -14.5v-34zM99 638q0 -26 -17.5 -43t-42.5 -17t-42.5 17t-17.5 43t17.5 43t42.5 17t42.5 -17t17.5 -43zM308 638q0 -26 -17 -43t-43 -17t-43 17t-17 43t17 43t43 17
t43 -17t17 -43z" />
    <glyph glyph-name="afii10105" unicode="&#x458;" horiz-adv-x="269" 
d="M99 12v337q0 53 -14 68t-59 17v30l149 40h15v-493q0 -54 -9 -90t-31.5 -60t-42 -36t-59.5 -31l-29 40q45 21 62.5 60.5t17.5 117.5zM200 644q0 -26 -18 -44.5t-44 -18.5t-44 18.5t-18 44.5t18 44.5t44 18.5t44 -18.5t18 -44.5z" />
    <glyph glyph-name="afii10106" unicode="&#x459;" horiz-adv-x="744" 
d="M148 385q0 43 -13 56t-57 16v34h445v-34q-44 -3 -57 -16t-13 -56v-86h46q119 0 172 -34.5t53 -115.5q0 -85 -57 -117t-162 -32h-208v34q43 3 54 15.5t11 56.5v337h-160q0 -127 -4 -194t-19 -114q-25 -81 -59.5 -112.5t-107.5 -31.5l-8 63q57 18 85 47t41.5 76.5
t15.5 86.5t2 121zM505 252h-52v-205h55q67 0 94 24t27 77q0 55 -25 79.5t-99 24.5z" />
    <glyph glyph-name="afii10107" unicode="&#x45a;" horiz-adv-x="766" 
d="M87 385q0 43 -13 56t-57 16v34h228v-34q-43 -3 -55 -15.5t-12 -56.5v-91h206v91q0 44 -12 56.5t-55 15.5v34h228v-34q-44 -3 -57 -16t-13 -56v-91h46q121 0 173 -32t52 -113q0 -44 -16 -74.5t-47 -46t-67.5 -22t-85.5 -6.5h-213v34q43 3 55 15.5t12 56.5v140h-206v-140
q0 -44 12 -56.5t55 -15.5v-34h-228v34q44 3 57 16t13 56v279zM527 246h-52v-200h59q65 0 91 24.5t26 77.5q0 54 -24.5 76t-99.5 22z" />
    <glyph glyph-name="afii10108" unicode="&#x45b;" horiz-adv-x="583" 
d="M190 631v-26h163v-41h-163v-143q40 40 77.5 61t89.5 21q61 0 98 -35t37 -99v-265q0 -42 12 -54.5t53 -15.5v-34h-226v34q46 2 58 13.5t12 49.5v254q0 82 -73 82t-138 -63v-273q0 -38 12 -49.5t58 -13.5v-34h-231v34q44 3 57 15.5t13 54.5v460h-77v41h77q-1 43 -13 52.5
t-63 11.5v32l140 29h15q12 -34 12 -99z" />
    <glyph glyph-name="afii10109" unicode="&#x45c;" horiz-adv-x="532" 
d="M503 432l-46 -6q-28 -4 -40 -16t-20 -39q-17 -56 -31.5 -78t-48.5 -34v-4q39 -7 61.5 -33t42.5 -85q14 -39 32.5 -58t60.5 -25l-8 -63q-57 0 -93 18.5t-52 44.5t-32 72q-20 58 -39 82t-55 24h-44v-126q0 -44 12 -56.5t55 -15.5v-34h-228v34q44 3 57 16t13 56v279
q0 43 -13 56t-57 16v34h228v-34q-43 -3 -55 -15.5t-12 -56.5v-105h24q54 0 83 19.5t45 78.5q18 68 47.5 96t104.5 30zM202 574l-20 34l179 153l53 -91z" />
    <glyph glyph-name="uni045D" unicode="&#x45d;" horiz-adv-x="602" 
d="M412 106v154q0 68 11 134h-5q-14 -42 -45 -88l-166 -245q-12 -17 -12 -61h-165v34q44 3 57 16t13 56v279q0 43 -13 56t-57 16v34h227v-34q-43 -3 -55 -15.5t-12 -56.5v-154q0 -68 -11 -134h5q14 42 45 88l166 245q12 17 12 61h165v-34q-44 -3 -57 -16t-13 -56v-279
q0 -43 13 -56t57 -16v-34h-227v34q43 3 55 15.5t12 56.5zM395 600l-20 -34l-212 96l53 91z" />
    <glyph glyph-name="afii10110" unicode="&#x45e;" horiz-adv-x="505" 
d="M105 -213l-24 69q66 17 102 45t57 101l-36 -5q-22 89 -52 172l-80 218q-14 38 -29 52t-44 18v34h222v-34q-36 -1 -50 -8.5t-14 -22.5q0 -7 7 -28l72 -202q23 -65 35 -132h3q10 52 29 111l72 223q4 13 6 23q2 19 -11 27t-52 9v34h188v-34q-31 -4 -45 -17t-28 -53
l-140 -403q-32 -93 -73.5 -137.5t-114.5 -59.5zM254 567q-53 0 -97 33.5t-60 81.5l31 22q39 -59 124 -59q42 0 71.5 12.5t52.5 46.5l32 -22q-16 -48 -59 -81.5t-95 -33.5z" />
    <glyph glyph-name="afii10193" unicode="&#x45f;" horiz-adv-x="601" 
d="M30 0v34q44 3 57 16t13 56v279q0 43 -13 56t-57 16v34h228v-34q-43 -3 -55 -15.5t-12 -56.5v-337h219v337q0 44 -12 56.5t-55 15.5v34h228v-34q-44 -3 -57 -16t-13 -56v-279q0 -43 13 -56t57 -16v-34h-194q-52 0 -52 -145h-49q0 145 -52 145h-194z" />
    <glyph glyph-name="afii10146" unicode="&#x462;" horiz-adv-x="690" 
d="M160 529q-49 0 -65 -18.5t-22 -75.5h-47l5 143h197q0 44 -15.5 59.5t-64.5 16.5v35h255v-35q-49 -1 -64.5 -16.5t-15.5 -59.5h194l8 -143h-47q-12 58 -28.5 76t-60.5 18h-66v-137h85q258 0 258 -193q0 -95 -60 -147t-172 -52h-286v35q49 1 64.5 16.5t15.5 59.5v418h-68z
M565 189q0 85 -32.5 120t-122.5 35h-87v-295h105q73 0 105 33.5t32 106.5z" />
    <glyph glyph-name="afii10194" unicode="&#x463;" horiz-adv-x="542" 
d="M286 443h-43v-104h52q117 0 171 -41t54 -127q0 -171 -219 -171h-219v34q44 3 57 16t13 56v337h-41q-43 0 -57 -13t-25 -68h-45l7 129h161v92q0 53 -15 68t-61 17v32l140 29h15q12 -38 12 -99v-139h163l7 -129h-45q-11 55 -25 68t-57 13zM301 292h-58v-245h61
q121 0 121 123q0 62 -27 92t-97 30z" />
    <glyph glyph-name="afii10147" unicode="&#x472;" horiz-adv-x="674" 
d="M340 -11q-143 0 -219.5 98.5t-76.5 259.5q0 168 78.5 261t212.5 93q77 0 135 -29t92 -80t51 -114.5t17 -137.5q0 -160 -77.5 -255.5t-212.5 -95.5zM340 34q185 0 186 294h-380q8 -294 194 -294zM335 654q-95 0 -140.5 -68.5t-48.5 -207.5h379q-6 137 -51 206.5t-139 69.5
z" />
    <glyph glyph-name="afii10195" unicode="&#x473;" horiz-adv-x="532" 
d="M496 242q0 -117 -64 -185.5t-166 -68.5t-166 69.5t-64 189.5q0 119 63.5 189t164.5 70q108 0 170 -74t62 -190zM268 37q125 0 130 187h-264q4 -97 35.5 -142t98.5 -45zM264 457q-69 0 -98.5 -47t-31.5 -138h263q-10 185 -133 185z" />
    <glyph glyph-name="afii10148" unicode="&#x474;" horiz-adv-x="668" 
d="M519 515l-147 -515h-93l-179 566q-15 48 -31 66t-53 22v35h245v-35q-37 -2 -52.5 -11t-15.5 -31q0 -12 5 -30l89 -303q28 -98 50 -196h6q9 50 49 196l67 245q10 39 18 61.5t21.5 46.5t31 36.5t44.5 21.5t64 10l13 -80l-52 -10q-33 -6 -50 -28t-30 -67z" />
    <glyph glyph-name="afii10196" unicode="&#x475;" horiz-adv-x="527" 
d="M295 173l59 190q25 80 55.5 109.5t106.5 31.5l8 -76l-47 -6q-28 -4 -41 -22t-35 -80l-112 -325h-69l-148 392q-15 39 -29 52.5t-44 17.5v34h222v-34q-36 -1 -50 -8t-14 -21q0 -10 7 -30l81 -223q15 -43 23 -87h4q10 45 23 85z" />
    <glyph glyph-name="afii10050" unicode="&#x490;" horiz-adv-x="510" 
d="M37 689h307q54 0 77.5 23.5t38.5 88.5h44l-15 -161h-277v-527q0 -44 16.5 -60.5t68.5 -17.5v-35h-260v35q49 1 64.5 16.5t15.5 59.5v467q0 44 -15.5 59.5t-64.5 16.5v35z" />
    <glyph glyph-name="afii10098" unicode="&#x491;" horiz-adv-x="419" 
d="M30 491h257q40 0 55.5 20.5t27.5 82.5h45l-8 -151h-216v-337q0 -43 13 -56t57 -16v-34h-231v34q44 3 57 16t13 56v279q0 43 -13 56t-57 16v34z" />
    <glyph glyph-name="uni0492" unicode="&#x492;" horiz-adv-x="531" 
d="M217 640v-256h173v-46h-173v-225q0 -44 18 -60.5t70 -17.5v-35h-263v35q49 1 64.5 16.5t15.5 59.5v227h-73v46h73v194q0 44 -15.5 59.5t-64.5 16.5v35h456l15 -161h-44q-15 65 -38.5 88.5t-77.5 23.5h-136z" />
    <glyph glyph-name="uni0493" unicode="&#x493;" horiz-adv-x="433" 
d="M30 491h377l8 -151h-45q-12 62 -27.5 82.5t-55.5 20.5h-96v-171h117v-48h-117v-118q0 -43 13 -56t57 -16v-34h-231v34q44 3 57 16t13 56v118h-61v48h61v113q0 43 -13 56t-57 16v34z" />
    <glyph glyph-name="uni0496" unicode="&#x496;" horiz-adv-x="974" 
d="M786 545q-13 -89 -37 -123.5t-75 -51.5v-4q58 -15 79.5 -48.5t50.5 -144.5q33 -125 132 -125h30v-48l-25 -180h-51q0 104 -8 138t-37 41q-61 16 -89 51t-52 125q-12 45 -17 61t-15.5 43t-20.5 36t-26.5 17t-38.5 8h-60v-229q0 -44 15.5 -59.5t64.5 -16.5v-35h-255v35
q49 1 64.5 16.5t15.5 59.5v229h-54q-24 0 -41.5 -7.5t-28.5 -16.5t-21.5 -35.5t-15.5 -43.5t-17 -62q-29 -109 -74 -147t-143 -38l-9 67q55 5 83 32.5t43 83.5q29 111 50.5 144.5t79.5 48.5v4q-51 17 -75 51.5t-37 123.5q-7 54 -65 63l-61 10l9 79q89 -3 128 -41t48 -111
q5 -44 17.5 -74t27 -46t39 -24t42.5 -9.5t50 -1.5h25v188q0 44 -15.5 59.5t-64.5 16.5v35h255v-35q-49 -1 -64.5 -16.5t-15.5 -59.5v-188h25q32 0 50 1.5t42.5 9.5t39 24t27 46t17.5 74q9 73 48 111t128 41l9 -79l-61 -10q-58 -9 -65 -63z" />
    <glyph glyph-name="uni0497" unicode="&#x497;" horiz-adv-x="767" 
d="M722 432l-46 -6q-28 -4 -40 -16t-20 -39q-17 -56 -31.5 -78.5t-46.5 -33.5v-4q39 -6 60 -32.5t42 -85.5q15 -42 36.5 -65.5t63.5 -23.5h30v-48l-25 -145h-48q0 79 -7 107t-37 38q-42 14 -64 43.5t-40 82.5q-21 59 -38 82.5t-51 23.5h-39v-126q0 -44 11.5 -56.5
t52.5 -15.5v-34h-219v34q41 3 52.5 15.5t11.5 56.5v126h-35q-36 0 -54.5 -23.5t-38.5 -82.5q-16 -46 -31.5 -72t-51.5 -44.5t-93 -18.5l-8 63q42 6 60.5 25t32.5 58q21 59 42 85.5t60 32.5v4q-32 11 -46.5 33.5t-31.5 78.5q-8 27 -20 39t-40 16l-46 6l8 72q75 -2 104.5 -30
t47.5 -96q16 -59 43.5 -78.5t81.5 -19.5h16v105q0 44 -11.5 56.5t-52.5 15.5v34h219v-34q-41 -3 -52.5 -15.5t-11.5 -56.5v-105h16q54 0 81.5 19.5t43.5 78.5q18 68 47.5 96t104.5 30z" />
    <glyph glyph-name="uni0498" unicode="&#x498;" horiz-adv-x="531" 
d="M211 340h-43v51h67q73 0 105.5 40.5t32.5 103.5q0 55 -33.5 87t-92.5 32q-67 0 -96.5 -27.5t-39.5 -83.5h-65v107q28 20 84 35.5t111 15.5q108 0 169 -42t61 -125q0 -62 -41.5 -106t-113.5 -58v-4q88 -12 135.5 -51t47.5 -121q0 -92 -62 -145.5t-172 -58.5l-8 -29
q44 -3 64.5 -23.5t20.5 -50.5q0 -85 -99 -85q-44 0 -81 25l16 32q28 -18 62 -18q40 0 40 36q0 31 -70 33v21l16 58q-113 4 -192 55v123h67q10 -70 41.5 -100.5t109.5 -30.5q75 0 109.5 41.5t34.5 106.5q0 37 -6 62t-24.5 48t-57 34.5t-97.5 11.5z" />
    <glyph glyph-name="uni0499" unicode="&#x499;" horiz-adv-x="444" 
d="M312 -113q0 -85 -99 -85q-44 0 -81 25l16 32q28 -18 62 -18q40 0 40 36q0 31 -70 33v21l16 58q-88 3 -160 39v92h58q9 -42 33.5 -63.5t78.5 -21.5q53 0 83 27t30 76q0 51 -25.5 72.5t-88.5 21.5h-52v46h51q51 0 73 21.5t22 67.5q0 90 -97 90q-85 0 -103 -83h-58v87
q79 41 168 41q107 0 145.5 -36.5t38.5 -93.5q0 -36 -25 -66.5t-84 -40.5v-4q69 -10 100.5 -39.5t31.5 -82.5q0 -138 -181 -149l-8 -29q44 -3 64.5 -23.5t20.5 -50.5z" />
    <glyph glyph-name="uni049A" unicode="&#x49a;" horiz-adv-x="661" 
d="M282 340h-70v-229q0 -44 15.5 -59.5t64.5 -16.5v-35h-255v35q49 1 64.5 16.5t15.5 59.5v467q0 44 -15.5 59.5t-64.5 16.5v35h255v-35q-49 -1 -64.5 -16.5t-15.5 -59.5v-188h35q33 0 51.5 1.5t42.5 9.5t37.5 24t25.5 46t18 74q9 72 48.5 110.5t127.5 41.5l9 -77l-61 -10
q-58 -9 -65 -63q-13 -90 -36.5 -124.5t-74.5 -51.5v-5q58 -15 79.5 -48.5t50.5 -144.5q33 -125 132 -125h21v-48l-25 -180h-51q0 103 -7.5 138t-35.5 41q-50 11 -81 51.5t-53 124.5q-28 106 -46.5 135.5t-71.5 29.5z" />
    <glyph glyph-name="uni049B" unicode="&#x49b;" horiz-adv-x="547" 
d="M330 126q-19 57 -39 81t-56 25h-44v-126q0 -44 12 -56.5t55 -15.5v-34h-228v34q44 3 57 16t13 56v279q0 43 -13 56t-57 16v34h228v-34q-43 -3 -55 -15.5t-12 -56.5v-105h24q54 0 83 19.5t45 78.5q18 68 47.5 96t104.5 30l8 -72l-45 -6q-28 -4 -40.5 -16t-20.5 -39
q-17 -56 -31.5 -78t-48.5 -34v-4q39 -7 61.5 -33t42.5 -85q14 -42 37 -65.5t65 -23.5h30v-48l-25 -145h-48q0 79 -7 107t-37 38q-43 14 -65.5 44t-40.5 82z" />
    <glyph glyph-name="uni049C" unicode="&#x49c;" horiz-adv-x="653" 
d="M481 543q-13 -88 -36.5 -121.5t-74.5 -50.5v-5q58 -15 79.5 -48.5t50.5 -144.5q15 -56 43 -83.5t83 -32.5l-9 -67q-99 0 -145.5 38.5t-73.5 146.5q-12 49 -17 66.5t-15.5 42.5t-22.5 35t-30 16l6 -184h-52v189h-55v-229q0 -44 15.5 -59.5t64.5 -16.5v-35h-255v35
q49 1 64.5 16.5t15.5 59.5v467q0 44 -15.5 59.5t-64.5 16.5v35h255v-35q-49 -1 -64.5 -16.5t-15.5 -59.5v-188h55v116h50l-4 -113q43 7 71 40.5t38 111.5q9 72 48.5 110.5t127.5 41.5l9 -79l-61 -10q-57 -9 -65 -65z" />
    </font>
</defs>
</svg>
